<svg width="56" height="56" viewBox="0 0 56 56" fill="none" xmlns="http://www.w3.org/2000/svg">
<path fill-rule="evenodd" clip-rule="evenodd" d="M28 56C43.464 56 56 43.464 56 28C56 12.536 43.464 0 28 0C12.536 0 0 12.536 0 28C0 43.464 12.536 56 28 56ZM16.6197 21.056C17.0037 15.776 21.7077 11.12 28.4757 11.12C35.1477 11.12 39.6117 15.344 39.6117 21.536C39.6117 26.384 36.1077 29.84 30.6357 30.512V33.2H24.8277V25.712H28.4757C31.4517 25.712 33.4677 24.032 33.4677 21.536C33.4677 18.704 31.4517 16.736 28.4757 16.736C25.2597 16.736 23.1957 18.944 22.6197 22.256L16.6197 21.056ZM23.8677 40.544C23.8677 38.576 25.4517 36.848 27.6597 36.848C29.8677 36.848 31.4517 38.576 31.4517 40.544C31.4517 42.608 29.8677 44.192 27.6597 44.192C25.4517 44.192 23.8677 42.608 23.8677 40.544Z" fill="#DADADA"/>
</svg>
