<svg width="302" height="124" viewBox="0 0 302 124" fill="none" xmlns="http://www.w3.org/2000/svg">
<path d="M89.7309 81.62V83.62H91.7309V81.62H89.7309ZM89.7309 52.98H91.7309V50.98H89.7309V52.98ZM59.3008 52.98H57.3008V54.98H59.3008V52.98ZM59.3008 22.55H61.3008V20.55H59.3008V22.55ZM30.6608 22.55V20.55H28.6608V22.55H30.6608ZM30.6608 52.98V54.98H32.6608V52.98H30.6608ZM0.230835 52.98V50.98H-1.76917V52.98H0.230835ZM0.230835 81.62H-1.76917V83.62H0.230835V81.62ZM30.6608 81.62H32.6608V79.62H30.6608V81.62ZM30.6608 112.05H28.6608V114.05H30.6608V112.05ZM59.3008 112.05V114.05H61.3008V112.05H59.3008ZM59.3008 81.62V79.62H57.3008V81.62H59.3008ZM91.7309 81.62V52.98H87.7309V81.62H91.7309ZM89.7309 50.98H59.3008V54.98H89.7309V50.98ZM61.3008 52.98V22.55H57.3008V52.98H61.3008ZM59.3008 20.55H30.6608V24.55H59.3008V20.55ZM28.6608 22.55V52.98H32.6608V22.55H28.6608ZM30.6608 50.98H0.230835V54.98H30.6608V50.98ZM-1.76917 52.98V81.62H2.23083V52.98H-1.76917ZM0.230835 83.62H30.6608V79.62H0.230835V83.62ZM28.6608 81.62V112.05H32.6608V81.62H28.6608ZM30.6608 114.05H59.3008V110.05H30.6608V114.05ZM61.3008 112.05V81.62H57.3008V112.05H61.3008ZM59.3008 83.62H89.7309V79.62H59.3008V83.62ZM138.342 42.419L136.346 42.2942L136.213 44.419H138.342V42.419ZM138.879 33.827V31.827H137L136.883 33.7022L138.879 33.827ZM191.863 33.827V35.827H193.863V33.827H191.863ZM191.863 0.890999H193.863V-1.109H191.863V0.890999ZM106.659 0.890999V-1.109H104.738L104.661 0.810051L106.659 0.890999ZM103.795 71.596L101.797 71.515L101.712 73.596H103.795V71.596ZM135.478 76.071L137.476 75.9841L137.376 73.6782L135.108 74.1056L135.478 76.071ZM98.4249 83.052L98.0546 81.0866L96.285 81.42L96.4316 83.2147L98.4249 83.052ZM140.338 42.5438L140.875 33.9518L136.883 33.7022L136.346 42.2942L140.338 42.5438ZM138.879 35.827H191.863V31.827H138.879V35.827ZM193.863 33.827V0.890999H189.863V33.827H193.863ZM191.863 -1.109H106.659V2.891H191.863V-1.109ZM104.661 0.810051L101.797 71.515L105.793 71.6769L108.657 0.971947L104.661 0.810051ZM103.795 73.596H147.292V69.596H103.795V73.596ZM147.292 73.596C150.82 73.596 153.522 74.4998 155.295 75.8967C157.022 77.2576 158.001 79.1814 158.001 81.62H162.001C162.001 77.9726 160.474 74.8844 157.771 72.7548C155.113 70.6611 151.461 69.596 147.292 69.596V73.596ZM158.001 81.62C158.001 84.2539 157.073 86.2995 155.573 87.6966C154.059 89.1064 151.801 90.002 148.903 90.002V94.002C152.628 94.002 155.919 92.8391 158.298 90.6242C160.691 88.3965 162.001 85.2511 162.001 81.62H158.001ZM148.903 90.002C146.34 90.002 143.656 89.2278 141.559 87.2226C139.475 85.2297 137.728 81.79 137.476 75.9841L133.48 76.1579C133.764 82.703 135.777 87.2288 138.795 90.1137C141.799 92.9862 145.559 94.002 148.903 94.002V90.002ZM135.108 74.1056L98.0546 81.0866L98.7952 85.0174L135.848 78.0364L135.108 74.1056ZM96.4316 83.2147C97.5513 96.9316 103.783 107.609 113.207 114.824C122.596 122.011 135.041 125.685 148.545 125.685V121.685C135.736 121.685 124.195 118.199 115.639 111.648C107.118 105.124 101.447 95.4854 100.418 82.8893L96.4316 83.2147ZM148.545 125.685C163.336 125.685 175.833 121.364 184.662 113.572C193.514 105.758 198.517 94.5911 198.517 81.262H194.517C194.517 93.5299 189.944 103.574 182.015 110.573C174.062 117.593 162.573 121.685 148.545 121.685V125.685ZM198.517 81.262C198.517 69.1243 194.799 58.8214 186.906 51.5739C179.036 44.3484 167.298 40.419 151.767 40.419V44.419C166.666 44.419 177.302 48.1866 184.201 54.5203C191.075 60.8321 194.517 69.9507 194.517 81.262H198.517ZM151.767 40.419H138.342V44.419H151.767V40.419ZM243.4 42.419L241.403 42.2942L241.271 44.419H243.4V42.419ZM243.937 33.827V31.827H242.058L241.94 33.7022L243.937 33.827ZM296.921 33.827V35.827H298.921V33.827H296.921ZM296.921 0.890999H298.921V-1.109H296.921V0.890999ZM211.717 0.890999V-1.109H209.796L209.718 0.810051L211.717 0.890999ZM208.853 71.596L206.854 71.515L206.77 73.596H208.853V71.596ZM240.536 76.071L242.534 75.9841L242.433 73.6782L240.165 74.1056L240.536 76.071ZM203.483 83.052L203.112 81.0866L201.343 81.42L201.489 83.2147L203.483 83.052ZM245.396 42.5438L245.933 33.9518L241.94 33.7022L241.403 42.2942L245.396 42.5438ZM243.937 35.827H296.921V31.827H243.937V35.827ZM298.921 33.827V0.890999H294.921V33.827H298.921ZM296.921 -1.109H211.717V2.891H296.921V-1.109ZM209.718 0.810051L206.854 71.515L210.851 71.6769L213.715 0.971947L209.718 0.810051ZM208.853 73.596H252.35V69.596H208.853V73.596ZM252.35 73.596C255.878 73.596 258.58 74.4998 260.353 75.8967C262.08 77.2576 263.059 79.1814 263.059 81.62H267.059C267.059 77.9726 265.531 74.8844 262.828 72.7548C260.171 70.6611 256.518 69.596 252.35 69.596V73.596ZM263.059 81.62C263.059 84.2539 262.131 86.2995 260.63 87.6966C259.116 89.1064 256.858 90.002 253.961 90.002V94.002C257.686 94.002 260.977 92.8391 263.356 90.6242C265.749 88.3965 267.059 85.2511 267.059 81.62H263.059ZM253.961 90.002C251.397 90.002 248.714 89.2278 246.616 87.2226C244.532 85.2297 242.786 81.79 242.534 75.9841L238.537 76.1579C238.822 82.703 240.835 87.2288 243.852 90.1137C246.856 92.9862 250.617 94.002 253.961 94.002V90.002ZM240.165 74.1056L203.112 81.0866L203.853 85.0174L240.906 78.0364L240.165 74.1056ZM201.489 83.2147C202.609 96.9316 208.841 107.609 218.265 114.824C227.653 122.011 240.099 125.685 253.603 125.685V121.685C240.793 121.685 229.253 118.199 220.696 111.648C212.176 105.124 206.504 95.4854 205.476 82.8893L201.489 83.2147ZM253.603 125.685C268.393 125.685 280.891 121.364 289.719 113.572C298.571 105.758 303.575 94.5911 303.575 81.262H299.575C299.575 93.5299 295.001 103.574 287.072 110.573C279.119 117.593 267.631 121.685 253.603 121.685V125.685ZM303.575 81.262C303.575 69.1243 299.857 58.8214 291.963 51.5739C284.094 44.3484 272.356 40.419 256.825 40.419V44.419C271.723 44.419 282.36 48.1866 289.258 54.5203C296.132 60.8321 299.575 69.9507 299.575 81.262H303.575ZM256.825 40.419H243.4V44.419H256.825V40.419Z" fill="black"/>
</svg>
