<svg width="484" height="126" viewBox="0 0 484 126" fill="none" xmlns="http://www.w3.org/2000/svg">
<path d="M66.1935 3.07H68.1935V1.07H66.1935V3.07ZM40.4174 3.07V1.07H39.8951L39.4395 1.32539L40.4174 3.07ZM0.50045 25.445L-0.47747 23.7004L-1.49955 24.2733V25.445H0.50045ZM0.50045 61.961H-1.49955V65.2164L1.40438 63.7451L0.50045 61.961ZM27.3504 48.357H29.3504V45.1016L26.4465 46.5729L27.3504 48.357ZM27.3504 123H25.3504V125H27.3504V123ZM66.1935 123V125H68.1935V123H66.1935ZM66.1935 1.07H40.4174V5.07H66.1935V1.07ZM39.4395 1.32539L-0.47747 23.7004L1.47837 27.1896L41.3954 4.81461L39.4395 1.32539ZM-1.49955 25.445V61.961H2.50045V25.445H-1.49955ZM1.40438 63.7451L28.2544 50.1411L26.4465 46.5729L-0.403481 60.1769L1.40438 63.7451ZM25.3504 48.357V123H29.3504V48.357H25.3504ZM27.3504 125H66.1935V121H27.3504V125ZM68.1935 123V3.07H64.1935V123H68.1935ZM115.554 53.906L113.555 53.8584L113.441 58.6351L116.923 55.3637L115.554 53.906ZM121.461 36.543L122.941 37.8883L122.949 37.8801L122.956 37.8717L121.461 36.543ZM142.225 38.87L140.296 39.3962L140.787 41.1973L142.617 40.8312L142.225 38.87ZM178.92 31.531L179.312 33.4922L181.369 33.0808L180.86 31.0459L178.92 31.531ZM96.4011 15.063L94.9869 13.6488L96.4011 15.063ZM139.182 42.956C129.392 42.956 120.482 46.5331 114.185 52.4483L116.923 55.3637C122.441 50.1808 130.356 46.956 139.182 46.956V42.956ZM117.554 53.9536C117.725 46.7727 119.77 41.3766 122.941 37.8883L119.981 35.1977C115.992 39.5854 113.742 46.0033 113.555 53.8584L117.554 53.9536ZM122.956 37.8717C125.558 34.9442 128.453 33.352 131.843 33.352V29.352C126.999 29.352 123.092 31.6977 119.966 35.2143L122.956 37.8717ZM131.843 33.352C134.369 33.352 136.096 33.7395 137.339 34.5633C138.535 35.3552 139.573 36.7453 140.296 39.3962L144.155 38.3438C143.267 35.0877 141.798 32.7188 139.548 31.2284C137.346 29.77 134.687 29.352 131.843 29.352V33.352ZM142.617 40.8312L179.312 33.4922L178.528 29.5698L141.833 36.9088L142.617 40.8312ZM180.86 31.0459C175.57 9.88542 157.391 -1.61501 133.275 -1.61501V2.38499C156.057 2.38499 172.246 13.0806 176.98 32.0161L180.86 31.0459ZM133.275 -1.61501C117.359 -1.61501 104.497 4.13896 94.9869 13.6488L97.8153 16.4772C106.563 7.72902 118.403 2.38499 133.275 2.38499V-1.61501ZM94.9869 13.6488C82.4985 26.1372 76.6801 44.8032 76.6801 65.72H80.6801C80.6801 45.4668 86.3177 27.9748 97.8153 16.4772L94.9869 13.6488ZM76.6801 65.72C76.6801 85.2345 82.1097 100.76 91.9797 111.426C101.866 122.108 115.996 127.685 132.917 127.685V123.685C116.902 123.685 103.914 118.432 94.9155 108.709C85.901 98.968 80.6801 84.5115 80.6801 65.72H76.6801ZM132.917 127.685C161.08 127.685 182.71 110.445 182.71 84.694H178.71C178.71 107.631 159.528 123.685 132.917 123.685V127.685ZM182.71 84.694C182.71 72.3069 178.368 61.8292 170.659 54.4524C162.958 47.0831 152.053 42.956 139.182 42.956V46.956C151.192 46.956 161.051 50.7944 167.894 57.3424C174.729 63.8828 178.71 73.2741 178.71 84.694H182.71ZM131.664 94.329C125.522 94.329 120.06 89.2323 120.06 83.083H116.06C116.06 91.6117 123.487 98.329 131.664 98.329V94.329ZM120.06 83.083C120.06 76.5757 125.522 71.658 131.664 71.658V67.658C123.487 67.658 116.06 74.1963 116.06 83.083H120.06ZM131.664 71.658C137.807 71.658 143.268 76.5757 143.268 83.083H147.268C147.268 74.1963 139.842 67.658 131.664 67.658V71.658ZM143.268 83.083C143.268 89.2323 137.807 94.329 131.664 94.329V98.329C139.842 98.329 147.268 91.6117 147.268 83.083H143.268ZM255.595 88.99V90.99H257.595V88.99H255.595ZM255.595 57.486H257.595V55.486H255.595V57.486ZM195.093 57.486V55.486H193.093V57.486H195.093ZM195.093 88.99H193.093V90.99H195.093V88.99ZM257.595 88.99V57.486H253.595V88.99H257.595ZM255.595 55.486H195.093V59.486H255.595V55.486ZM193.093 57.486V88.99H197.093V57.486H193.093ZM195.093 90.99H255.595V86.99H195.093V90.99ZM364.512 89.706H366.512V87.706H364.512V89.706ZM325.669 89.706L324.395 88.1645L320.111 91.706H325.669V89.706ZM339.094 78.608L340.369 80.1495L340.379 80.141L339.094 78.608ZM265.525 40.123L263.529 40.0089L263.427 41.7856L265.18 42.0929L265.525 40.123ZM303.294 46.746L302.949 48.7159L305.134 49.0991L305.289 46.886L303.294 46.746ZM310.275 59.992L311.565 61.5207L311.574 61.5127L310.275 59.992ZM266.778 96.687L265.489 95.1583L264.778 95.7576V96.687H266.778ZM266.778 121.926L268.567 122.82L268.778 122.398V121.926H266.778ZM266.241 123L264.452 122.106L263.005 125H266.241V123ZM364.512 123V125H366.512V123H364.512ZM364.512 87.706H325.669V91.706H364.512V87.706ZM326.944 91.2475L340.369 80.1495L337.82 77.0665L324.395 88.1645L326.944 91.2475ZM340.379 80.141C353.565 69.0934 364.185 59.7734 364.185 41.913H360.185C360.185 57.7046 351.116 65.9266 337.81 77.075L340.379 80.141ZM364.185 41.913C364.185 27.9445 358.946 16.9767 349.945 9.53849C340.991 2.13982 328.504 -1.61501 314.213 -1.61501V2.38499C327.847 2.38499 339.346 5.96916 347.397 12.622C355.4 19.2353 360.185 29.0314 360.185 41.913H364.185ZM314.213 -1.61501C299.916 -1.61501 287.625 2.14297 278.685 9.29475C269.711 16.4746 264.275 26.9504 263.529 40.0089L267.522 40.2371C268.208 28.2356 273.154 18.8424 281.184 12.4182C289.249 5.96601 300.587 2.38499 314.213 2.38499V-1.61501ZM265.18 42.0929L302.949 48.7159L303.64 44.7761L265.871 38.1531L265.18 42.0929ZM305.289 46.886C305.628 42.0683 306.961 38.9801 308.68 37.1158C310.366 35.2878 312.617 34.426 315.287 34.426V30.426C311.693 30.426 308.305 31.6227 305.74 34.4039C303.208 37.1489 301.677 41.2207 301.299 46.606L305.289 46.886ZM315.287 34.426C317.517 34.426 319.214 35.1598 320.352 36.3138C321.492 37.4697 322.237 39.2178 322.237 41.555H326.237C326.237 38.3432 325.193 35.5268 323.2 33.5055C321.205 31.4822 318.428 30.426 315.287 30.426V34.426ZM322.237 41.555C322.237 43.9502 321.199 46.2853 318.935 49.0314C316.648 51.8054 313.294 54.7832 308.976 58.4713L311.574 61.5127C315.849 57.8617 319.475 54.6641 322.022 51.5759C324.591 48.4597 326.237 45.2457 326.237 41.555H322.237ZM308.986 58.4633L265.489 95.1583L268.068 98.2157L311.565 61.5207L308.986 58.4633ZM264.778 96.687V121.926H268.778V96.687H264.778ZM264.989 121.032L264.452 122.106L268.03 123.894L268.567 122.82L264.989 121.032ZM266.241 125H364.512V121H266.241V125ZM366.512 123V89.706H362.512V123H366.512ZM483.623 105.458V107.458H485.623V105.458H483.623ZM483.623 73.775H485.623V71.775H483.623V73.775ZM469.84 73.775H467.84V75.775H469.84V73.775ZM469.84 2.891H471.84V0.890999H469.84V2.891ZM424.732 2.891V0.890999H423.73L423.13 1.69304L424.732 2.891ZM374.254 70.374L372.652 69.176L372.254 69.7088V70.374H374.254ZM374.254 105.458H372.254V107.458H374.254V105.458ZM433.682 105.458H435.682V103.458H433.682V105.458ZM433.682 123H431.682V125H433.682V123ZM469.84 123V125H471.84V123H469.84ZM469.84 105.458V103.458H467.84V105.458H469.84ZM433.682 73.775V75.775H435.682V73.775H433.682ZM410.77 73.775L409.14 72.616L406.893 75.775H410.77V73.775ZM433.682 41.555H435.682V35.2914L432.052 40.396L433.682 41.555ZM485.623 105.458V73.775H481.623V105.458H485.623ZM483.623 71.775H469.84V75.775H483.623V71.775ZM471.84 73.775V2.891H467.84V73.775H471.84ZM469.84 0.890999H424.732V4.891H469.84V0.890999ZM423.13 1.69304L372.652 69.176L375.855 71.572L426.333 4.08896L423.13 1.69304ZM372.254 70.374V105.458H376.254V70.374H372.254ZM374.254 107.458H433.682V103.458H374.254V107.458ZM431.682 105.458V123H435.682V105.458H431.682ZM433.682 125H469.84V121H433.682V125ZM471.84 123V105.458H467.84V123H471.84ZM469.84 107.458H483.623V103.458H469.84V107.458ZM433.682 71.775H410.77V75.775H433.682V71.775ZM412.4 74.9341L435.312 42.714L432.052 40.396L409.14 72.616L412.4 74.9341ZM431.682 41.555V73.775H435.682V41.555H431.682Z" fill="black"/>
</svg>
