<svg width="525" height="126" viewBox="0 0 525 126" fill="none" xmlns="http://www.w3.org/2000/svg">
<path d="M99.4933 89.706H101.493V87.706H99.4933V89.706ZM60.6503 89.706L59.376 88.1645L55.0919 91.706H60.6503V89.706ZM74.0753 78.608L75.3496 80.1495L75.3597 80.141L74.0753 78.608ZM0.506289 40.123L-1.49045 40.0089L-1.59198 41.7856L0.160849 42.0929L0.506289 40.123ZM38.2753 46.746L37.9298 48.7159L40.1151 49.0991L40.2704 46.886L38.2753 46.746ZM45.2563 59.992L46.5459 61.5207L46.5553 61.5127L45.2563 59.992ZM1.75929 96.687L0.469662 95.1583L-0.240711 95.7576V96.687H1.75929ZM1.75929 121.926L3.54815 122.82L3.75929 122.398V121.926H1.75929ZM1.22229 123L-0.566565 122.106L-2.01378 125H1.22229V123ZM99.4933 123V125H101.493V123H99.4933ZM99.4933 87.706H60.6503V91.706H99.4933V87.706ZM61.9246 91.2475L75.3496 80.1495L72.801 77.0665L59.376 88.1645L61.9246 91.2475ZM75.3597 80.141C88.5456 69.0934 99.1663 59.7734 99.1663 41.913H95.1663C95.1663 57.7046 86.097 65.9266 72.7909 77.075L75.3597 80.141ZM99.1663 41.913C99.1663 27.9445 93.9274 16.9767 84.9258 9.53849C75.972 2.13982 63.4847 -1.61501 49.1943 -1.61501V2.38499C62.8279 2.38499 74.3266 5.96916 82.3778 12.622C90.3811 19.2353 95.1663 29.0314 95.1663 41.913H99.1663ZM49.1943 -1.61501C34.8966 -1.61501 22.6061 2.14297 13.6664 9.29475C4.6916 16.4746 -0.744251 26.9504 -1.49045 40.0089L2.50303 40.2371C3.18883 28.2356 8.13498 18.8424 16.1652 12.4182C24.2304 5.96601 35.568 2.38499 49.1943 2.38499V-1.61501ZM0.160849 42.0929L37.9298 48.7159L38.6207 44.7761L0.851728 38.1531L0.160849 42.0929ZM40.2704 46.886C40.6085 42.0683 41.9416 38.9801 43.6611 37.1158C45.3472 35.2878 47.5976 34.426 50.2683 34.426V30.426C46.674 30.426 43.2859 31.6227 40.7208 34.4039C38.189 37.1489 36.6581 41.2207 36.2802 46.606L40.2704 46.886ZM50.2683 34.426C52.498 34.426 54.1952 35.1598 55.3328 36.3138C56.4725 37.4697 57.2183 39.2178 57.2183 41.555H61.2183C61.2183 38.3432 60.1741 35.5268 58.1813 33.5055C56.1864 31.4822 53.4086 30.426 50.2683 30.426V34.426ZM57.2183 41.555C57.2183 43.9502 56.1801 46.2853 53.9161 49.0314C51.6291 51.8054 48.275 54.7832 43.9573 58.4713L46.5553 61.5127C50.8296 57.8617 54.4564 54.6641 57.0025 51.5759C59.5715 48.4597 61.2183 45.2457 61.2183 41.555H57.2183ZM43.9667 58.4633L0.469662 95.1583L3.04892 98.2157L46.5459 61.5207L43.9667 58.4633ZM-0.240711 96.687V121.926H3.75929V96.687H-0.240711ZM-0.0295658 121.032L-0.566565 122.106L3.01114 123.894L3.54815 122.82L-0.0295658 121.032ZM1.22229 125H99.4933V121H1.22229V125ZM101.493 123V89.706H97.4933V123H101.493ZM163.177 -1.61501C145.91 -1.61501 131.434 4.86437 121.294 16.286C111.174 27.6856 105.508 43.853 105.508 63.035H109.508C109.508 44.627 114.939 29.4694 124.286 18.9415C133.612 8.43561 146.97 2.38499 163.177 2.38499V-1.61501ZM105.508 63.035C105.508 82.217 111.174 98.3844 121.294 109.784C131.434 121.206 145.91 127.685 163.177 127.685V123.685C146.97 123.685 133.612 117.634 124.286 107.128C114.939 96.6006 109.508 81.443 109.508 63.035H105.508ZM163.177 127.685C180.357 127.685 194.788 121.203 204.904 109.782C215 98.3833 220.667 82.217 220.667 63.035H216.667C216.667 81.443 211.235 96.6017 201.91 107.13C192.604 117.637 179.291 123.685 163.177 123.685V127.685ZM220.667 63.035C220.667 43.853 215 27.6867 204.904 16.2877C194.788 4.86668 180.357 -1.61501 163.177 -1.61501V2.38499C179.291 2.38499 192.604 8.4333 201.91 18.9398C211.235 29.4683 216.667 44.627 216.667 63.035H220.667ZM163.177 90.749C159.172 90.749 155.806 88.7755 153.331 84.3642C150.795 79.845 149.246 72.8095 149.246 63.035H145.246C145.246 73.1295 146.829 80.951 149.842 86.3215C152.916 91.8 157.515 94.749 163.177 94.749V90.749ZM149.246 63.035C149.246 53.3524 150.794 46.3624 153.329 41.8658C155.803 37.4753 159.17 35.5 163.177 35.5V31.5C157.517 31.5 152.919 34.4472 149.844 39.9017C146.83 45.2501 145.246 53.0276 145.246 63.035H149.246ZM163.177 35.5C167.079 35.5 170.405 37.4604 172.865 41.8597C175.381 46.3596 176.929 53.3534 176.929 63.035H180.929C180.929 53.0266 179.344 45.2529 176.356 39.9078C173.311 34.4621 168.762 31.5 163.177 31.5V35.5ZM176.929 63.035C176.929 72.8085 175.38 79.8478 172.863 84.3702C170.403 88.7904 167.077 90.749 163.177 90.749V94.749C168.763 94.749 173.314 91.7851 176.358 86.3155C179.345 80.9482 180.929 73.1305 180.929 63.035H176.929ZM293.513 88.99V90.99H295.513V88.99H293.513ZM293.513 57.486H295.513V55.486H293.513V57.486ZM233.01 57.486V55.486H231.01V57.486H233.01ZM233.01 88.99H231.01V90.99H233.01V88.99ZM295.513 88.99V57.486H291.513V88.99H295.513ZM293.513 55.486H233.01V59.486H293.513V55.486ZM231.01 57.486V88.99H235.01V57.486H231.01ZM233.01 90.99H293.513V86.99H233.01V90.99ZM392.143 61.424L391.008 59.777L388.495 61.5085L391.086 63.1218L392.143 61.424ZM307.655 38.691L305.685 38.3466L305.344 40.2984L307.292 40.6578L307.655 38.691ZM344.529 45.493L344.166 47.4598L346.295 47.8526L346.518 45.6988L344.529 45.493ZM342.202 48.178V46.178H340.202V48.178H342.202ZM342.202 76.46H340.202V78.46H342.202V76.46ZM344.887 80.935L346.855 80.5807L346.503 78.6258L344.546 78.9642L344.887 80.935ZM306.581 87.558L306.24 85.5872L304.279 85.9263L304.609 87.8891L306.581 87.558ZM393.278 63.071C401.836 57.175 406.315 49.2389 406.315 38.87H402.315C402.315 47.8331 398.56 54.575 391.008 59.777L393.278 63.071ZM406.315 38.87C406.315 15.5641 385.148 -1.61501 356.522 -1.61501V2.38499C383.744 2.38499 402.315 18.4999 402.315 38.87H406.315ZM356.522 -1.61501C343.924 -1.61501 332.383 1.64987 323.378 8.33311C314.347 15.0359 308.004 25.0784 305.685 38.3466L309.625 39.0354C311.78 26.7066 317.609 17.5961 325.762 11.5451C333.942 5.47461 344.596 2.38499 356.522 2.38499V-1.61501ZM307.292 40.6578L344.166 47.4598L344.892 43.5262L308.018 36.7242L307.292 40.6578ZM346.518 45.6988C347.03 40.7548 348.411 37.496 350.185 35.5C351.912 33.5575 354.163 32.636 356.88 32.636V28.636C353.153 28.636 349.765 29.9519 347.196 32.8425C344.674 35.6794 343.102 39.8492 342.54 45.2872L346.518 45.6988ZM356.88 32.636C359.926 32.636 362.253 33.4768 363.782 34.7622C365.278 36.0201 366.157 37.8211 366.157 40.123H370.157C370.157 36.6969 368.799 33.7544 366.356 31.7008C363.947 29.6747 360.636 28.636 356.88 28.636V32.636ZM366.157 40.123C366.157 42.0243 365.302 43.4175 363.563 44.4404C361.712 45.5291 358.85 46.178 355.09 46.178V50.178C359.206 50.178 362.877 49.4844 365.591 47.8881C368.417 46.226 370.157 43.5917 370.157 40.123H366.157ZM355.09 46.178H342.202V50.178H355.09V46.178ZM340.202 48.178V76.46H344.202V48.178H340.202ZM342.202 78.46H355.806V74.46H342.202V78.46ZM355.806 78.46C359.549 78.46 362.391 79.1484 364.23 80.3021C365.958 81.3865 366.873 82.9099 366.873 85.052H370.873C370.873 81.4661 369.192 78.6935 366.356 76.9139C363.63 75.2036 359.939 74.46 355.806 74.46V78.46ZM366.873 85.052C366.873 87.3539 365.994 89.1549 364.498 90.4128C362.969 91.6982 360.642 92.539 357.596 92.539V96.539C361.352 96.539 364.663 95.5003 367.072 93.4742C369.515 91.4206 370.873 88.4781 370.873 85.052H366.873ZM357.596 92.539C355.102 92.539 352.843 91.6007 350.998 89.7003C349.129 87.7737 347.61 84.773 346.855 80.5807L342.919 81.2893C343.775 86.047 345.568 89.8483 348.128 92.4862C350.714 95.1503 354.004 96.539 357.596 96.539V92.539ZM344.546 78.9642L306.24 85.5872L306.922 89.5288L345.228 82.9058L344.546 78.9642ZM304.609 87.8891C308.929 113.623 330.939 127.685 357.059 127.685V123.685C332.343 123.685 312.467 110.539 308.553 87.2269L304.609 87.8891ZM357.059 127.685C386.396 127.685 408.284 109.973 408.284 86.126H404.284C404.284 107.029 385.002 123.685 357.059 123.685V127.685ZM408.284 86.126C408.284 74.8392 403.243 65.9794 393.2 59.7262L391.086 63.1218C400.017 68.6826 404.284 76.2908 404.284 86.126H408.284ZM469.085 -1.61501C451.819 -1.61501 437.342 4.86437 427.202 16.286C417.082 27.6856 411.416 43.853 411.416 63.035H415.416C415.416 44.627 420.848 29.4694 430.194 18.9415C439.52 8.43561 452.878 2.38499 469.085 2.38499V-1.61501ZM411.416 63.035C411.416 82.217 417.082 98.3844 427.202 109.784C437.342 121.206 451.819 127.685 469.085 127.685V123.685C452.878 123.685 439.52 117.634 430.194 107.128C420.848 96.6006 415.416 81.443 415.416 63.035H411.416ZM469.085 127.685C486.265 127.685 500.697 121.203 510.812 109.782C520.909 98.3833 526.575 82.217 526.575 63.035H522.575C522.575 81.443 517.143 96.6017 507.818 107.13C498.512 117.637 485.199 123.685 469.085 123.685V127.685ZM526.575 63.035C526.575 43.853 520.909 27.6867 510.812 16.2877C500.697 4.86668 486.265 -1.61501 469.085 -1.61501V2.38499C485.199 2.38499 498.512 8.4333 507.818 18.9398C517.143 29.4683 522.575 44.627 522.575 63.035H526.575ZM469.085 90.749C465.08 90.749 461.714 88.7755 459.239 84.3642C456.703 79.845 455.154 72.8095 455.154 63.035H451.154C451.154 73.1295 452.737 80.951 455.75 86.3215C458.824 91.8 463.424 94.749 469.085 94.749V90.749ZM455.154 63.035C455.154 53.3524 456.703 46.3624 459.237 41.8658C461.712 37.4753 465.079 35.5 469.085 35.5V31.5C463.425 31.5 458.827 34.4472 455.752 39.9017C452.738 45.2501 451.154 53.0276 451.154 63.035H455.154ZM469.085 35.5C472.987 35.5 476.313 37.4604 478.773 41.8597C481.289 46.3596 482.837 53.3534 482.837 63.035H486.837C486.837 53.0266 485.253 45.2529 482.264 39.9078C479.22 34.4621 474.67 31.5 469.085 31.5V35.5ZM482.837 63.035C482.837 72.8085 481.288 79.8478 478.771 84.3702C476.311 88.7904 472.985 90.749 469.085 90.749V94.749C474.671 94.749 479.222 91.7851 482.266 86.3155C485.253 80.9482 486.837 73.1305 486.837 63.035H482.837Z" fill="black"/>
</svg>
