<svg width="523" height="126" viewBox="0 0 523 126" fill="none" xmlns="http://www.w3.org/2000/svg">
<path d="M85.6717 61.424L84.5371 59.777L82.0236 61.5085L84.6146 63.1218L85.6717 61.424ZM1.18372 38.691L-0.786404 38.3466L-1.12763 40.2984L0.820904 40.6578L1.18372 38.691ZM38.0577 45.493L37.6949 47.4598L39.8243 47.8526L40.0471 45.6988L38.0577 45.493ZM35.7307 48.178V46.178H33.7307V48.178H35.7307ZM35.7307 76.46H33.7307V78.46H35.7307V76.46ZM38.4157 80.935L40.3841 80.5807L40.0322 78.6258L38.075 78.9642L38.4157 80.935ZM0.109715 87.558L-0.231024 85.5872L-2.19221 85.9263L-1.86268 87.8891L0.109715 87.558ZM86.8063 63.071C95.365 57.175 99.8437 49.2389 99.8437 38.87H95.8437C95.8437 47.8331 92.0884 54.575 84.5371 59.777L86.8063 63.071ZM99.8437 38.87C99.8437 15.5641 78.677 -1.61501 50.0507 -1.61501V2.38499C77.2725 2.38499 95.8437 18.4999 95.8437 38.87H99.8437ZM50.0507 -1.61501C37.4532 -1.61501 25.912 1.64987 16.9073 8.33311C7.87619 15.0359 1.53321 25.0784 -0.786404 38.3466L3.15384 39.0354C5.30922 26.7066 11.1382 17.5961 19.2912 11.5451C27.4704 5.47461 38.1252 2.38499 50.0507 2.38499V-1.61501ZM0.820904 40.6578L37.6949 47.4598L38.4205 43.5262L1.54652 36.7242L0.820904 40.6578ZM40.0471 45.6988C40.5585 40.7548 41.94 37.496 43.7143 35.5C45.4409 33.5575 47.6918 32.636 50.4087 32.636V28.636C46.6816 28.636 43.294 29.9519 40.7246 32.8425C38.2029 35.6794 36.6309 39.8492 36.0683 45.2872L40.0471 45.6988ZM50.4087 32.636C53.4549 32.636 55.7821 33.4768 57.3108 34.7622C58.8066 36.0201 59.6857 37.8211 59.6857 40.123H63.6857C63.6857 36.6969 62.3273 33.7544 59.8852 31.7008C57.4758 29.6747 54.1645 28.636 50.4087 28.636V32.636ZM59.6857 40.123C59.6857 42.0243 58.8306 43.4175 57.0917 44.4404C55.2408 45.5291 52.3786 46.178 48.6187 46.178V50.178C52.7348 50.178 56.4061 49.4844 59.1198 47.8881C61.9454 46.226 63.6857 43.5917 63.6857 40.123H59.6857ZM48.6187 46.178H35.7307V50.178H48.6187V46.178ZM33.7307 48.178V76.46H37.7307V48.178H33.7307ZM35.7307 78.46H49.3347V74.46H35.7307V78.46ZM49.3347 78.46C53.078 78.46 55.9199 79.1484 57.7587 80.3021C59.4869 81.3865 60.4017 82.9099 60.4017 85.052H64.4017C64.4017 81.4661 62.721 78.6935 59.8847 76.9139C57.159 75.2036 53.4674 74.46 49.3347 74.46V78.46ZM60.4017 85.052C60.4017 87.3539 59.5226 89.1549 58.0268 90.4128C56.4981 91.6982 54.1709 92.539 51.1247 92.539V96.539C54.8805 96.539 58.1918 95.5003 60.6012 93.4742C63.0433 91.4206 64.4017 88.4781 64.4017 85.052H60.4017ZM51.1247 92.539C48.6311 92.539 46.3718 91.6007 44.5273 89.7003C42.6573 87.7737 41.1387 84.773 40.3841 80.5807L36.4473 81.2893C37.3037 86.047 39.0966 89.8483 41.6569 92.4862C44.2427 95.1503 47.5323 96.539 51.1247 96.539V92.539ZM38.075 78.9642L-0.231024 85.5872L0.450455 89.5288L38.7565 82.9058L38.075 78.9642ZM-1.86268 87.8891C2.45765 113.623 24.4677 127.685 50.5877 127.685V123.685C25.8717 123.685 5.99578 110.539 2.08211 87.2269L-1.86268 87.8891ZM50.5877 127.685C79.925 127.685 101.813 109.973 101.813 86.126H97.8127C97.8127 107.029 78.5304 123.685 50.5877 123.685V127.685ZM101.813 86.126C101.813 74.8392 96.7719 65.9794 86.7288 59.7262L84.6146 63.1218C93.5456 68.6826 97.8127 76.2908 97.8127 86.126H101.813ZM162.614 -1.61501C145.347 -1.61501 130.871 4.86437 120.731 16.286C110.611 27.6856 104.945 43.853 104.945 63.035H108.945C108.945 44.627 114.376 29.4694 123.723 18.9415C133.049 8.43561 146.407 2.38499 162.614 2.38499V-1.61501ZM104.945 63.035C104.945 82.217 110.611 98.3844 120.731 109.784C130.871 121.206 145.347 127.685 162.614 127.685V123.685C146.407 123.685 133.049 117.634 123.723 107.128C114.376 96.6006 108.945 81.443 108.945 63.035H104.945ZM162.614 127.685C179.794 127.685 194.225 121.203 204.341 109.782C214.437 98.3833 220.104 82.217 220.104 63.035H216.104C216.104 81.443 210.672 96.6017 201.347 107.13C192.041 117.637 178.728 123.685 162.614 123.685V127.685ZM220.104 63.035C220.104 43.853 214.437 27.6867 204.341 16.2877C194.225 4.86668 179.794 -1.61501 162.614 -1.61501V2.38499C178.728 2.38499 192.041 8.4333 201.347 18.9398C210.672 29.4683 216.104 44.627 216.104 63.035H220.104ZM162.614 90.749C158.609 90.749 155.243 88.7755 152.768 84.3642C150.232 79.845 148.683 72.8095 148.683 63.035H144.683C144.683 73.1295 146.266 80.951 149.279 86.3215C152.353 91.8 156.952 94.749 162.614 94.749V90.749ZM148.683 63.035C148.683 53.3524 150.231 46.3624 152.766 41.8658C155.24 37.4753 158.607 35.5 162.614 35.5V31.5C156.954 31.5 152.356 34.4472 149.281 39.9017C146.267 45.2501 144.683 53.0276 144.683 63.035H148.683ZM162.614 35.5C166.516 35.5 169.842 37.4604 172.302 41.8597C174.818 46.3596 176.366 53.3534 176.366 63.035H180.366C180.366 53.0266 178.781 45.2529 175.793 39.9078C172.748 34.4621 168.199 31.5 162.614 31.5V35.5ZM176.366 63.035C176.366 72.8085 174.817 79.8478 172.3 84.3702C169.84 88.7904 166.514 90.749 162.614 90.749V94.749C168.2 94.749 172.751 91.7851 175.795 86.3155C178.782 80.9482 180.366 73.1305 180.366 63.035H176.366ZM292.95 88.99V90.99H294.95V88.99H292.95ZM292.95 57.486H294.95V55.486H292.95V57.486ZM232.448 57.486V55.486H230.448V57.486H232.448ZM232.448 88.99H230.448V90.99H232.448V88.99ZM294.95 88.99V57.486H290.95V88.99H294.95ZM292.95 55.486H232.448V59.486H292.95V55.486ZM230.448 57.486V88.99H234.448V57.486H230.448ZM232.448 90.99H292.95V86.99H232.448V90.99ZM417.493 105.458V107.458H419.493V105.458H417.493ZM417.493 73.775H419.493V71.775H417.493V73.775ZM403.71 73.775H401.71V75.775H403.71V73.775ZM403.71 2.891H405.71V0.890999H403.71V2.891ZM358.602 2.891V0.890999H357.6L357 1.69304L358.602 2.891ZM308.124 70.374L306.522 69.176L306.124 69.7088V70.374H308.124ZM308.124 105.458H306.124V107.458H308.124V105.458ZM367.552 105.458H369.552V103.458H367.552V105.458ZM367.552 123H365.552V125H367.552V123ZM403.71 123V125H405.71V123H403.71ZM403.71 105.458V103.458H401.71V105.458H403.71ZM367.552 73.775V75.775H369.552V73.775H367.552ZM344.64 73.775L343.01 72.616L340.764 75.775H344.64V73.775ZM367.552 41.555H369.552V35.2914L365.922 40.396L367.552 41.555ZM419.493 105.458V73.775H415.493V105.458H419.493ZM417.493 71.775H403.71V75.775H417.493V71.775ZM405.71 73.775V2.891H401.71V73.775H405.71ZM403.71 0.890999H358.602V4.891H403.71V0.890999ZM357 1.69304L306.522 69.176L309.725 71.572L360.203 4.08896L357 1.69304ZM306.124 70.374V105.458H310.124V70.374H306.124ZM308.124 107.458H367.552V103.458H308.124V107.458ZM365.552 105.458V123H369.552V105.458H365.552ZM367.552 125H403.71V121H367.552V125ZM405.71 123V105.458H401.71V123H405.71ZM403.71 107.458H417.493V103.458H403.71V107.458ZM367.552 71.775H344.64V75.775H367.552V71.775ZM346.27 74.9341L369.182 42.714L365.922 40.396L343.01 72.616L346.27 74.9341ZM365.552 41.555V73.775H369.552V41.555H365.552ZM464.478 44.419L462.482 44.2942L462.349 46.419H464.478V44.419ZM465.015 35.827V33.827H463.136L463.019 35.7022L465.015 35.827ZM517.999 35.827V37.827H519.999V35.827H517.999ZM517.999 2.891H519.999V0.890999H517.999V2.891ZM432.795 2.891V0.890999H430.874L430.796 2.81005L432.795 2.891ZM429.931 73.596L427.932 73.515L427.848 75.596H429.931V73.596ZM461.614 78.071L463.612 77.9841L463.512 75.6782L461.243 76.1056L461.614 78.071ZM424.561 85.052L424.19 83.0866L422.421 83.42L422.567 85.2147L424.561 85.052ZM466.474 44.5438L467.011 35.9518L463.019 35.7022L462.482 44.2942L466.474 44.5438ZM465.015 37.827H517.999V33.827H465.015V37.827ZM519.999 35.827V2.891H515.999V35.827H519.999ZM517.999 0.890999H432.795V4.891H517.999V0.890999ZM430.796 2.81005L427.932 73.515L431.929 73.6769L434.793 2.97195L430.796 2.81005ZM429.931 75.596H473.428V71.596H429.931V75.596ZM473.428 75.596C476.956 75.596 479.658 76.4998 481.431 77.8967C483.158 79.2576 484.137 81.1814 484.137 83.62H488.137C488.137 79.9726 486.609 76.8844 483.906 74.7548C481.249 72.6611 477.596 71.596 473.428 71.596V75.596ZM484.137 83.62C484.137 86.2539 483.209 88.2995 481.708 89.6966C480.194 91.1064 477.936 92.002 475.039 92.002V96.002C478.764 96.002 482.055 94.8391 484.434 92.6242C486.827 90.3965 488.137 87.2511 488.137 83.62H484.137ZM475.039 92.002C472.475 92.002 469.792 91.2278 467.695 89.2226C465.61 87.2297 463.864 83.79 463.612 77.9841L459.616 78.1579C459.9 84.703 461.913 89.2288 464.93 92.1137C467.935 94.9862 471.695 96.002 475.039 96.002V92.002ZM461.243 76.1056L424.19 83.0866L424.931 87.0174L461.984 80.0364L461.243 76.1056ZM422.567 85.2147C423.687 98.9316 429.919 109.609 439.343 116.824C448.731 124.011 461.177 127.685 474.681 127.685V123.685C461.871 123.685 450.331 120.199 441.775 113.648C433.254 107.124 427.582 97.4854 426.554 84.8893L422.567 85.2147ZM474.681 127.685C489.472 127.685 501.969 123.364 510.797 115.572C519.649 107.758 524.653 96.5911 524.653 83.262H520.653C520.653 95.5299 516.079 105.574 508.15 112.573C500.197 119.593 488.709 123.685 474.681 123.685V127.685ZM524.653 83.262C524.653 71.1243 520.935 60.8214 513.042 53.5739C505.172 46.3484 493.434 42.419 477.903 42.419V46.419C492.801 46.419 503.438 50.1866 510.336 56.5203C517.211 62.8321 520.653 71.9507 520.653 83.262H524.653ZM477.903 42.419H464.478V46.419H477.903V42.419Z" fill="black"/>
</svg>
