<svg width="63" height="71" viewBox="0 0 63 71" fill="none" xmlns="http://www.w3.org/2000/svg">
<rect x="39" y="0.826172" width="24" height="24" fill="#A049F8"/>
<path fill-rule="evenodd" clip-rule="evenodd" d="M1.86839 22.4662C3.30839 9.6982 12.8124 1.82617 25.8684 1.82617C39.5964 1.82617 48.9084 10.2742 48.9084 22.0822C48.9084 27.4963 46.7749 31.7615 42.9632 34.4228C42.652 34.6401 42.3297 34.8466 41.9964 35.0423C42.3422 35.2184 42.6777 35.4039 43.0029 35.5985C47.4625 38.2672 49.9644 42.6533 49.9644 48.2903C49.9644 60.4823 40.0764 69.0264 25.9644 69.0264C12.4284 69.0264 2.54039 61.1543 1.10039 48.6743L16.0764 45.8903C16.1223 46.2271 16.1756 46.5563 16.2361 46.8777C17.314 52.6038 20.6975 55.8743 26.0604 55.8743C31.4364 55.8743 35.2764 52.8023 35.2764 48.0983C35.2764 43.8743 32.1084 41.3783 26.5404 41.3783H17.9004V28.8022H25.8684C31.3404 28.8022 34.5084 26.4022 34.5084 22.2742C34.5084 17.8582 31.1484 14.8822 25.9644 14.8822C21.0265 14.8822 17.308 17.7565 16.4683 24.2519C16.4264 24.5757 16.3917 24.9084 16.3644 25.2502L1.86839 22.4662ZM43.9026 34.9785C48.4257 37.8505 50.9644 42.4688 50.9644 48.2903C50.9644 54.6752 48.3673 60.136 43.9102 63.987C39.4635 67.8291 33.219 70.0264 25.9644 70.0264C19.0034 70.0264 12.9147 68.0009 8.36596 64.3066C3.81005 60.6065 0.855545 55.2765 0.106984 48.7889L0 47.8617L16.9254 44.7153L17.0672 45.7552C17.4798 48.781 18.4963 51.0509 19.9805 52.5562C21.4476 54.0443 23.4583 54.8743 26.0604 54.8743C28.5645 54.8743 30.6276 54.1591 32.0453 52.9812C33.4471 51.8164 34.2764 50.155 34.2764 48.0983C34.2764 46.2627 33.6026 44.8883 32.3842 43.945C31.131 42.9748 29.1921 42.3783 26.5404 42.3783H16.9004V27.8022H25.8684C28.4763 27.8022 30.3949 27.2279 31.6373 26.2886C32.8419 25.3778 33.5084 24.0527 33.5084 22.2742C33.5084 20.3366 32.7798 18.7704 31.5236 17.6763C30.255 16.5713 28.3695 15.8822 25.9644 15.8822C23.5822 15.8822 21.6018 16.6046 20.146 18.0708C18.6805 19.5468 17.6366 21.8877 17.3612 25.33L17.2722 26.4429L0.77098 23.2737L0.874693 22.3542C1.6206 15.7404 4.46594 10.3397 8.8643 6.59663C13.2582 2.85739 19.138 0.826172 25.8684 0.826172C32.9361 0.826172 38.9446 3.00258 43.2001 6.77817C47.4636 10.5609 49.9084 15.8998 49.9084 22.0822C49.9084 27.6174 47.7754 32.0994 43.9026 34.9785Z" fill="black"/>
</svg>
