<svg width="62" height="69" viewBox="0 0 62 69" fill="none" xmlns="http://www.w3.org/2000/svg">
<path fill-rule="evenodd" clip-rule="evenodd" d="M49.7559 52.762V68.5859H1.09986V56.7853L23.5941 35.6544C23.7729 35.4879 23.9513 35.3221 24.1289 35.157C26.0778 33.3459 27.9441 31.6115 29.3788 29.6915C30.9241 27.6236 31.9159 25.4048 31.9159 22.7541C31.9159 20.6956 31.1924 19.0458 30.0044 17.9085C28.8122 16.7673 27.0801 16.0741 24.9479 16.0741C22.5179 16.0741 20.6495 16.7954 19.3085 18.2388C17.9454 19.7059 17.0066 22.048 16.7287 25.5218L16.6399 26.632L0 23.478L0.0452008 22.6063C0.393964 15.8802 3.04504 10.4074 7.43509 6.62459C11.8151 2.85047 17.8461 0.826172 24.8519 0.826172C31.8607 0.826172 37.9194 2.90037 42.2405 6.70348C46.5745 10.5179 49.0839 16.0064 49.0839 22.6581C49.0839 32.0596 43.8584 37.8963 35.2345 46.041L35.2291 46.0461L27.9027 52.762H49.7559ZM25.3319 53.762H48.7559V67.5859H2.09986V57.218L24.2759 36.3861C24.4571 36.2171 24.6388 36.0484 24.8204 35.8796C28.8708 32.1167 32.9159 28.3587 32.9159 22.7541C32.9159 18.1461 29.6519 15.0741 24.9479 15.0741C19.9186 15.0741 16.6314 17.9483 15.8327 24.4434C15.7929 24.7673 15.7592 25.1001 15.7319 25.4421L1.04386 22.6581C1.71586 9.69814 11.2199 1.82617 24.8519 1.82617C38.4839 1.82617 48.0839 9.89014 48.0839 22.6581C48.0839 31.5861 43.1879 37.154 34.5479 45.314L25.3319 53.762Z" fill="black"/>
<path fill-rule="evenodd" clip-rule="evenodd" d="M50 59.5862C56.6276 59.5862 62 54.2138 62 47.5862L38 47.5862C38 54.2138 43.3724 59.5862 50 59.5862Z" fill="#A049F8"/>
</svg>
