<svg width="17" height="17" viewBox="0 0 17 17" fill="none" xmlns="http://www.w3.org/2000/svg">
<path d="M15.5627 1.96133H14.4041V0.795667C14.4041 0.367478 14.0576 0.0187988 13.632 0.0187988H12.087C11.6614 0.0187988 11.3149 0.367478 11.3149 0.795667V1.96133H5.90707V0.795667C5.90707 0.367478 5.56052 0.0187988 5.13495 0.0187988H3.58924C3.16366 0.0187988 2.81711 0.367478 2.81711 0.795667V1.96133H1.65856C1.01983 1.96133 0.5 2.48435 0.5 3.127V15.1739C0.5 15.8166 1.01983 16.3396 1.65856 16.3396H15.5634C16.2021 16.3396 16.722 15.8166 16.722 15.1739V3.127C16.722 2.48435 16.2021 1.96133 15.5627 1.96133ZM12.087 0.795667H13.632V3.127H12.087V0.795667ZM3.58924 0.795667H5.13422V3.127H3.58924V0.795667ZM15.9491 15.1739C15.9491 15.3884 15.7758 15.5627 15.5627 15.5627H1.65856C1.4454 15.5627 1.27213 15.3884 1.27213 15.1739V6.62473H15.9491V15.1739ZM15.9491 5.84786H1.27213V3.127C1.27213 2.91254 1.4454 2.7382 1.65856 2.7382H2.81711V3.9046H5.90707V2.73893H11.3142V3.9046H14.4041V2.73893H15.5627C15.7758 2.73893 15.9491 2.91327 15.9491 3.12773V5.84786Z" fill="black"/>
<path d="M11.04 8.56787H9.49506V9.34474H11.04V8.56787Z" fill="black"/>
<path d="M14.1301 8.56787H12.5851V9.34474H14.1301V8.56787Z" fill="black"/>
<path d="M7.95013 10.5105H6.40515V11.2874H7.95013V10.5105Z" fill="black"/>
<path d="M11.04 10.5105H9.49506V11.2874H11.04V10.5105Z" fill="black"/>
<path d="M14.1301 10.5105H12.5851V11.2874H14.1301V10.5105Z" fill="black"/>
<path d="M7.95013 12.4539H6.40515V13.2307H7.95013V12.4539Z" fill="black"/>
<path d="M11.04 12.4539H9.49506V13.2307H11.04V12.4539Z" fill="black"/>
<path d="M14.1301 12.4539H12.5851V13.2307H14.1301V12.4539Z" fill="black"/>
</svg>
