<svg width="284" height="34" viewBox="0 0 284 34" fill="none" xmlns="http://www.w3.org/2000/svg">
<g clip-path="url(#clip0)">
<path d="M104.448 27.2705L106.32 25.1345L104.016 23.1185C104.496 22.0625 104.76 20.8145 104.76 19.4225V18.1985H101.952V19.4225C101.952 20.0465 101.88 20.6225 101.736 21.1025L97.92 17.7665C97.104 17.0945 96.552 16.5185 96.264 16.0865C95.976 15.6545 95.832 15.1745 95.832 14.6465C95.832 14.0705 96.024 13.6145 96.408 13.2785C96.792 12.9665 97.272 12.7985 97.896 12.7985C99.216 12.7985 99.936 13.6145 100.056 15.2465L103.032 14.7185C102.84 13.3265 102.288 12.2225 101.424 11.3825C100.536 10.5665 99.36 10.1345 97.896 10.1345C96.408 10.1345 95.184 10.5665 94.224 11.3825C93.264 12.1985 92.784 13.2785 92.784 14.5745C92.784 15.7745 93.168 16.8305 93.936 17.7905C92.112 18.7745 91.2 20.1185 91.2 21.8465C91.2 23.3825 91.776 24.6305 92.952 25.5425C94.128 26.4785 95.688 26.9345 97.608 26.9345C99.48 26.9345 101.04 26.4305 102.288 25.3745L104.448 27.2705ZM97.608 24.2705C96.6 24.2705 95.808 24.0545 95.208 23.6225C94.584 23.1905 94.296 22.5905 94.296 21.8465C94.296 20.9585 94.8 20.2145 95.808 19.6385L100.128 23.4545C99.36 24.0065 98.52 24.2705 97.608 24.2705Z" fill="black"/>
<path d="M17.1235 18.5021H3.49325C3.83197 21.5672 6.10503 23.3994 8.5801 23.3994C10.4451 23.3994 12.3447 22.8661 13.5302 20.5348L16.6827 21.2003C15.2932 24.6643 12.308 26.3962 8.57806 26.3962C4.00133 26.3982 0 22.9343 0 17.7043C0 12.4402 3.96664 8.9422 8.71477 8.9422C13.2242 8.9422 16.9541 12.34 17.1235 17.3034V18.5021ZM3.59528 16.0385H13.4976C12.9548 13.3403 11.0225 12.0072 8.71681 12.0072C6.51108 12.0072 4.136 13.3724 3.59528 16.0385Z" fill="black"/>
<path d="M37.5713 25.9306H34.0107V24.0643C32.5191 25.5297 30.4501 26.3957 27.9077 26.3957C23.533 26.3957 19.5664 22.8977 19.5664 17.6677C19.5664 12.4717 23.533 8.93961 27.9077 8.93961C30.4501 8.93961 32.5191 9.8056 34.0107 11.305V1.94556H37.5713V25.9306ZM34.0107 17.6697C34.0107 14.2057 31.2969 12.0067 28.4831 12.0067C25.4306 12.0067 23.0229 14.2057 23.0229 17.6697C23.0229 21.1677 25.4306 23.3327 28.4831 23.3327C31.2969 23.3327 34.0107 21.1677 34.0107 17.6697Z" fill="black"/>
<path d="M47.1735 4.11055C47.1735 5.34339 46.2247 6.24347 44.9351 6.24347C43.6129 6.24347 42.6641 5.34339 42.6641 4.11055C42.6641 2.94386 43.6129 1.94556 44.9351 1.94556C46.2247 1.94556 47.1735 2.94586 47.1735 4.11055Z" fill="black"/>
<path d="M46.6812 9.2757H43.1553V25.9319H46.6812V9.2757Z" fill="black"/>
<path d="M51.0459 9.2757H55.1166L68.0001 25.9301H63.9314L51.0459 9.2757Z" fill="black"/>
<path d="M64.6084 13.9384L67.9997 9.2757H61.2192L64.6084 13.9384Z" fill="#7C00C6"/>
<path d="M57.8284 25.9307H51.0459L54.4371 21.2681L57.8284 25.9307Z" fill="#00CCFF"/>
<path fill-rule="evenodd" clip-rule="evenodd" d="M176.246 5.86346H176.504C177.324 5.86346 177.946 5.70059 178.352 5.38267C178.748 5.06867 178.945 4.51662 178.945 3.73279V3.28959C178.945 2.50654 178.743 1.94744 178.352 1.62248C177.946 1.2936 177.321 1.12524 176.504 1.12524H176.246C175.412 1.12524 174.785 1.29282 174.387 1.62248C174.001 1.94823 173.802 2.51046 173.802 3.28959V3.73279C173.802 4.51584 174 5.0718 174.387 5.38502C174.778 5.70372 175.408 5.86346 176.246 5.86346ZM169.394 14.055V22.0125H171.532V24.8989C171.532 24.8989 169.644 25.115 169.271 25.151C168.896 25.1808 168.529 25.2035 168.18 25.2176C167.973 25.2226 167.791 25.2261 167.63 25.2291C167.541 25.2308 167.459 25.2324 167.381 25.234H167.373H167.368H167.299C167.274 25.234 167.25 25.2322 167.227 25.2305C167.203 25.2287 167.18 25.227 167.155 25.227L167.126 25.2265C167.047 25.2252 166.969 25.2239 166.891 25.2176C166.554 25.2027 166.257 25.1635 166.002 25.1048C165.983 25.1023 165.97 25.0984 165.955 25.0941L165.943 25.0907C165.735 25.0429 165.335 24.9067 165.089 24.6671C164.686 24.274 164.493 23.6264 164.493 22.7392V14.6854C164.493 13.9345 164.303 13.3894 163.924 13.0582C163.69 12.8593 163.384 12.7199 163.01 12.6604C160.88 12.317 158.987 12.7498 158.41 12.8818L158.35 12.8953V25.097H153.443V12.1279H151.012V9.23766C151.694 9.12804 154.014 8.908 155.422 8.908C156.292 8.908 156.946 9.01841 157.384 9.23766C157.816 9.46005 158.116 9.80538 158.278 10.2697C160.338 8.69109 163.033 8.5752 164.067 8.5752C168.052 8.5752 169.394 11.341 169.394 14.055ZM176.822 8.90771C175.8 8.90771 173.612 9.12149 173.612 9.12149C173.208 9.15751 172.829 9.19432 172.481 9.23817V12.1285H174.809V25.269H179.714V11.3971C179.714 10.513 179.517 9.87636 179.114 9.48718C178.711 9.10113 177.953 8.90771 176.822 8.90771ZM148.067 11.397V22.0122H150.254V24.8985C150.254 24.8985 147.602 25.2344 146.022 25.2344C145.173 25.2344 144.542 25.1209 144.117 24.8985C143.694 24.6792 143.411 24.3253 143.269 23.839C142.493 24.3699 140.503 25.5743 138.071 25.5743C136.489 25.5743 134.775 25.1585 133.493 24.0379C133.005 23.6072 132.187 22.4154 132.187 20.0843V12.1276H130V9.20762C130.683 9.11679 131.434 9.0471 132.261 8.98993C133.078 8.93199 133.739 8.90771 134.234 8.90771C135.339 8.90771 136.092 9.10191 136.494 9.48718C136.892 9.87636 137.092 10.5122 137.092 11.397V19.4539C137.092 20.1853 137.23 20.7796 137.656 21.0788C138.664 21.7917 140.7 21.5792 141.409 21.5052L141.41 21.5051L141.412 21.5049C141.453 21.5006 141.489 21.4969 141.52 21.4938C142.098 21.4405 142.646 21.3591 143.163 21.2463V12.1276H140.983V9.20762C141.67 9.11679 142.42 9.0471 143.243 8.98993C144.066 8.93199 144.727 8.90771 145.22 8.90771C146.325 8.90771 147.076 9.10191 147.478 9.48718C147.879 9.87636 148.067 10.5122 148.067 11.397ZM201.503 26.9791L197.016 19.8854C200.069 19.0765 200.88 16.8949 200.88 14.8394C200.88 13.166 200.355 10.7158 196.621 9.52241C195.091 9.02909 193.242 8.98132 189.496 8.98132H182.613V12.1715V12.1731H184.694V25.2681H189.598V20.616H192.156L196.869 28.5248C197.211 29.1325 197.604 29.553 198.047 29.7934C198.483 30.0408 199.143 30.1622 200.025 30.1622C200.454 30.1622 201.029 30.1348 201.747 30.0815C201.989 30.066 202.228 30.0492 202.478 30.0315C202.972 29.9966 203.514 29.9584 204.231 29.9194V26.9798H201.503V26.9791ZM192.498 17.5824H189.598V12.0822H192.305C195.597 12.0822 195.985 13.5473 195.985 14.7798C195.985 16.0719 195.027 17.5824 192.498 17.5824ZM209.189 9.86142H209.893L209.859 14.6162H209.19V15.1377H213.37L213.423 13.7133H212.772L212.719 14.6162H210.606L210.641 9.86142H211.275V9.3399H209.189V9.86142ZM213.8 14.6158H214.363L216.651 9.33942H217.46L219.537 14.6158H220.127V15.1373H218.05V14.6158H218.701L218.041 12.8515H215.815L215.084 14.6158H215.823V15.1373H213.799V14.6158H213.8ZM217.848 12.33L217.109 10.3997C217.074 10.3057 217.048 10.2298 217.03 10.1718C217.013 10.1139 216.998 10.0575 216.986 10.0019H216.969C216.957 10.0575 216.942 10.1139 216.924 10.1718C216.907 10.2298 216.88 10.3057 216.845 10.3997L216.036 12.33H217.848ZM224.412 9.86236H225.073V9.34241H222.952V9.86392H223.665C223.659 10.3111 223.655 10.7887 223.652 11.2969C223.649 11.8051 223.648 12.2969 223.648 12.7714C223.648 13.0142 223.652 13.2248 223.661 13.401C223.67 13.578 223.686 13.7338 223.709 13.8693C223.733 14.0047 223.767 14.123 223.815 14.2256C223.862 14.3274 223.921 14.4252 223.991 14.5192C224.173 14.751 224.421 14.9287 224.735 15.0533C225.049 15.1778 225.475 15.2396 226.015 15.2396C226.455 15.2396 226.834 15.1856 227.15 15.0783C227.466 14.9703 227.713 14.8144 227.889 14.61C228.094 14.3783 228.226 14.1347 228.285 13.881C228.344 13.6273 228.373 13.3344 228.373 13.0032L228.391 9.86392H229.068V9.34241H226.938V9.86392H227.703L227.686 12.589C227.68 12.9868 227.665 13.3125 227.642 13.5662C227.618 13.8199 227.541 14.0274 227.412 14.1872C227.272 14.3642 227.084 14.4895 226.852 14.5638C226.62 14.639 226.348 14.6758 226.036 14.6758C225.718 14.6758 225.448 14.6429 225.224 14.5764C225.001 14.5098 224.827 14.4049 224.704 14.2616C224.574 14.112 224.491 13.9272 224.453 13.7064C224.415 13.4856 224.396 13.1951 224.396 12.8364V11.9171C224.396 11.6407 224.396 11.3838 224.4 11.1466C224.402 10.9085 224.405 10.6861 224.408 10.4794C224.411 10.2719 224.412 10.0667 224.412 9.86236ZM230.433 9.86343H229.614V9.34192H231.084L234.437 13.5829C234.49 13.6487 234.539 13.7192 234.587 13.7944C234.633 13.8688 234.681 13.9424 234.727 14.0136H234.745L234.781 9.86343H234.015V9.34192H236.092V9.86343H235.432L235.397 15.1396H234.772L231.287 10.7827C231.205 10.6723 231.126 10.551 231.049 10.4186H231.032L230.997 14.6181H231.771V15.1396H229.73V14.6181H230.399L230.433 9.86343ZM236.76 9.86343H237.464L237.429 14.6181H236.76V15.1396H238.88V14.6181H238.177L238.211 9.86343H238.88V9.34192H236.76V9.86343ZM239.893 9.86343H239.312V9.34192H241.442V9.86343H240.756L242.428 14.1953C242.451 14.2509 242.469 14.3033 242.481 14.3527C242.492 14.4028 242.507 14.4553 242.525 14.5101H242.542C242.56 14.4545 242.575 14.402 242.586 14.3527C242.598 14.3033 242.615 14.2509 242.639 14.1953L244.294 9.86343H243.555V9.34192H245.631V9.86343H245.05L242.877 15.1396H242.067L239.893 9.86343ZM246.027 9.86343H246.731L246.696 14.6181H246.027V15.1396H250.243L250.296 13.7153H249.645L249.591 14.6181H247.462L247.479 12.4232H249.415V11.9017H247.479L247.497 9.86422H249.538V10.6841H250.19V9.34192H246.027V9.86343ZM251.106 9.33942H253.163C253.438 9.33942 253.711 9.35508 253.981 9.38483C254.251 9.41537 254.493 9.48115 254.707 9.58373C254.921 9.68631 255.094 9.83666 255.226 10.0348C255.357 10.2337 255.424 10.4983 255.424 10.8304C255.424 11.0731 255.383 11.2877 255.301 11.4725C255.218 11.6573 255.11 11.8147 254.975 11.9446C254.841 12.0746 254.687 12.178 254.514 12.2555C254.341 12.333 254.163 12.38 253.981 12.3965V12.4129C254.093 12.4184 254.216 12.4693 254.351 12.5664C254.485 12.6627 254.626 12.8303 254.773 13.0676L255.292 13.9125C255.386 14.0613 255.465 14.1834 255.53 14.2774C255.595 14.3713 255.653 14.4434 255.707 14.4927C255.76 14.5428 255.815 14.5757 255.874 14.5922C255.932 14.6086 256.005 14.6172 256.094 14.6172H256.366V15.1387H256.005C255.847 15.1387 255.713 15.1333 255.605 15.1223C255.496 15.1113 255.4 15.0863 255.315 15.0479C255.23 15.0095 255.152 14.9532 255.082 14.878C255.012 14.8036 254.935 14.7057 254.853 14.5843L254.263 13.6321C254.128 13.4113 254.014 13.232 253.92 13.0934C253.826 12.9556 253.734 12.8475 253.646 12.7708C253.557 12.6933 253.466 12.6408 253.371 12.6134C253.277 12.586 253.162 12.5719 253.026 12.5719H252.539L252.522 14.618H253.235V15.1395H251.105V14.618H251.774L251.81 9.86328H251.106V9.33942ZM252.539 12.048H253.275C253.47 12.048 253.653 12.0269 253.826 11.9862C253.997 11.9446 254.146 11.8773 254.273 11.7833C254.401 11.6894 254.5 11.5711 254.571 11.427C254.642 11.2837 254.678 11.1068 254.678 10.8969C254.678 10.6871 254.639 10.5148 254.562 10.3793C254.485 10.2438 254.381 10.1381 254.252 10.0606C254.122 9.98309 253.966 9.93062 253.786 9.90322C253.605 9.87581 253.415 9.86172 253.213 9.86172H252.557L252.539 12.048ZM257.705 13.6714H256.983V14.9477C257.071 14.9642 257.169 14.9892 257.278 15.0221C257.386 15.0558 257.512 15.0871 257.656 15.1176C257.799 15.1482 257.968 15.1756 258.162 15.2006C258.355 15.2257 258.579 15.2382 258.831 15.2382C259.131 15.2382 259.421 15.2077 259.702 15.1474C259.984 15.0863 260.235 14.9869 260.455 14.849C260.675 14.7105 260.851 14.5311 260.983 14.3103C261.116 14.0895 261.181 13.8186 261.181 13.4983C261.181 13.1452 261.098 12.8664 260.931 12.662C260.764 12.4576 260.556 12.2963 260.306 12.1773C260.056 12.0583 259.785 11.9675 259.492 11.904C259.198 11.8406 258.927 11.7678 258.677 11.6848C258.428 11.6018 258.22 11.4969 258.052 11.37C257.885 11.2431 257.802 11.0552 257.802 10.807C257.802 10.6191 257.844 10.4609 257.929 10.3309C258.015 10.2009 258.125 10.0976 258.259 10.02C258.394 9.94252 258.546 9.88692 258.713 9.85404C258.879 9.82115 259.046 9.80471 259.21 9.80471C259.28 9.80471 259.364 9.80862 259.461 9.81723C259.557 9.82506 259.655 9.83681 259.751 9.85012C259.848 9.86422 259.939 9.88066 260.024 9.90024C260.109 9.91981 260.181 9.94017 260.24 9.9621V10.6825H260.926V9.51498C260.825 9.47661 260.705 9.43903 260.565 9.40301C260.423 9.36699 260.275 9.33801 260.12 9.31609C259.964 9.29416 259.812 9.27615 259.662 9.26206C259.512 9.24875 259.382 9.2417 259.27 9.2417C258.813 9.2417 258.436 9.29416 258.14 9.39909C257.844 9.50402 257.611 9.63792 257.44 9.80079C257.27 9.96366 257.153 10.1414 257.088 10.3348C257.024 10.5282 256.992 10.713 256.992 10.89C256.992 11.1492 257.041 11.3661 257.137 11.5399C257.234 11.7138 257.362 11.8586 257.52 11.9745C257.678 12.0904 257.858 12.1828 258.061 12.2517C258.264 12.3206 258.47 12.384 258.681 12.442C258.893 12.4999 259.1 12.5555 259.302 12.608C259.504 12.6605 259.685 12.7278 259.843 12.8108C260.001 12.8938 260.129 12.9972 260.225 13.1217C260.323 13.2454 260.371 13.4043 260.371 13.5978C260.371 13.9462 260.238 14.2124 259.971 14.3972C259.704 14.582 259.35 14.6744 258.91 14.6744C258.81 14.6744 258.706 14.6697 258.598 14.6619C258.489 14.6533 258.379 14.6408 258.268 14.6243C258.156 14.6079 258.052 14.5852 257.956 14.5578C257.858 14.5304 257.775 14.4967 257.705 14.4583V13.6714ZM262.729 9.86343H262.025V9.34192H264.146V9.86343H263.477L263.442 14.6181H264.146V15.1396H262.025V14.6181H262.694L262.729 9.86343ZM264.938 9.86344H265.642L265.608 14.6175H264.939V15.139H267.412C267.928 15.139 268.396 15.0802 268.815 14.9612C269.235 14.843 269.591 14.6605 269.884 14.4146C270.177 14.1688 270.404 13.8587 270.562 13.4828C270.721 13.1077 270.8 12.666 270.8 12.1578C270.8 11.6778 270.725 11.2604 270.575 10.9073C270.425 10.5541 270.216 10.2612 269.946 10.0295C269.676 9.79767 269.35 9.62539 268.969 9.51185C268.587 9.3983 268.168 9.34192 267.711 9.34192H264.938V9.86344ZM267.308 14.6175H266.355L266.389 9.86344H267.351C267.769 9.86344 268.129 9.8979 268.432 9.96681C268.735 10.0357 269.016 10.1751 269.275 10.385C269.498 10.5674 269.673 10.811 269.8 11.1179C269.926 11.4249 269.989 11.771 269.989 12.1578C269.989 12.5603 269.926 12.9213 269.8 13.2385C269.673 13.5556 269.507 13.8109 269.301 14.0043C268.866 14.4131 268.201 14.6175 267.308 14.6175ZM271.336 14.6158H271.899L274.187 9.33942H274.996L277.073 14.6158H277.663V15.1373H275.586V14.6158H276.238L275.577 12.8515H273.351L272.62 14.6158H273.359V15.1373H271.335V14.6158H271.336ZM275.384 12.33L274.645 10.3997C274.61 10.3057 274.584 10.2298 274.566 10.1718C274.549 10.1139 274.534 10.0575 274.522 10.0019H274.505C274.493 10.0575 274.478 10.1139 274.461 10.1718C274.443 10.2298 274.416 10.3057 274.382 10.3997L273.572 12.33H275.384ZM278.14 9.86344H278.843L278.809 14.6175H278.14V15.139H280.613C281.129 15.139 281.597 15.0802 282.017 14.9612C282.436 14.843 282.792 14.6605 283.086 14.4146C283.378 14.1688 283.605 13.8587 283.763 13.4828C283.922 13.1077 284.001 12.666 284.001 12.1578C284.001 11.6778 283.926 11.2604 283.776 10.9073C283.626 10.5541 283.417 10.2612 283.147 10.0295C282.877 9.79767 282.551 9.62539 282.17 9.51185C281.789 9.3983 281.369 9.34192 280.912 9.34192H278.14V9.86344ZM280.509 14.6175H279.556L279.591 9.86344H280.552C280.97 9.86344 281.33 9.8979 281.633 9.96681C281.936 10.0357 282.217 10.1751 282.476 10.385C282.7 10.5674 282.874 10.811 283.001 11.1179C283.127 11.4249 283.19 11.771 283.19 12.1578C283.19 12.5603 283.127 12.9213 283.001 13.2385C282.874 13.5556 282.708 13.8109 282.502 14.0043C282.067 14.4131 281.403 14.6175 280.509 14.6175ZM209.893 19.8H209.189V19.2785H213.352V20.6207H212.7V19.8008H210.659L210.641 21.8384H212.577V22.3599H210.641L210.624 24.5548H212.753L212.807 23.652H213.458L213.405 25.0764H209.189V24.5548H209.858L209.893 19.8ZM214.125 19.8H214.944L214.91 24.5548H214.241V25.0764H216.282V24.5548H215.508L215.543 20.3552H215.56C215.637 20.4876 215.716 20.6089 215.798 20.7194L219.283 25.0764H219.908L219.943 19.8H220.603V19.2785H218.526V19.8H219.291L219.256 23.9503H219.238C219.192 23.879 219.144 23.8054 219.098 23.731C219.05 23.6559 219.001 23.5854 218.948 23.5196L215.595 19.2785H214.125V19.8ZM224.422 19.8H223.718V19.2785H225.838V19.8H225.17L225.135 24.5548H225.838V25.0764H223.718V24.5548H224.387L224.422 19.8ZM226.517 19.8H227.335L227.301 24.5548H226.632V25.0764H228.674V24.5548H227.899L227.934 20.3552H227.952C228.028 20.4876 228.107 20.6089 228.19 20.7194L231.675 25.0764H232.299L232.334 19.8H232.994V19.2785H230.918V19.8H231.683L231.647 23.9503H231.63C231.583 23.879 231.536 23.8054 231.489 23.731C231.442 23.6559 231.393 23.5854 231.339 23.5196L227.987 19.2785H226.517V19.8ZM235.82 19.8003H234.139L234.086 20.6946H233.435L233.488 19.278H238.909L238.962 20.6946H238.311L238.257 19.8003H236.568L236.534 24.5551H237.298V25.0767H235.116V24.5551H235.785L235.82 19.8003ZM239.516 19.8H240.219L240.185 24.5548H239.516V25.0764H243.731L243.784 23.652H243.133L243.08 24.5548H240.95L240.967 22.3599H242.903V21.8384H240.967L240.985 19.8008H243.026V20.6207H243.678V19.2785H239.516V19.8ZM244.595 19.2785H246.652C246.927 19.2785 247.2 19.2942 247.47 19.3239C247.74 19.3545 247.982 19.4202 248.196 19.5228C248.41 19.6254 248.583 19.7758 248.715 19.9739C248.847 20.1728 248.913 20.4374 248.913 20.7695C248.913 21.0122 248.872 21.2268 248.79 21.4116C248.708 21.5964 248.599 21.7538 248.465 21.8838C248.33 22.0138 248.176 22.1171 248.003 22.1946C247.83 22.2722 247.652 22.3191 247.47 22.3356V22.352C247.582 22.3575 247.705 22.4084 247.84 22.5055C247.975 22.6018 248.115 22.7694 248.263 23.0067L248.782 23.8516C248.876 24.0004 248.955 24.1226 249.02 24.2165C249.084 24.3105 249.143 24.3825 249.196 24.4319C249.249 24.482 249.304 24.5149 249.363 24.5313C249.421 24.5478 249.495 24.5564 249.583 24.5564H249.856V25.0779H249.495C249.337 25.0779 249.203 25.0724 249.094 25.0614C248.985 25.0505 248.889 25.0254 248.804 24.9871C248.719 24.9487 248.641 24.8923 248.571 24.8171C248.501 24.7427 248.425 24.6449 248.342 24.5235L247.753 23.5713C247.618 23.3504 247.503 23.1711 247.409 23.0325C247.315 22.8947 247.223 22.7866 247.135 22.7099C247.046 22.6324 246.956 22.5799 246.861 22.5525C246.767 22.5251 246.651 22.511 246.515 22.511H246.029L246.011 24.5572H246.724V25.0787H244.594V24.5572H245.263L245.299 19.8024H244.595V19.2785ZM246.027 21.9871H246.763C246.959 21.9871 247.142 21.966 247.314 21.9253C247.485 21.8838 247.634 21.8164 247.762 21.7225C247.889 21.6285 247.988 21.5102 248.06 21.3662C248.13 21.2229 248.166 21.0459 248.166 20.836C248.166 20.6262 248.128 20.4539 248.05 20.3184C247.973 20.1829 247.87 20.0772 247.74 19.9997C247.61 19.9222 247.455 19.8697 247.274 19.8423C247.094 19.8149 246.903 19.8008 246.702 19.8008H246.045L246.027 21.9871ZM250.153 19.8H250.972L250.938 24.5548H250.269V25.0764H252.311V24.5548H251.536L251.571 20.3552H251.588C251.665 20.4876 251.744 20.6089 251.826 20.7194L255.311 25.0764H255.936L255.971 19.8H256.631V19.2785H254.554V19.8H255.32L255.284 23.9503H255.266C255.22 23.879 255.172 23.8054 255.126 23.731C255.078 23.6559 255.029 23.5854 254.976 23.5196L251.623 19.2785H250.153V19.8ZM257.978 19.8H257.274V19.2785H261.437V20.6207H260.785V19.8008H258.744L258.726 21.8384H260.662V22.3599H258.726L258.709 24.5548H260.838L260.892 23.652H261.543L261.49 25.0764H257.274V24.5548H257.943L257.978 19.8ZM262.826 19.8003H264.506L264.471 24.5551H263.802V25.0767H265.985V24.5551H265.22L265.254 19.8003H266.944L266.997 20.6946H267.649L267.595 19.278H262.174L262.121 20.6946H262.773L262.826 19.8003Z" fill="black"/>
</g>
<defs>
<clipPath id="clip0">
<rect width="284" height="34" fill="white"/>
</clipPath>
</defs>
</svg>
