<svg width="519" height="216" viewBox="0 0 519 216" fill="none" xmlns="http://www.w3.org/2000/svg">
<path d="M26.8448 163.492C12.2929 163.492 0.5 151.743 0.5 137.254C0.5 122.765 12.2929 111.017 26.8448 111.017C41.3967 111.017 53.1896 122.765 53.1896 137.254C53.1896 151.743 41.3967 163.492 26.8448 163.492Z" fill="#9A2AF6" stroke="#8828D7"/>
<path d="M133.698 213.903L190.546 213.903L162.122 162.524L133.698 213.903Z" fill="#032258"/>
<rect x="130.54" width="56.8479" height="56.6214" fill="#00CCFF"/>
<rect x="292.661" y="159.379" width="56.8479" height="56.6214" fill="#A049F8"/>
<path d="M105.367 18.7871V87.7252H86.0775L97.0579 18.7871H40.5512L20.6066 144.003H77.1133H105.367V212.941H161.874V144.003V87.7252V18.7871H105.367Z" stroke="#020203" stroke-width="2" stroke-miterlimit="10" stroke-linecap="round" stroke-linejoin="round"/>
<path d="M406.515 160.06C436.166 160.06 460.204 184.331 460.204 214.27L406.515 214.27L406.515 160.06Z" fill="#00CCFF"/>
<path d="M492.155 100.66C477.329 100.66 465.31 88.6894 465.31 73.9223C465.31 59.1552 477.329 47.1845 492.155 47.1845C506.981 47.1845 519 59.1552 519 73.9223C519 88.6894 506.981 100.66 492.155 100.66Z" fill="#032258"/>
<path d="M232.655 140.505C217.538 140.505 205.284 128.299 205.284 113.243C205.284 98.1861 217.538 85.9806 232.655 85.9806C247.772 85.9806 260.026 98.1861 260.026 113.243C260.026 128.299 247.772 140.505 232.655 140.505Z" fill="#6A00C2"/>
<path d="M436.623 18.7871V87.7252H417.333L428.314 18.7871H371.807L351.862 144.003H408.37H436.623V212.941H493.13V144.003V87.7252V18.7871H436.623Z" stroke="#020203" stroke-width="2" stroke-miterlimit="10" stroke-linecap="round" stroke-linejoin="round"/>
<path d="M257.053 158.072C264.855 158.072 271.18 151.773 271.18 144.003V87.7253C271.18 79.955 264.855 73.6558 257.053 73.6558C249.251 73.6558 242.927 79.955 242.927 87.7253V144.003C242.927 151.773 249.251 158.072 257.053 158.072Z" stroke="#020203" stroke-width="2" stroke-miterlimit="10" stroke-linecap="round" stroke-linejoin="round"/>
<path d="M271.18 19.2337C266.615 18.311 261.892 17.8252 257.053 17.8252C252.215 17.8252 247.492 18.311 242.927 19.2337C210.686 25.752 186.42 54.1389 186.42 88.1718V144.45C186.42 178.482 210.686 206.87 242.927 213.388C247.492 214.31 252.215 214.796 257.053 214.796C261.892 214.796 266.615 214.31 271.18 213.388C303.42 206.869 327.687 178.482 327.687 144.45V88.1718C327.687 54.1389 303.42 25.752 271.18 19.2337Z" stroke="#020203" stroke-width="2" stroke-miterlimit="10" stroke-linecap="round" stroke-linejoin="round"/>
</svg>
