<svg width="149" height="142" viewBox="0 0 149 142" fill="none" xmlns="http://www.w3.org/2000/svg">
<g clip-path="url(#clip0)">
<path d="M37.151 78.809L31.557 77.318C20.648 74.403 8.888 77.594 1 85.689" stroke="#020203" stroke-width="2" stroke-linecap="round" stroke-linejoin="round"/>
<path d="M28.739 116.731L23.365 117.949L1 140.276" stroke="#020203" stroke-width="2" stroke-linecap="round" stroke-linejoin="round"/>
<path d="M87.194 82.457C82.105 91.888 70.152 95.386 60.721 90.297C59.523 89.649 58.297 88.876 57.292 87.921" stroke="#020203" stroke-width="2" stroke-linecap="round" stroke-linejoin="round"/>
<path d="M102.111 79.864L115.462 74.998C126.62 70.892 139.084 76.607 143.19 87.765C143.247 88.015 143.457 88.362 143.513 88.612L147.029 99.623" stroke="#020203" stroke-width="2" stroke-linecap="round" stroke-linejoin="round"/>
<path d="M108.586 99.157L105.977 103.296L114.359 140.276" stroke="#020203" stroke-width="2" stroke-linecap="round" stroke-linejoin="round"/>
<path d="M100.718 58.8459L95.586 70.7209C94.325 73.6549 90.995 74.8909 88.087 73.7449C87.015 73.2659 85.981 72.4169 85.378 71.3499L83.351 67.7169L92.233 48.4919L100.718 58.8459Z" fill="#020203"/>
<path d="M79.4489 81.0219C96.5201 74.1286 104.771 54.7016 97.8776 37.6304C90.9843 20.5593 71.5573 12.3085 54.4862 19.2017C37.415 26.095 29.1642 45.522 36.0575 62.5932C42.9507 79.6643 62.3777 87.9151 79.4489 81.0219Z" fill="#F5B4C5"/>
<path d="M100.279 58.881C104.299 58.881 107.557 55.6225 107.557 51.603C107.557 47.5834 104.299 44.325 100.279 44.325C96.2595 44.325 93.001 47.5834 93.001 51.603C93.001 55.6225 96.2595 58.881 100.279 58.881Z" fill="#F5B4C5"/>
<path d="M36.214 44.3961C40.2335 44.3961 43.492 41.1376 43.492 37.1181C43.492 33.0986 40.2335 29.8401 36.214 29.8401C32.1945 29.8401 28.936 33.0986 28.936 37.1181C28.936 41.1376 32.1945 44.3961 36.214 44.3961Z" fill="#F5B4C5"/>
<path d="M39.037 30.46C31.221 6.59497 68.414 -16.76 93.79 16.605C93.79 16.605 107.958 15.921 109.797 29.346C110.232 32.858 109.551 40.475 100.563 46.484L100.284 52.686C100.284 52.686 97.936 45.515 96.83 42.757C97.68 39.074 96.085 35.223 92.855 33.187C87.216 30.614 81.128 32.957 75.726 35.144C70.756 37.113 65.505 38.905 60.094 38.928C53.97 38.992 47.187 36.678 43.194 31.806L36.707 39.295L39.037 30.46Z" fill="#020203"/>
<path d="M102.172 44.554L109.352 35.344L105.657 46.653C105.21 46.273 104.737 45.778 104.315 45.513C103.587 44.956 102.822 44.768 102.172 44.554Z" fill="#020203"/>
<path d="M52.023 69.753C54.104 69.753 55.791 68.0661 55.791 65.985C55.791 63.904 54.104 62.217 52.023 62.217C49.942 62.217 48.255 63.904 48.255 65.985C48.255 68.0661 49.942 69.753 52.023 69.753Z" fill="#020203"/>
<path d="M82.4691 77.714C82.7031 83.497 78.2051 88.376 72.4211 88.61C66.6381 88.844 61.7591 84.346 61.5251 78.562C61.2911 72.779 71.1551 57.342 71.1551 57.342C71.1551 57.342 82.2351 71.931 82.4691 77.714Z" fill="#3FC0F0"/>
</g>
<defs>
<clipPath id="clip0">
<rect width="148.028" height="141.276" fill="white"/>
</clipPath>
</defs>
</svg>
