<svg width="129" height="116" viewBox="0 0 129 116" fill="none" xmlns="http://www.w3.org/2000/svg">
<path d="M40.6163 21.6884H1V95.8125H128V21.6884H115.442" fill="white"/>
<path d="M40.6163 21.6884H1V95.8125H128V21.6884H115.442" stroke="black" stroke-width="2" stroke-linecap="round" stroke-linejoin="round"/>
<path d="M95.9346 66.4845L107.271 7.3399L48.1366 18.6865L59.4832 30.033L25.7183 63.8081L50.813 88.9028L84.5779 55.1379L95.9346 66.4845Z" fill="#F5C370"/>
<path d="M26.644 89.1572L30.3482 114.262L46.3759 90.0019" fill="white"/>
<path d="M26.644 89.1572L30.3482 114.262L46.3759 90.0019" stroke="black" stroke-width="2" stroke-linecap="round" stroke-linejoin="round"/>
<path d="M71.4199 9.48703L76.3554 1L84.0894 7.03454" stroke="black" stroke-width="2" stroke-linecap="round" stroke-linejoin="round"/>
<path d="M38.8764 56.2879C42.2429 56.2879 44.9719 53.5588 44.9719 50.1923C44.9719 46.8258 42.2429 44.0967 38.8764 44.0967C35.5098 44.0967 32.7808 46.8258 32.7808 50.1923C32.7808 53.5588 35.5098 56.2879 38.8764 56.2879Z" stroke="black" stroke-width="2" stroke-linecap="round" stroke-linejoin="round"/>
<path d="M44.9819 50.1922C45.9996 50.1922 47.0172 50.1922 48.0348 50.0904" stroke="black" stroke-width="2" stroke-linecap="round" stroke-linejoin="round"/>
<path d="M53.5605 49.2865C71.1554 45.3788 80.4056 29.2087 77.4341 7.83848" stroke="black" stroke-width="2" stroke-linecap="round" stroke-linejoin="round" stroke-dasharray="5.49 5.49"/>
<path d="M76.9864 5.06035C76.8033 4.04272 76.5895 3.08615 76.3555 2.0787" stroke="black" stroke-width="2" stroke-linecap="round" stroke-linejoin="round"/>
</svg>
