<svg width="17" height="17" viewBox="0 0 17 17" fill="none" xmlns="http://www.w3.org/2000/svg">
<path d="M14.6018 10.947V13.0286C14.5999 14.6664 13.2683 15.9981 11.6305 16H3.97136C2.33357 15.9981 1.00193 14.6664 1 13.0286V5.36954C1.00193 3.73174 2.33357 2.4001 3.97136 2.39817H6.05295C6.34247 2.39817 6.57727 2.63297 6.57727 2.92249C6.57727 3.21201 6.34247 3.44681 6.05295 3.44681H3.97136C2.91743 3.44873 2.05056 4.3156 2.04863 5.36954V13.0286C2.05056 14.0826 2.91743 14.9494 3.97136 14.9511H11.6305C12.6844 14.9492 13.5513 14.0823 13.5532 13.0286V10.947C13.5532 10.6575 13.788 10.4227 14.0775 10.4227C14.367 10.4227 14.6018 10.6575 14.6018 10.947ZM16 1.52432L15.8464 1.15356L15.4757 1H11.259C10.9692 1 10.7347 1.2348 10.7347 1.52432C10.7347 1.81383 10.9695 2.04863 11.259 2.04863H14.2096L9.02166 7.23682C8.817 7.44149 8.817 7.77367 9.02166 7.97834C9.22633 8.183 9.55851 8.183 9.76318 7.97834L14.9511 2.79039V5.74126C14.9511 6.03078 15.1859 6.26557 15.4754 6.26557C15.765 6.26557 15.9998 6.03078 15.9998 5.74126L16 1.52432Z" fill="#6400C2" stroke="#6400C2"/>
</svg>
