<svg width="154" height="30" viewBox="0 0 154 30" fill="none" xmlns="http://www.w3.org/2000/svg">
<path fill-rule="evenodd" clip-rule="evenodd" d="M46.246 5.02644H46.5039C47.3242 5.02644 47.9457 4.85904 48.3525 4.53228C48.7485 4.20955 48.9449 3.64216 48.9449 2.83655V2.38103C48.9449 1.57622 48.7435 1.00158 48.3525 0.667588C47.9457 0.329568 47.3209 0.156534 46.5039 0.156534H46.246C45.4116 0.156534 44.7851 0.328764 44.3866 0.667588C44.0006 1.00239 43.8018 1.58024 43.8018 2.38103V2.83655C43.8018 3.64136 43.9998 4.21277 44.3866 4.5347C44.7776 4.86226 45.4082 5.02644 46.246 5.02644ZM39.3944 13.4455V21.6239H41.5317V24.5905C41.5317 24.5905 39.644 24.8126 39.2713 24.8496C38.8961 24.8802 38.5292 24.9035 38.1798 24.918C37.9731 24.9232 37.7923 24.9267 37.6309 24.9299L37.6297 24.9299L37.6292 24.9299L37.628 24.9299L37.6253 24.93C37.5387 24.9317 37.4577 24.9333 37.3811 24.9349H37.3728H37.3678H37.2988C37.2738 24.9349 37.2503 24.9331 37.2268 24.9313C37.2033 24.9295 37.1798 24.9277 37.1548 24.9277L37.1261 24.9272H37.1261H37.126H37.126H37.126H37.1259H37.1259H37.1259H37.1258H37.1258H37.1258H37.1257H37.1257H37.1257H37.1256H37.1256H37.1256H37.1255H37.1255H37.1255H37.1254H37.1254H37.1254H37.1253H37.1253H37.1252H37.1252C37.0464 24.9258 36.9688 24.9245 36.8911 24.918C36.5542 24.9027 36.2572 24.8625 36.0018 24.8021C35.9833 24.7996 35.9696 24.7955 35.9548 24.7912L35.9427 24.7877C35.7347 24.7386 35.3345 24.5985 35.0891 24.3523C34.6856 23.9482 34.4934 23.2827 34.4934 22.3708V14.0933C34.4934 13.3215 34.3029 12.7614 33.9244 12.4209C33.6898 12.2165 33.3836 12.0733 33.0101 12.0121C30.8796 11.6592 28.9871 12.1039 28.4098 12.2396L28.3503 12.2535V24.7941H23.4427V11.4648H21.0117V8.49428C21.6939 8.38161 24.0142 8.15546 25.4219 8.15546C26.2921 8.15546 26.946 8.26894 27.3836 8.49428C27.8162 8.72285 28.1157 9.07777 28.278 9.55502C30.3379 7.93253 33.0334 7.81341 34.0675 7.81341C38.0517 7.81341 39.3944 10.656 39.3944 13.4455ZM46.8217 8.15513C45.8001 8.15513 43.6121 8.37484 43.6121 8.37484C43.2077 8.41186 42.8292 8.44969 42.4814 8.49476V11.4653H44.8092V24.9708H49.7136V10.7136C49.7136 9.80499 49.5172 9.15068 49.1137 8.75069C48.7111 8.35392 47.9532 8.15513 46.8217 8.15513ZM18.0674 10.7136V21.6236H20.2538V24.5901C20.2538 24.5901 17.6015 24.9354 16.0225 24.9354C15.1731 24.9354 14.5416 24.8187 14.1165 24.5901C13.6939 24.3648 13.411 24.001 13.2687 23.5012C12.4925 24.0469 10.5025 25.2847 8.07073 25.2847C6.4892 25.2847 4.77538 24.8573 3.49335 23.7057C3.005 23.263 2.18719 22.0381 2.18719 19.6422V11.4645H0V8.46337C0.683029 8.37001 1.43428 8.29838 2.26124 8.23963C3.07821 8.18008 3.73878 8.15513 4.23378 8.15513C5.33861 8.15513 6.09152 8.35472 6.49419 8.75069C6.89186 9.15068 7.09153 9.80418 7.09153 10.7136V18.9943C7.09153 19.746 7.23046 20.3568 7.65642 20.6643C8.66369 21.397 10.7002 21.1786 11.4091 21.1026L11.4099 21.1025L11.4118 21.1023C11.4524 21.0979 11.4886 21.094 11.52 21.0908C12.0982 21.0361 12.6464 20.9524 13.1631 20.8365V11.4645H10.9834V8.46337C11.6697 8.37001 12.4202 8.29838 13.243 8.23963C14.0657 8.18008 14.7271 8.15513 15.2205 8.15513C16.3253 8.15513 17.0757 8.35472 17.4776 8.75069C17.8786 9.15068 18.0674 9.80418 18.0674 10.7136ZM71.5035 26.7284L67.016 19.4376C70.0692 18.6063 70.8795 16.3641 70.8795 14.2514C70.8795 12.5316 70.3546 10.0133 66.6208 8.78678C65.0908 8.27975 63.2422 8.23066 59.496 8.23066H52.6133V11.5095V11.5111H54.694V24.9699H59.5983V20.1885H62.1557L66.8687 28.3171C67.2115 28.9416 67.6041 29.3738 68.0467 29.6209C68.4827 29.8752 69.1433 30 70.0251 30C70.4544 30 71.0293 29.9718 71.7473 29.9171C71.9894 29.9011 72.2276 29.8838 72.4783 29.8656C72.9718 29.8298 73.514 29.7905 74.2306 29.7505V26.7292H71.5035V26.7284ZM62.4977 17.0707H59.5983V11.4177H62.3055C65.5975 11.4177 65.9852 12.9235 65.9852 14.1903C65.9852 15.5182 65.0268 17.0707 62.4977 17.0707ZM79.1895 9.13623H79.8933L79.8592 14.023H79.1903V14.559H83.37L83.4232 13.0951H82.7718L82.7186 14.023H80.6063L80.6412 9.13623H81.2751V8.60023H79.1895V9.13623ZM83.7997 14.022H84.3629L86.6507 8.59915H87.4602L89.5368 14.022H90.1266V14.558H88.0501V14.022H88.7015L88.0409 12.2087H85.8146L85.0842 14.022H85.823V14.558H83.7988V14.022H83.7997ZM87.8479 11.6727L87.1092 9.68886C87.0742 9.59229 87.0476 9.51422 87.0301 9.45466C87.0126 9.39511 86.9977 9.33716 86.986 9.28002H86.9686C86.9569 9.33716 86.9419 9.39511 86.9245 9.45466C86.907 9.51422 86.8804 9.59229 86.8454 9.68886L86.0359 11.6727H87.8479ZM94.4122 9.13665H95.0728V8.60226H92.9521V9.13826H93.6651C93.6593 9.59781 93.6551 10.0887 93.6518 10.6111C93.6493 11.1334 93.6477 11.6388 93.6477 12.1265C93.6477 12.376 93.6518 12.5925 93.661 12.7736C93.6701 12.9555 93.6859 13.1156 93.7092 13.2549C93.7325 13.3941 93.7675 13.5156 93.8149 13.6211C93.8623 13.7257 93.9205 13.8263 93.9912 13.9229C94.1734 14.1611 94.4214 14.3438 94.735 14.4717C95.0487 14.5997 95.4754 14.6633 96.0154 14.6633C96.4555 14.6633 96.834 14.6077 97.1502 14.4975C97.4663 14.3864 97.7126 14.2263 97.8889 14.0162C98.0944 13.778 98.2259 13.5277 98.2849 13.2669C98.344 13.0062 98.3731 12.7052 98.3731 12.3647L98.3906 9.13826H99.0678V8.60226H96.938V9.13826H97.7034L97.6859 11.939C97.6801 12.3478 97.6651 12.6826 97.6418 12.9434C97.6177 13.2042 97.5412 13.4174 97.4122 13.5816C97.2716 13.7635 97.0844 13.8923 96.8523 13.9687C96.6202 14.046 96.3482 14.0838 96.0362 14.0838C95.7184 14.0838 95.448 14.05 95.2242 13.9816C95.0012 13.9132 94.8274 13.8054 94.7042 13.6581C94.5744 13.5044 94.4912 13.3144 94.453 13.0875C94.4147 12.8605 94.3956 12.5619 94.3956 12.1933V11.2485C94.3956 10.9644 94.3964 10.7004 94.3997 10.4565C94.4022 10.2119 94.4047 9.98331 94.4081 9.77084C94.4106 9.55757 94.4122 9.34671 94.4122 9.13665ZM100.433 9.13707H99.6143V8.60106H101.084L104.437 12.9599C104.49 13.0275 104.539 13.0999 104.587 13.1772C104.633 13.2537 104.681 13.3293 104.727 13.4026H104.745L104.781 9.13707H104.015V8.60106H106.092V9.13707H105.432L105.397 14.5599H104.772L101.287 10.0819C101.205 9.96844 101.126 9.84369 101.049 9.70768H101.032L100.997 14.0239H101.772V14.5599H99.7299V14.0239H100.399L100.433 9.13707ZM106.76 9.13707H107.464L107.429 14.0239H106.76V14.5599H108.88V14.0239H108.177L108.212 9.13707H108.88V8.60106H106.76V9.13707ZM109.893 9.13707H109.312V8.60106H111.442V9.13707H110.756L112.428 13.5893C112.451 13.6464 112.469 13.7003 112.481 13.751C112.492 13.8025 112.507 13.8565 112.525 13.9128H112.542C112.56 13.8557 112.575 13.8017 112.586 13.751C112.598 13.7003 112.615 13.6464 112.639 13.5893L114.294 9.13707H113.555V8.60106H115.631V9.13707H115.05L112.877 14.5599H112.067L109.893 9.13707ZM116.027 9.13707H116.731L116.696 14.0239H116.027V14.5599H120.243L120.296 13.0959H119.645L119.591 14.0239H117.462L117.479 11.768H119.415V11.232H117.479L117.497 9.13787H119.538V9.98051H120.19V8.60106H116.027V9.13707ZM121.106 8.59915H123.163C123.438 8.59915 123.711 8.61525 123.981 8.64583C124.251 8.67722 124.493 8.74482 124.707 8.85025C124.92 8.95568 125.094 9.1102 125.226 9.31382C125.357 9.51824 125.424 9.79027 125.424 10.1315C125.424 10.381 125.383 10.6015 125.301 10.7915C125.218 10.9814 125.11 11.1432 124.975 11.2768C124.841 11.4104 124.687 11.5166 124.514 11.5963C124.341 11.6759 124.163 11.7242 123.981 11.7411V11.758C124.093 11.7637 124.216 11.816 124.351 11.9158C124.485 12.0148 124.626 12.187 124.773 12.4308L125.292 13.2992C125.386 13.4522 125.465 13.5777 125.53 13.6743C125.595 13.7709 125.653 13.8449 125.707 13.8956C125.76 13.9471 125.815 13.9809 125.874 13.9978C125.932 14.0147 126.005 14.0236 126.094 14.0236H126.366V14.5596H126.005C125.847 14.5596 125.713 14.5539 125.605 14.5427C125.496 14.5314 125.4 14.5056 125.315 14.4662C125.23 14.4268 125.152 14.3688 125.082 14.2916C125.012 14.2151 124.935 14.1145 124.853 13.9898L124.263 13.0111C124.128 12.7842 124.014 12.5999 123.92 12.4574C123.826 12.3158 123.734 12.2047 123.646 12.1258C123.557 12.0462 123.466 11.9922 123.371 11.9641C123.277 11.9359 123.162 11.9214 123.026 11.9214H122.539L122.522 14.0244H123.235V14.5604H121.105V14.0244H121.774L121.81 9.13757H121.106V8.59915ZM122.539 11.383H123.275C123.47 11.383 123.653 11.3613 123.826 11.3194C123.997 11.2768 124.146 11.2075 124.273 11.111C124.401 11.0144 124.5 10.8929 124.571 10.7448C124.642 10.5975 124.678 10.4156 124.678 10.1999C124.678 9.98423 124.639 9.80717 124.562 9.66794C124.485 9.52871 124.381 9.42006 124.252 9.34038C124.122 9.2607 123.966 9.20678 123.786 9.17861C123.605 9.15044 123.415 9.13596 123.213 9.13596H122.557L122.539 11.383ZM127.705 13.0511H126.983V14.3629C127.071 14.3798 127.169 14.4056 127.278 14.4394C127.386 14.474 127.512 14.5062 127.656 14.5376C127.799 14.5689 127.968 14.5971 128.162 14.6229C128.355 14.6486 128.579 14.6615 128.831 14.6615C129.131 14.6615 129.421 14.6301 129.702 14.5681C129.984 14.5054 130.235 14.4032 130.455 14.2615C130.675 14.1191 130.851 13.9348 130.983 13.7078C131.116 13.4808 131.181 13.2024 131.181 12.8732C131.181 12.5102 131.098 12.2237 130.931 12.0137C130.764 11.8036 130.556 11.6378 130.306 11.5155C130.056 11.3932 129.785 11.2998 129.492 11.2346C129.198 11.1694 128.927 11.0946 128.677 11.0093C128.428 10.924 128.22 10.8161 128.052 10.6857C127.885 10.5554 127.802 10.3622 127.802 10.1071C127.802 9.91393 127.843 9.75136 127.929 9.61776C128.015 9.48416 128.125 9.37793 128.259 9.29825C128.394 9.21858 128.546 9.16143 128.713 9.12763C128.879 9.09383 129.046 9.07693 129.21 9.07693C129.28 9.07693 129.364 9.08095 129.461 9.08981C129.557 9.09785 129.655 9.10993 129.751 9.12361C129.848 9.13809 129.939 9.155 130.024 9.17512C130.109 9.19524 130.181 9.21616 130.24 9.2387V9.97912H130.926V8.77915C130.825 8.73971 130.705 8.70108 130.565 8.66406C130.423 8.62704 130.275 8.59726 130.12 8.57473C129.964 8.55219 129.812 8.53368 129.662 8.5192C129.512 8.50552 129.382 8.49827 129.27 8.49827C128.813 8.49827 128.436 8.55219 128.14 8.66004C127.843 8.76788 127.611 8.90551 127.44 9.07291C127.27 9.24031 127.153 9.423 127.088 9.62179C127.024 9.82057 126.992 10.0105 126.992 10.1924C126.992 10.4588 127.041 10.6817 127.137 10.8604C127.234 11.0391 127.362 11.1879 127.52 11.3071C127.678 11.4262 127.858 11.5211 128.061 11.592C128.264 11.6628 128.47 11.728 128.681 11.7875C128.893 11.8471 129.1 11.9042 129.302 11.9581C129.504 12.0121 129.685 12.0813 129.843 12.1666C130.001 12.2519 130.129 12.3581 130.225 12.4861C130.323 12.6133 130.371 12.7766 130.371 12.9754C130.371 13.3336 130.238 13.6072 129.971 13.7971C129.704 13.9871 129.35 14.082 128.91 14.082C128.81 14.082 128.706 14.0772 128.598 14.0692C128.489 14.0603 128.379 14.0474 128.268 14.0305C128.156 14.0136 128.052 13.9903 127.956 13.9621C127.858 13.934 127.775 13.8993 127.705 13.8599V13.0511ZM132.729 9.13707H132.025V8.60106H134.146V9.13707H133.477L133.442 14.0239H134.146V14.5599H132.025V14.0239H132.694L132.729 9.13707ZM134.938 9.13707H135.642L135.608 14.0231H134.939V14.5591H137.412C137.928 14.5591 138.396 14.4987 138.815 14.3764C139.235 14.2549 139.591 14.0673 139.884 13.8146C140.177 13.5619 140.404 13.2432 140.562 12.8569C140.721 12.4714 140.8 12.0175 140.8 11.4952C140.8 11.0018 140.725 10.5728 140.575 10.2099C140.425 9.84691 140.216 9.54591 139.946 9.30769C139.676 9.06946 139.35 8.89241 138.969 8.77571C138.587 8.65901 138.168 8.60106 137.711 8.60106H134.938V9.13707ZM137.308 14.0231H136.355L136.389 9.13707H137.351C137.769 9.13707 138.129 9.17248 138.432 9.2433C138.735 9.31413 139.016 9.45738 139.275 9.67307C139.498 9.86059 139.673 10.1109 139.8 10.4264C139.926 10.7419 139.989 11.0976 139.989 11.4952C139.989 11.9088 139.926 12.2798 139.8 12.6058C139.673 12.9317 139.507 13.1941 139.301 13.3929C138.866 13.813 138.201 14.0231 137.308 14.0231ZM141.336 14.022H141.899L144.187 8.59915H144.996L147.073 14.022H147.663V14.558H145.586V14.022H146.238L145.577 12.2087H143.351L142.62 14.022H143.359V14.558H141.335V14.022H141.336ZM145.384 11.6727L144.645 9.68886C144.61 9.59229 144.584 9.51422 144.566 9.45466C144.549 9.39511 144.534 9.33716 144.522 9.28002H144.505C144.493 9.33716 144.478 9.39511 144.461 9.45466C144.443 9.51422 144.416 9.59229 144.382 9.68886L143.572 11.6727H145.384ZM148.14 9.13707H148.843L148.809 14.0231H148.14V14.5591H150.613C151.129 14.5591 151.597 14.4987 152.017 14.3764C152.436 14.2549 152.792 14.0673 153.086 13.8146C153.378 13.5619 153.605 13.2432 153.763 12.8569C153.922 12.4714 154.001 12.0175 154.001 11.4952C154.001 11.0018 153.926 10.5728 153.776 10.2099C153.626 9.84691 153.417 9.54591 153.147 9.30769C152.877 9.06946 152.551 8.89241 152.17 8.77571C151.789 8.65901 151.369 8.60106 150.912 8.60106H148.14V9.13707ZM150.509 14.0231H149.556L149.591 9.13707H150.552C150.97 9.13707 151.33 9.17248 151.633 9.2433C151.936 9.31413 152.217 9.45738 152.476 9.67307C152.7 9.86059 152.874 10.1109 153.001 10.4264C153.127 10.7419 153.19 11.0976 153.19 11.4952C153.19 11.9088 153.127 12.2798 153.001 12.6058C152.874 12.9317 152.708 13.1941 152.502 13.3929C152.067 13.813 151.403 14.0231 150.509 14.0231ZM79.8933 19.35H79.1895V18.814H83.3517V20.1934H82.7003V19.3508H80.6587L80.6412 21.4449H82.5771V21.9809H80.6412L80.6237 24.2368H82.7535L82.8068 23.3088H83.4582L83.4049 24.7728H79.1895V24.2368H79.8583L79.8933 19.35ZM84.125 19.35H84.9436L84.9095 24.2368H84.2406V24.7728H86.2822V24.2368H85.5077L85.5426 19.9206H85.5601C85.6366 20.0566 85.7157 20.1814 85.798 20.2948L89.2831 24.7728H89.9079L89.9428 19.35H90.6026V18.814H88.526V19.35H89.2914L89.2556 23.6155H89.2382C89.1916 23.5422 89.1441 23.4666 89.0975 23.3901C89.0501 23.3129 89.0011 23.2404 88.9478 23.1728L85.5951 18.814H84.125V19.35ZM94.4216 19.35H93.7178V18.814H95.8384V19.35H95.1695L95.1346 24.2368H95.8384V24.7728H93.7178V24.2368H94.3867L94.4216 19.35ZM96.5166 19.35H97.3352L97.3011 24.2368H96.6322V24.7728H98.6739V24.2368H97.8993L97.9342 19.9206H97.9517C98.0283 20.0566 98.1073 20.1814 98.1897 20.2948L101.675 24.7728H102.299L102.334 19.35H102.994V18.814H100.918V19.35H101.683L101.647 23.6155H101.63C101.583 23.5422 101.536 23.4666 101.489 23.3901C101.442 23.3129 101.393 23.2404 101.339 23.1728L97.9867 18.814H96.5166V19.35ZM105.82 19.3502H104.139L104.086 20.2693H103.435L103.488 18.8134H108.909L108.962 20.2693H108.311L108.257 19.3502H106.568L106.534 24.237H107.298V24.773H105.116V24.237H105.785L105.82 19.3502ZM109.516 19.35H110.219L110.185 24.2368H109.516V24.7728H113.731L113.784 23.3088H113.133L113.08 24.2368H110.95L110.967 21.9809H112.903V21.4449H110.967L110.985 19.3508H113.026V20.1934H113.678V18.814H109.516V19.35ZM114.595 18.814H116.652C116.927 18.814 117.2 18.8301 117.47 18.8607C117.74 18.892 117.982 18.9597 118.196 19.0651C118.41 19.1705 118.583 19.325 118.715 19.5287C118.847 19.7331 118.913 20.0051 118.913 20.3463C118.913 20.5958 118.872 20.8163 118.79 21.0063C118.708 21.1962 118.599 21.358 118.465 21.4916C118.33 21.6252 118.176 21.7314 118.003 21.8111C117.83 21.8908 117.652 21.9391 117.47 21.956V21.9729C117.582 21.9785 117.705 22.0308 117.84 22.1306C117.975 22.2296 118.115 22.4018 118.262 22.6457L118.782 23.5141C118.876 23.667 118.955 23.7925 119.02 23.8891C119.084 23.9857 119.143 24.0597 119.196 24.1104C119.249 24.1619 119.304 24.1957 119.363 24.2126C119.421 24.2295 119.495 24.2384 119.583 24.2384H119.856V24.7744H119.495C119.337 24.7744 119.203 24.7688 119.094 24.7575C118.985 24.7462 118.889 24.7205 118.804 24.681C118.719 24.6416 118.641 24.5837 118.571 24.5064C118.501 24.4299 118.425 24.3293 118.342 24.2046L117.753 23.2259C117.618 22.999 117.503 22.8147 117.409 22.6722C117.315 22.5306 117.223 22.4195 117.135 22.3407C117.046 22.261 116.956 22.2071 116.861 22.1789C116.767 22.1507 116.651 22.1362 116.515 22.1362H116.029L116.011 24.2392H116.724V24.7752H114.594V24.2392H115.263L115.299 19.3524H114.595V18.814ZM116.027 21.5978H116.763C116.959 21.5978 117.142 21.5761 117.314 21.5342C117.485 21.4916 117.634 21.4224 117.762 21.3258C117.889 21.2292 117.988 21.1077 118.059 20.9596C118.13 20.8123 118.166 20.6304 118.166 20.4147C118.166 20.1991 118.128 20.022 118.05 19.8828C117.973 19.7435 117.87 19.6349 117.74 19.5552C117.61 19.4755 117.455 19.4216 117.274 19.3934C117.094 19.3653 116.903 19.3508 116.702 19.3508H116.045L116.027 21.5978ZM120.153 19.35H120.972L120.938 24.2368H120.269V24.7728H122.311V24.2368H121.536L121.571 19.9206H121.588C121.665 20.0566 121.744 20.1814 121.826 20.2948L125.311 24.7728H125.936L125.971 19.35H126.631V18.814H124.554V19.35H125.32L125.284 23.6155H125.266C125.22 23.5422 125.172 23.4666 125.126 23.3901C125.078 23.3129 125.029 23.2404 124.976 23.1728L121.623 18.814H120.153V19.35ZM127.978 19.35H127.274V18.814H131.437V20.1934H130.785V19.3508H128.744L128.726 21.4449H130.662V21.9809H128.726L128.709 24.2368H130.838L130.892 23.3088H131.543L131.49 24.7728H127.274V24.2368H127.943L127.978 19.35ZM132.826 19.3502H134.506L134.471 24.237H133.802V24.773H135.985V24.237H135.22L135.254 19.3502H136.944L136.997 20.2693H137.649L137.595 18.8134H132.174L132.121 20.2693H132.773L132.826 19.3502Z" fill="black"/>
</svg>
