<svg width="66" height="23" viewBox="0 0 66 23" fill="none" xmlns="http://www.w3.org/2000/svg">
<path d="M48.8516 13.8184H50.5468V5.53369L48.8516 5.67922V13.8184ZM49.6938 2.16576C49.0567 2.16576 48.5384 2.65432 48.5384 3.2988C48.5384 3.92249 49.0567 4.41105 49.6938 4.41105C50.3308 4.41105 50.8491 3.92249 50.8491 3.2988C50.8383 2.67511 50.3308 2.16576 49.6938 2.16576ZM63.4823 5.53369L61.042 10.991L58.4398 5.53369H55.0602V4.81645C55.0602 3.96407 55.4705 3.61064 56.3127 3.61064C56.5719 3.61064 56.8742 3.65222 57.1765 3.72499L57.5544 2.42563C57.0469 2.25932 56.5071 2.17616 55.8916 2.17616C54.2504 2.17616 53.365 3.20525 53.365 4.7021V5.53369L51.9181 5.64803V6.95778H53.365V13.8184H55.0602V6.94739H57.2737L60.2106 12.8413C59.9623 13.361 59.66 13.9431 59.1849 14.2965C58.7638 14.6188 58.2239 14.65 57.7056 14.546L57.3061 15.8869C58.0727 16.1572 59.0337 16.126 59.7463 15.7518C60.5238 15.336 61.0421 14.5564 61.3876 13.7872L65.2747 5.5025H63.4715V5.53369H63.4823ZM43.2368 12.5814C41.8223 12.571 40.6346 11.4484 40.6346 9.67084C40.6346 7.88292 41.8116 6.77068 43.2368 6.74989C44.6513 6.76028 45.8391 7.88292 45.8391 9.67084C45.8391 11.4484 44.6513 12.5814 43.2368 12.5814ZM43.2368 5.305C42.2003 5.305 41.2825 5.68961 40.613 6.33409V2.40484L39.0258 2.53998V13.8288H40.613V13.0284C41.2825 13.6728 42.2003 14.0575 43.2368 14.0575C45.6339 14.0471 47.4695 12.228 47.4695 9.68123C47.4695 7.1345 45.6231 5.32579 43.2368 5.305ZM24.6974 6.77068C25.626 6.78107 26.4682 7.31121 26.9217 8.12201L28.293 7.30081C27.5587 6.08462 26.2522 5.305 24.6974 5.305C22.2895 5.3154 20.4647 7.1345 20.4647 9.68123C20.4647 12.228 22.2895 14.0367 24.6974 14.0575C26.2522 14.0575 27.5587 13.2882 28.293 12.0616L26.9217 11.2405C26.4682 12.0616 25.626 12.5918 24.6974 12.5918C23.2829 12.5814 22.0952 11.4587 22.0952 9.67084C22.0952 7.88292 23.2829 6.78107 24.6974 6.77068ZM33.1735 12.5814C31.759 12.571 30.5713 11.4484 30.5713 9.67084C30.5713 7.88292 31.7482 6.77068 33.1735 6.74989C34.588 6.76028 35.7757 7.88292 35.7757 9.67084C35.7649 11.4484 34.588 12.5814 33.1735 12.5814ZM35.7973 6.33409C35.1278 5.68961 34.2101 5.305 33.1735 5.305C30.7764 5.3154 28.9408 7.1345 28.9408 9.68123C28.9408 12.228 30.7656 14.0367 33.1735 14.0575C34.2101 14.0575 35.1278 13.6728 35.7973 13.0284V13.8288H37.3845V5.5233L35.7973 5.65843V6.33409ZM6.2875 12.7789L9.46199 15.8766L12.6365 12.7789C13.2196 12.2176 14.1589 12.2176 14.742 12.7789C15.3251 13.3402 15.3251 14.2654 14.742 14.8371L9.47279 19.9825L4.18198 14.8371C2.84308 13.5169 2.00086 11.6978 2.00086 9.69163C2.00086 5.67922 5.33732 2.41524 9.4512 2.41524C11.5135 2.41524 13.3707 3.23643 14.7204 4.54618C15.3035 5.1075 15.3035 6.03264 14.7204 6.60436C14.1373 7.16568 13.198 7.16568 12.6149 6.60436C11.8051 5.81435 10.6821 5.32579 9.4404 5.32579C6.96775 5.32579 4.9594 7.28002 4.9594 9.70202C4.981 10.887 5.46689 11.9889 6.2875 12.7789ZM9.4512 6.77068C10.2718 6.77068 11.0168 7.10331 11.5567 7.62305C12.7121 8.75609 14.6016 8.75609 15.7786 7.62305C16.9339 6.49001 16.9339 4.65013 15.7786 3.5067C14.1589 1.94747 11.9238 0.959961 9.4512 0.959961C4.5167 0.959961 0.5 4.86842 0.5 9.69163C0.5 12.1032 1.50418 14.2861 3.12381 15.8662L9.4512 22.0407L15.7786 15.8662C16.9339 14.7331 16.9339 12.8932 15.7786 11.7498C14.6232 10.6168 12.7337 10.6168 11.5567 11.7498L9.4512 13.8184L7.34567 11.7498C6.81659 11.2301 6.48186 10.5024 6.48186 9.69163C6.46027 8.08043 7.79917 6.77068 9.4512 6.77068Z" fill="#E6F1F4"/>
</svg>
