<svg width="55" height="20" viewBox="0 0 55 20" fill="none" xmlns="http://www.w3.org/2000/svg">
<path d="M13.6221 13.5426H2.77896C3.04841 16.0498 4.85668 17.5485 6.82565 17.5485C8.30928 17.5485 9.8205 17.1123 10.7636 15.2053L13.2715 15.7497C12.1661 18.5832 9.79128 19.9999 6.82403 19.9999C3.18314 20.0016 0 17.1681 0 12.89C0 8.58402 3.15555 5.72266 6.93279 5.72266C10.5201 5.72266 13.4874 8.50203 13.6221 12.562V13.5426ZM2.86012 11.5274H10.7376C10.3058 9.32026 8.76865 8.22983 6.93441 8.22983C5.1797 8.22983 3.29027 9.3465 2.86012 11.5274Z" fill="white"/>
<path d="M29.8883 19.6196H27.0558V18.093C25.8692 19.2916 24.2233 20 22.2008 20C18.7206 20 15.565 17.1386 15.565 12.8605C15.565 8.61031 18.7206 5.72108 22.2008 5.72108C24.2233 5.72108 25.8692 6.42945 27.0558 7.65598V0H29.8883V19.6196ZM27.0558 12.8622C27.0558 10.0287 24.8969 8.22989 22.6585 8.22989C20.2302 8.22989 18.3148 10.0287 18.3148 12.8622C18.3148 15.7235 20.2302 17.4945 22.6585 17.4945C24.8969 17.4945 27.0558 15.7235 27.0558 12.8622Z" fill="white"/>
<path d="M37.5274 1.77093C37.5274 2.77937 36.7726 3.51562 35.7467 3.51562C34.6948 3.51562 33.94 2.77937 33.94 1.77093C33.94 0.816594 34.6948 0 35.7467 0C36.7726 0 37.5274 0.818234 37.5274 1.77093Z" fill="white"/>
<path d="M37.136 5.99658H34.3311V19.6212H37.136V5.99658Z" fill="white"/>
<path d="M40.6078 5.99658H43.8461L54.0952 19.6196H50.8585L40.6078 5.99658Z" fill="white"/>
<path d="M51.398 9.81064L54.0958 5.99658H48.7018L51.398 9.81064Z" fill="#A049F8"/>
<path d="M46.0034 19.6197H40.6078L43.3056 15.8057L46.0034 19.6197Z" fill="#00CCFF"/>
</svg>
