<svg width="105" height="64" viewBox="0 0 105 64" fill="none" xmlns="http://www.w3.org/2000/svg">
<g clip-path="url(#clip0)">
<path d="M26.4478 26.2937H5.39546C5.91862 31.1614 9.42945 34.0713 13.2523 34.0713C16.1328 34.0713 19.0669 33.2244 20.898 29.5219L25.7671 30.5788C23.6209 36.0802 19.0102 38.8308 13.2491 38.8308C6.1802 38.834 0 33.3327 0 25.0266C0 16.6663 6.12662 11.1109 13.4603 11.1109C20.4252 11.1109 26.1863 16.5072 26.4478 24.3898V26.2937ZM5.55304 22.381H20.8475C20.0092 18.0958 17.0247 15.9787 13.4634 15.9787C10.0566 15.9787 6.3882 18.1467 5.55304 22.381Z" fill="black"/>
<path d="M58.03 38.0922H52.5305V35.1282C50.2267 37.4555 47.0311 38.8308 43.1042 38.8308C36.3473 38.8308 30.2207 33.2754 30.2207 24.9693C30.2207 16.7173 36.3473 11.1077 43.1042 11.1077C47.0311 11.1077 50.2267 12.483 52.5305 14.8644V0H58.03V38.0922ZM52.5305 24.9724C52.5305 19.4711 48.339 15.9787 43.993 15.9787C39.2783 15.9787 35.5594 19.4711 35.5594 24.9724C35.5594 30.5279 39.2783 33.9662 43.993 33.9662C48.339 33.9662 52.5305 30.5279 52.5305 24.9724Z" fill="black"/>
<path d="M72.8604 3.43833C72.8604 5.39626 71.395 6.82572 69.4032 6.82572C67.361 6.82572 65.8955 5.39626 65.8955 3.43833C65.8955 1.58545 67.361 0 69.4032 0C71.395 0 72.8604 1.58863 72.8604 3.43833Z" fill="black"/>
<path d="M72.1012 11.6426H66.6553V38.0954H72.1012V11.6426Z" fill="black"/>
<path d="M78.8428 11.6426H85.1301L105.029 38.0922H98.7448L78.8428 11.6426Z" fill="black"/>
<path d="M99.7904 19.0477L105.028 11.6426H94.5557L99.7904 19.0477Z" fill="#7C00C6"/>
<path d="M89.3185 38.0923H78.8428L84.0807 30.6871L89.3185 38.0923Z" fill="#00CCFF"/>
</g>
<path d="M1.00293 52.2343V60.7404H3.97373C6.86836 60.7404 8.67115 58.963 8.67115 56.4873C8.67115 54.0117 6.86836 52.2343 3.97373 52.2343H1.00293ZM2.36137 59.5089V53.4658H3.97373C6.04313 53.4658 7.30001 54.7226 7.30001 56.4873C7.30001 58.252 6.04313 59.5089 3.97373 59.5089H2.36137Z" fill="black"/>
<path d="M11.6733 51.7264C11.1782 51.7264 10.8227 52.1073 10.8227 52.5517C10.8227 53.0214 11.1782 53.3642 11.6733 53.3642C12.1557 53.3642 12.5112 53.0214 12.5112 52.5517C12.5112 52.1073 12.1557 51.7264 11.6733 51.7264ZM12.3335 60.7404V54.4433H11.0131V60.7404H12.3335Z" fill="black"/>
<path d="M21.0598 54.4433H19.7775V55.0654C19.2951 54.5576 18.5714 54.2783 17.6066 54.2783C15.9942 54.2783 14.5215 55.5606 14.5215 57.3126C14.5215 59.0646 15.9942 60.3722 17.6066 60.3722C18.5714 60.3722 19.2951 60.0929 19.7775 59.5851V59.9914C19.7775 61.2102 18.9904 61.9592 17.797 61.9592C16.794 61.9592 16.2735 61.5783 15.8038 60.842L14.7246 61.6418C15.2325 62.5813 16.2862 63.1526 17.797 63.1526C19.7648 63.1526 21.0598 62.0608 21.0598 60.1818V54.4433ZM17.8224 59.2296C16.6925 59.2296 15.8038 58.4679 15.8038 57.3126C15.8038 56.1446 16.6925 55.3955 17.8224 55.3955C18.8507 55.3955 19.7775 56.1446 19.7775 57.3126C19.7775 58.4679 18.8507 59.2296 17.8224 59.2296Z" fill="black"/>
<path d="M24.4608 51.7264C23.9656 51.7264 23.6102 52.1073 23.6102 52.5517C23.6102 53.0214 23.9656 53.3642 24.4608 53.3642C24.9432 53.3642 25.2987 53.0214 25.2987 52.5517C25.2987 52.1073 24.9432 51.7264 24.4608 51.7264ZM25.1209 60.7404V54.4433H23.8006V60.7404H25.1209Z" fill="black"/>
<path d="M31.6382 59.3312C31.3081 59.547 30.9019 59.674 30.5718 59.674C29.9497 59.674 29.5307 59.2931 29.5307 58.506V55.5352H31.689V54.4433H29.5307V52.4882H28.2104V54.4433H26.8519V55.5352H28.2104V58.5948C28.2104 60.1564 29.1245 60.9182 30.4829 60.9182C31.0161 60.9182 31.4478 60.7912 32.0445 60.4357L31.6382 59.3312Z" fill="black"/>
<path d="M39.7428 54.4433H38.4224V55.167C37.8765 54.5957 37.0893 54.2656 36.1372 54.2656C34.4867 54.2656 33.014 55.6113 33.014 57.5919C33.014 59.5851 34.4867 60.9182 36.1372 60.9182C37.0893 60.9182 37.8765 60.5881 38.4224 60.0168V60.7404H39.7428V54.4433ZM36.353 59.7501C35.1977 59.7501 34.2963 58.9249 34.2963 57.5919C34.2963 56.2715 35.1977 55.4336 36.353 55.4336C37.394 55.4336 38.4224 56.2715 38.4224 57.5919C38.4224 58.9249 37.394 59.7501 36.353 59.7501Z" fill="black"/>
<path d="M43.6985 60.7404V51.5995H42.3781V60.7404H43.6985Z" fill="black"/>
<path d="M61.0889 52.2343H59.6543L57.788 58.6456L55.8329 52.2343H54.5252L52.5701 58.6456L50.7038 52.2343H49.2819L51.8211 60.7404H53.2684L55.1854 54.4179L57.0898 60.7404H58.5371L61.0889 52.2343Z" fill="black"/>
<path d="M65.2648 54.3037C63.3986 54.3037 61.8751 55.6367 61.8751 57.5919C61.8751 59.547 63.3986 60.8928 65.2648 60.8928C67.1184 60.8928 68.6292 59.547 68.6292 57.5919C68.6292 55.6367 67.1184 54.3037 65.2648 54.3037ZM65.2648 59.7501C64.1603 59.7501 63.17 58.8995 63.17 57.5919C63.17 56.2842 64.1603 55.4336 65.2648 55.4336C66.344 55.4336 67.3469 56.2842 67.3469 57.5919C67.3469 58.8995 66.344 59.7501 65.2648 59.7501Z" fill="black"/>
<path d="M74.4625 54.3672C73.3707 54.3672 72.5708 54.9512 72.063 55.7891V54.4433H70.7427V60.7404H72.063V58.5187C72.063 56.792 72.8501 55.6748 74.4498 55.6748C74.5641 55.6748 74.7164 55.6748 74.818 55.6875L74.9069 54.4179C74.7418 54.3672 74.6149 54.3672 74.4625 54.3672Z" fill="black"/>
<path d="M83.1073 60.7404L79.4382 57.4903L82.7391 54.4433H81.0506L78.4226 56.8174H78.029V51.5995H76.7086V60.7404H78.029V58.1251H78.4099L81.3172 60.7404H83.1073Z" fill="black"/>
<path d="M90.2882 57.4522C90.2247 55.5606 88.8282 54.2656 87.1397 54.2656C85.3623 54.2656 83.8769 55.5986 83.8769 57.6046C83.8769 59.5978 85.375 60.9182 87.0889 60.9182C88.4854 60.9182 89.6027 60.258 90.1232 58.9376L88.9425 58.6837C88.4981 59.5724 87.7872 59.7755 87.0889 59.7755C86.1621 59.7755 85.3115 59.0773 85.1845 57.9093H90.2882V57.4522ZM87.1397 55.4336C88.003 55.4336 88.7267 55.9414 88.9298 56.9698H85.2226C85.4258 55.9541 86.3145 55.4336 87.1397 55.4336Z" fill="black"/>
<path d="M96.1048 54.3672C95.0129 54.3672 94.2131 54.9512 93.7053 55.7891V54.4433H92.3849V60.7404H93.7053V58.5187C93.7053 56.792 94.4924 55.6748 96.0921 55.6748C96.2063 55.6748 96.3587 55.6748 96.4602 55.6875L96.5491 54.4179C96.3841 54.3672 96.2571 54.3672 96.1048 54.3672Z" fill="black"/>
<path d="M97.7309 59.0519C97.8959 60.3215 99.102 60.9182 100.511 60.9182C102.086 60.9182 103.165 60.2072 103.165 58.8868C103.165 57.9981 102.543 57.4014 101.527 57.1856L100.029 56.8555C99.4702 56.7286 99.2671 56.5 99.2671 56.1446C99.2671 55.7002 99.6099 55.3193 100.384 55.3193C101.197 55.3193 101.717 55.7383 101.819 56.3477L103.076 56.0811C102.847 55.0273 101.87 54.2656 100.422 54.2656C98.9116 54.2656 97.934 55.0908 97.934 56.2588C97.934 57.1475 98.5561 57.7315 99.648 57.9727L101.019 58.252C101.603 58.379 101.87 58.6202 101.87 59.0011C101.87 59.4962 101.387 59.839 100.626 59.839C99.8003 59.839 99.1401 59.5216 99.0513 58.7726L97.7309 59.0519Z" fill="black"/>
<defs>
<clipPath id="clip0">
<rect width="104.97" height="38.834" fill="white"/>
</clipPath>
</defs>
</svg>
