<svg width="20" height="20" viewBox="0 0 20 20" fill="none" xmlns="http://www.w3.org/2000/svg">
<path d="M17.3899 19.0236L20.001 16.4035L14.5688 10.9623L12.3903 13.0717C11.7627 12.7182 10.5605 11.9511 9.25335 10.6439C7.94593 9.33654 7.17015 8.12561 6.81101 7.49205L8.91956 5.35628L3.59516 -7.17121e-07L0.972038 2.60577C-0.0240156 3.60183 -0.282139 5.11741 0.329656 6.37709C1.26325 8.29935 2.9859 11.2004 5.89062 14.1051C8.79526 17.0098 11.6963 18.7324 13.6186 19.666C14.0741 19.8873 14.5629 19.9947 15.0486 19.9947C15.9063 19.9947 16.754 19.6595 17.3899 19.0236ZM14.3008 18.2616C12.4862 17.3803 9.74577 15.7523 6.9946 13.0011C4.24332 10.2499 2.61535 7.50943 1.73407 5.69495C1.41278 5.03342 1.5502 4.23557 2.07422 3.71155L3.58824 2.20757L6.72187 5.36014L4.92562 7.17963L5.14242 7.66643C5.17765 7.74553 6.02956 9.62826 8.14932 11.748C10.2705 13.8692 12.1373 14.7034 12.2158 14.7379L12.696 14.9489L14.5502 13.1536L17.7959 16.4046L16.2854 17.9204C15.7594 18.4456 14.962 18.5828 14.3008 18.2616Z" fill="#6A00C2"/>
</svg>
