<svg width="28" height="28" viewBox="0 0 28 28" fill="none" xmlns="http://www.w3.org/2000/svg">
<path fill-rule="evenodd" clip-rule="evenodd" d="M27.0093 20.9178C27.7883 21.6981 27.7889 22.9616 27.0106 23.7426L24.3182 26.4443C23.2998 27.4628 21.9414 28 20.5666 28C19.7872 28 19.0018 27.8274 18.2702 27.4721C15.6935 26.2206 11.823 23.9207 7.95093 20.0486C4.07877 16.1765 1.77879 12.306 0.527349 9.72929C-0.455864 7.70485 -0.0390913 5.27547 1.55508 3.68129L1.55743 3.67895L4.25918 0.995074C5.04263 0.216805 6.30859 0.22079 7.08712 1.00398L12.6075 6.55743C13.3811 7.3356 13.3832 8.5917 12.6123 9.37252L11.1126 10.8917C11.6378 11.7147 12.4914 12.8872 13.7378 14.1336C14.9843 15.3802 16.1501 16.227 16.9657 16.7452L18.5395 15.2214C19.3244 14.4613 20.5741 14.4719 21.3461 15.2452L27.0093 20.9178ZM22.904 25.0301L25.5939 22.3308L19.9307 16.6582L17.2692 19.2352L16.619 18.869C15.7416 18.3747 14.1008 17.3251 12.3236 15.5478C10.5464 13.7706 9.48579 12.119 8.98491 11.2354L8.61208 10.5777L11.1891 7.96741L5.66869 2.41397L2.9693 5.09551C2.96886 5.09594 2.96843 5.09638 2.96799 5.09681C1.97283 6.09307 1.71879 7.60447 2.32639 8.85554C3.50294 11.278 5.68303 14.9523 9.36514 18.6344C13.0471 22.3164 16.7214 24.4964 19.1439 25.6731C19.5969 25.8931 20.0828 26 20.5666 26C21.4221 26 22.2687 25.6652 22.904 25.0301C22.9041 25.0299 22.9038 25.0303 22.904 25.0301Z" fill="white"/>
</svg>
