<svg width="28" height="28" viewBox="0 0 28 28" fill="none" xmlns="http://www.w3.org/2000/svg">
<path fill-rule="evenodd" clip-rule="evenodd" d="M14.5909 2C11.5533 2 9.09091 4.46243 9.09091 7.5C9.09091 10.5376 11.5533 13 14.5909 13C17.6285 13 20.0909 10.5376 20.0909 7.5C20.0909 4.46243 17.6285 2 14.5909 2ZM7.09091 7.5C7.09091 3.35786 10.4488 0 14.5909 0C18.733 0 22.0909 3.35786 22.0909 7.5C22.0909 11.6421 18.733 15 14.5909 15C10.4488 15 7.09091 11.6421 7.09091 7.5Z" fill="white"/>
<path fill-rule="evenodd" clip-rule="evenodd" d="M2.04102 26H25.959C25.4514 19.841 20.2906 15 14 15C7.70943 15 2.54859 19.841 2.04102 26ZM0.0407654 25.9242C0.590737 18.6944 6.6299 13 14 13C21.3701 13 27.4093 18.6944 27.9592 25.9242C28.049 27.1048 27.0837 28 26 28H2C0.916311 28 -0.0490452 27.1048 0.0407654 25.9242Z" fill="white"/>
</svg>
