<svg width="200" height="200" viewBox="0 0 200 200" fill="none" xmlns="http://www.w3.org/2000/svg">


<rect opacity="0.8" x="28" y="130" width="50" height="50" rx="25" fill="#6A00C2"/>
<path d="M159.069 154L110.639 42.11H89.43L41 154H65.549L75.402 130.119H124.834L134.52 154H159.069ZM116.317 109.578H83.752L100.118 69.665L116.317 109.578Z" class="hover-purple" fill="transparent"/>
<path d="M159.069 154V155H160.591L159.987 153.603L159.069 154ZM110.639 42.11L111.557 41.7128L111.296 41.11H110.639V42.11ZM89.43 42.11V41.11H88.7732L88.5123 41.7128L89.43 42.11ZM41 154L40.0823 153.603L39.4775 155H41V154ZM65.549 154V155H66.2182L66.4734 154.381L65.549 154ZM75.402 130.119V129.119H74.7328L74.4776 129.738L75.402 130.119ZM124.834 130.119L125.761 129.743L125.508 129.119H124.834V130.119ZM134.52 154L133.593 154.376L133.846 155H134.52V154ZM116.317 109.578V110.578H117.802L117.244 109.202L116.317 109.578ZM83.752 109.578L82.8268 109.199L82.2612 110.578H83.752V109.578ZM100.118 69.665L101.045 69.2889L100.123 67.0176L99.1928 69.2856L100.118 69.665ZM159.987 153.603L111.557 41.7128L109.721 42.5072L158.151 154.397L159.987 153.603ZM110.639 41.11H89.43V43.11H110.639V41.11ZM88.5123 41.7128L40.0823 153.603L41.9177 154.397L90.3477 42.5072L88.5123 41.7128ZM41 155H65.549V153H41V155ZM66.4734 154.381L76.3264 130.5L74.4776 129.738L64.6246 153.619L66.4734 154.381ZM75.402 131.119H124.834V129.119H75.402V131.119ZM123.907 130.495L133.593 154.376L135.447 153.624L125.761 129.743L123.907 130.495ZM134.52 155H159.069V153H134.52V155ZM116.317 108.578H83.752V110.578H116.317V108.578ZM84.6772 109.957L101.043 70.0444L99.1928 69.2856L82.8268 109.199L84.6772 109.957ZM99.1914 70.0411L115.39 109.954L117.244 109.202L101.045 69.2889L99.1914 70.0411Z" fill="black"/>
</svg>
