<svg width="200" height="200" viewBox="0 0 200 200" fill="none" xmlns="http://www.w3.org/2000/svg">
<path d="M154 20L179.981 65H128.019L154 20Z" fill="#A049F8"/>
<path d="M127.5 96.218C134.18 95.049 143.866 87.367 143.866 73.172C143.866 54.468 131.007 42.11 110.8 42.11H55.69V154H110.967C135.85 154 147.039 141.141 147.039 122.938C147.039 107.073 136.685 98.055 127.5 96.886V96.218ZM78.402 61.482H108.295C115.643 61.482 121.822 66.659 121.822 74.508C121.822 83.192 115.81 88.87 106.792 88.87H78.402V61.482ZM78.402 134.628V106.906H109.297C117.814 106.906 123.826 112.25 123.826 120.767C123.826 129.117 118.649 134.628 108.462 134.628H78.402Z" class="hover-purple" fill="transparent"/>
<path d="M127.5 96.218L127.328 95.233L126.5 95.3778V96.218H127.5ZM55.69 42.11V41.11H54.69V42.11H55.69ZM55.69 154H54.69V155H55.69V154ZM127.5 96.886H126.5V97.7668L127.374 97.878L127.5 96.886ZM78.402 61.482V60.482H77.402V61.482H78.402ZM78.402 88.87H77.402V89.87H78.402V88.87ZM78.402 134.628H77.402V135.628H78.402V134.628ZM78.402 106.906V105.906H77.402V106.906H78.402ZM127.672 97.203C134.823 95.9516 144.866 87.8605 144.866 73.172H142.866C142.866 86.8735 133.537 94.1464 127.328 95.233L127.672 97.203ZM144.866 73.172C144.866 63.5822 141.564 55.5409 135.598 49.9004C129.637 44.2648 121.107 41.11 110.8 41.11V43.11C120.7 43.11 128.703 46.1342 134.224 51.3536C139.739 56.5681 142.866 64.0577 142.866 73.172H144.866ZM110.8 41.11H55.69V43.11H110.8V41.11ZM54.69 42.11V154H56.69V42.11H54.69ZM55.69 155H110.967V153H55.69V155ZM110.967 155C123.572 155 132.866 151.742 139.015 146.028C145.173 140.305 148.039 132.247 148.039 122.938H146.039C146.039 131.832 143.311 139.305 137.653 144.563C131.987 149.829 123.245 153 110.967 153V155ZM148.039 122.938C148.039 106.599 137.339 97.1302 127.626 95.894L127.374 97.878C136.031 98.9798 146.039 107.547 146.039 122.938H148.039ZM128.5 96.886V96.218H126.5V96.886H128.5ZM78.402 62.482H108.295V60.482H78.402V62.482ZM108.295 62.482C115.167 62.482 120.822 67.2845 120.822 74.508H122.822C122.822 66.0335 116.119 60.482 108.295 60.482V62.482ZM120.822 74.508C120.822 78.6103 119.408 81.9273 116.999 84.2214C114.586 86.5199 111.09 87.87 106.792 87.87V89.87C111.512 89.87 115.531 88.3811 118.378 85.6696C121.23 82.9536 122.822 79.0897 122.822 74.508H120.822ZM106.792 87.87H78.402V89.87H106.792V87.87ZM79.402 88.87V61.482H77.402V88.87H79.402ZM79.402 134.628V106.906H77.402V134.628H79.402ZM78.402 107.906H109.297V105.906H78.402V107.906ZM109.297 107.906C113.347 107.906 116.721 109.174 119.072 111.373C121.417 113.565 122.826 116.755 122.826 120.767H124.826C124.826 116.262 123.229 112.522 120.438 109.912C117.655 107.31 113.764 105.906 109.297 105.906V107.906ZM122.826 120.767C122.826 124.732 121.602 127.91 119.278 130.101C116.947 132.299 113.381 133.628 108.462 133.628V135.628C113.73 135.628 117.846 134.201 120.65 131.556C123.462 128.905 124.826 125.152 124.826 120.767H122.826ZM108.462 133.628H78.402V135.628H108.462V133.628Z" fill="black"/>
</svg>
