<svg width="200" height="200" viewBox="0 0 200 200" fill="none" xmlns="http://www.w3.org/2000/svg">


<rect x="135" y="135" width="45" height="45" fill="#6A00C2"/>
<path d="M101.464 135.296C81.424 135.296 65.559 119.264 65.559 98.055C65.559 76.846 81.424 60.981 101.464 60.981C116.995 60.981 130.355 69.498 134.53 88.87L156.574 82.691C150.896 55.804 128.351 39.605 101.464 39.605C68.565 39.605 42.68 65.323 42.68 98.055C42.68 130.954 68.565 156.505 101.464 156.505C128.351 156.505 151.063 140.473 156.574 111.749L134.53 107.24C130.355 126.779 116.995 135.296 101.464 135.296Z" class="hover-purple" fill="transparent"/>
<path d="M134.53 88.87L133.552 89.0807L133.776 90.1198L134.8 89.8329L134.53 88.87ZM156.574 82.691L156.844 83.6539L157.746 83.401L157.552 82.4844L156.574 82.691ZM156.574 111.749L157.556 111.937L157.742 110.967L156.774 110.769L156.574 111.749ZM134.53 107.24L134.73 106.26L133.759 106.062L133.552 107.031L134.53 107.24ZM101.464 134.296C82.0031 134.296 66.559 118.739 66.559 98.055H64.559C64.559 119.789 80.8449 136.296 101.464 136.296V134.296ZM66.559 98.055C66.559 77.3771 81.9972 61.981 101.464 61.981V59.981C80.8508 59.981 64.559 76.3149 64.559 98.055H66.559ZM101.464 61.981C109.047 61.981 116.041 64.0585 121.638 68.4479C127.231 72.8333 131.506 79.5869 133.552 89.0807L135.508 88.6593C133.379 78.7811 128.887 71.5902 122.873 66.8741C116.864 62.162 109.412 59.981 101.464 59.981V61.981ZM134.8 89.8329L156.844 83.6539L156.304 81.7281L134.26 87.9071L134.8 89.8329ZM157.552 82.4844C151.767 55.0866 128.772 38.605 101.464 38.605V40.605C127.93 40.605 150.025 56.5214 155.596 82.8976L157.552 82.4844ZM101.464 38.605C68.0183 38.605 41.68 64.7651 41.68 98.055H43.68C43.68 65.8809 69.1117 40.605 101.464 40.605V38.605ZM41.68 98.055C41.68 131.514 68.0202 157.505 101.464 157.505V155.505C69.1098 155.505 43.68 130.394 43.68 98.055H41.68ZM101.464 157.505C128.782 157.505 151.946 141.178 157.556 111.937L155.592 111.561C150.18 139.768 127.92 155.505 101.464 155.505V157.505ZM156.774 110.769L134.73 106.26L134.33 108.22L156.374 112.729L156.774 110.769ZM133.552 107.031C131.505 116.61 127.229 123.404 121.637 127.81C116.04 132.219 109.047 134.296 101.464 134.296V136.296C109.412 136.296 116.865 134.115 122.874 129.381C128.889 124.643 133.38 117.409 135.508 107.449L133.552 107.031Z" fill="black"/>
</svg>
