<svg width="200" height="200" viewBox="0 0 200 200" fill="none" xmlns="http://www.w3.org/2000/svg">


<rect opacity="0.8" x="20" y="20" width="50" height="50" rx="25" fill="#A049F8"/>
<path d="M50.69 42.11V154H91.939C128.846 154 153.395 131.455 153.395 98.055C153.395 64.655 128.846 42.11 91.939 42.11H50.69ZM73.402 133.459V62.651H91.939C115.152 62.651 130.516 76.345 130.516 98.055C130.516 119.765 115.152 133.459 91.939 133.459H73.402Z" class="hover-purple" fill="transparent"/>
<path d="M50.69 42.11V41.11H49.69V42.11H50.69ZM50.69 154H49.69V155H50.69V154ZM73.402 133.459H72.402V134.459H73.402V133.459ZM73.402 62.651V61.651H72.402V62.651H73.402ZM49.69 42.11V154H51.69V42.11H49.69ZM50.69 155H91.939V153H50.69V155ZM91.939 155C110.595 155 126.214 149.3 137.181 139.291C148.156 129.275 154.395 115.013 154.395 98.055H152.395C152.395 114.497 146.359 128.207 135.833 137.814C125.299 147.428 110.19 153 91.939 153V155ZM154.395 98.055C154.395 81.0972 148.156 66.8347 137.181 56.8189C126.214 46.8102 110.595 41.11 91.939 41.11V43.11C110.19 43.11 125.299 48.6822 135.833 58.2961C146.359 67.9028 152.395 81.6128 152.395 98.055H154.395ZM91.939 41.11H50.69V43.11H91.939V41.11ZM74.402 133.459V62.651H72.402V133.459H74.402ZM73.402 63.651H91.939V61.651H73.402V63.651ZM91.939 63.651C103.352 63.651 112.738 67.0155 119.259 72.9513C125.77 78.8778 129.516 87.4484 129.516 98.055H131.516C131.516 86.9516 127.58 77.8202 120.606 71.4722C113.641 65.1335 103.739 61.651 91.939 61.651V63.651ZM129.516 98.055C129.516 108.662 125.77 117.232 119.259 123.159C112.738 129.094 103.352 132.459 91.939 132.459V134.459C103.739 134.459 113.641 130.977 120.606 124.638C127.58 118.29 131.516 109.158 131.516 98.055H129.516ZM91.939 132.459H73.402V134.459H91.939V132.459Z" fill="black"/>
</svg>
