<svg width="200" height="200" viewBox="0 0 200 200" fill="none" xmlns="http://www.w3.org/2000/svg">


<path d="M135 133L180 107.019L180 158.981L135 133Z" fill="#6A00C2"/>
<path d="M143.693 133.459H81.402V108.075H138.516V87.868H81.402V62.651H143.359V42.11H58.69V154H143.693V133.459Z" class="hover-purple" fill="transparent"/>
<path d="M143.693 133.459H144.693V132.459H143.693V133.459ZM81.402 133.459H80.402V134.459H81.402V133.459ZM81.402 108.075V107.075H80.402V108.075H81.402ZM138.516 108.075V109.075H139.516V108.075H138.516ZM138.516 87.868H139.516V86.868H138.516V87.868ZM81.402 87.868H80.402V88.868H81.402V87.868ZM81.402 62.651V61.651H80.402V62.651H81.402ZM143.359 62.651V63.651H144.359V62.651H143.359ZM143.359 42.11H144.359V41.11H143.359V42.11ZM58.69 42.11V41.11H57.69V42.11H58.69ZM58.69 154H57.69V155H58.69V154ZM143.693 154V155H144.693V154H143.693ZM143.693 132.459H81.402V134.459H143.693V132.459ZM82.402 133.459V108.075H80.402V133.459H82.402ZM81.402 109.075H138.516V107.075H81.402V109.075ZM139.516 108.075V87.868H137.516V108.075H139.516ZM138.516 86.868H81.402V88.868H138.516V86.868ZM82.402 87.868V62.651H80.402V87.868H82.402ZM81.402 63.651H143.359V61.651H81.402V63.651ZM144.359 62.651V42.11H142.359V62.651H144.359ZM143.359 41.11H58.69V43.11H143.359V41.11ZM57.69 42.11V154H59.69V42.11H57.69ZM58.69 155H143.693V153H58.69V155ZM144.693 154V133.459H142.693V154H144.693Z" fill="black"/>
</svg>
