<svg width="200" height="200" viewBox="0 0 200 200" fill="none" xmlns="http://www.w3.org/2000/svg">


<rect x="135" y="25" width="45" height="45" fill="#A049F8"/>
<path d="M84.402 62.651H145.19V42.11H61.69V154H84.402V110.58H138.677V90.039H84.402V62.651Z" class="hover-purple" fill="transparent"/>
<path d="M84.402 62.651V61.651H83.402V62.651H84.402ZM145.19 62.651V63.651H146.19V62.651H145.19ZM145.19 42.11H146.19V41.11H145.19V42.11ZM61.69 42.11V41.11H60.69V42.11H61.69ZM61.69 154H60.69V155H61.69V154ZM84.402 154V155H85.402V154H84.402ZM84.402 110.58V109.58H83.402V110.58H84.402ZM138.677 110.58V111.58H139.677V110.58H138.677ZM138.677 90.039H139.677V89.039H138.677V90.039ZM84.402 90.039H83.402V91.039H84.402V90.039ZM84.402 63.651H145.19V61.651H84.402V63.651ZM146.19 62.651V42.11H144.19V62.651H146.19ZM145.19 41.11H61.69V43.11H145.19V41.11ZM60.69 42.11V154H62.69V42.11H60.69ZM61.69 155H84.402V153H61.69V155ZM85.402 154V110.58H83.402V154H85.402ZM84.402 111.58H138.677V109.58H84.402V111.58ZM139.677 110.58V90.039H137.677V110.58H139.677ZM138.677 89.039H84.402V91.039H138.677V89.039ZM85.402 90.039V62.651H83.402V90.039H85.402Z" fill="black"/>
</svg>
