<svg width="200" height="200" viewBox="0 0 200 200" fill="none" xmlns="http://www.w3.org/2000/svg">


<rect opacity="0.8" x="20" y="130" width="50" height="50" rx="25" fill="#6A00C2"/>
<path d="M96.122 88.703V109.411H135.367C131.526 125.276 118.834 135.296 101.8 135.296C80.925 135.296 64.726 119.264 64.726 98.055C64.726 77.013 80.424 60.981 100.464 60.981C112.655 60.981 125.681 64.822 133.864 80.52L154.238 73.339C146.222 50.627 124.011 39.605 100.464 39.605C67.565 39.605 41.68 65.323 41.68 98.055C41.68 130.954 67.732 156.505 101.132 156.505C134.198 156.505 157.912 131.622 157.912 98.389C157.912 95.717 157.745 92.544 157.411 88.703H96.122Z" class="hover-purple" fill="transparent"/>
<path d="M96.122 88.703V87.703H95.122V88.703H96.122ZM96.122 109.411H95.122V110.411H96.122V109.411ZM135.367 109.411L136.339 109.646L136.638 108.411H135.367V109.411ZM133.864 80.52L132.977 80.9822L133.378 81.7515L134.196 81.4631L133.864 80.52ZM154.238 73.339L154.57 74.2821L155.514 73.9496L155.181 73.0062L154.238 73.339ZM157.411 88.703L158.407 88.6164L158.328 87.703H157.411V88.703ZM95.122 88.703V109.411H97.122V88.703H95.122ZM96.122 110.411H135.367V108.411H96.122V110.411ZM134.395 109.176C130.665 124.581 118.384 134.296 101.8 134.296V136.296C119.284 136.296 132.387 125.971 136.339 109.646L134.395 109.176ZM101.8 134.296C81.4773 134.296 65.726 118.712 65.726 98.055H63.726C63.726 119.816 80.3727 136.296 101.8 136.296V134.296ZM65.726 98.055C65.726 77.5349 81.0062 61.981 100.464 61.981V59.981C79.8418 59.981 63.726 76.4911 63.726 98.055H65.726ZM100.464 61.981C106.46 61.981 112.596 62.9263 118.217 65.7569C123.823 68.5801 128.977 73.309 132.977 80.9822L134.751 80.0578C130.568 72.033 125.117 66.9924 119.117 63.9706C113.131 60.9562 106.659 59.981 100.464 59.981V61.981ZM134.196 81.4631L154.57 74.2821L153.906 72.3959L133.532 79.5769L134.196 81.4631ZM155.181 73.0062C146.981 49.7736 124.291 38.605 100.464 38.605V40.605C123.731 40.605 145.463 51.4804 153.295 73.6718L155.181 73.0062ZM100.464 38.605C67.0183 38.605 40.68 64.7651 40.68 98.055H42.68C42.68 65.8809 68.1117 40.605 100.464 40.605V38.605ZM40.68 98.055C40.68 131.523 67.1965 157.505 101.132 157.505V155.505C68.2675 155.505 42.68 130.385 42.68 98.055H40.68ZM101.132 157.505C134.779 157.505 158.912 132.145 158.912 98.389H156.912C156.912 131.099 133.617 155.505 101.132 155.505V157.505ZM158.912 98.389C158.912 95.6778 158.743 92.4737 158.407 88.6164L156.415 88.7896C156.747 92.6143 156.912 95.7562 156.912 98.389H158.912ZM157.411 87.703H96.122V89.703H157.411V87.703Z" fill="black"/>
</svg>
