<svg width="200" height="200" viewBox="0 0 200 200" fill="none" xmlns="http://www.w3.org/2000/svg">
<path d="M135 46L180 71.9808L180 20.0192L135 46Z" fill="#A049F8"/>
<path d="M51.446 43.11H74.158V88.534H127.598V43.11H150.31V155H127.598V109.075H74.158V155H51.446V43.11Z" fill="transparent" class="hover-purple"/>
<path d="M51.446 43.11H50.446V42.11H51.446V43.11ZM74.158 43.11V42.11H75.158V43.11H74.158ZM74.158 88.534V89.534H73.158V88.534H74.158ZM127.598 88.534H128.598V89.534H127.598V88.534ZM127.598 43.11H126.598V42.11H127.598V43.11ZM150.31 43.11V42.11H151.31V43.11H150.31ZM150.31 155H151.31V156H150.31V155ZM127.598 155V156H126.598V155H127.598ZM127.598 109.075V108.075H128.598V109.075H127.598ZM74.158 109.075H73.158V108.075H74.158V109.075ZM74.158 155H75.158V156H74.158V155ZM51.446 155V156H50.446V155H51.446ZM51.446 42.11H74.158V44.11H51.446V42.11ZM75.158 43.11V88.534H73.158V43.11H75.158ZM74.158 87.534H127.598V89.534H74.158V87.534ZM126.598 88.534V43.11H128.598V88.534H126.598ZM127.598 42.11H150.31V44.11H127.598V42.11ZM151.31 43.11V155H149.31V43.11H151.31ZM150.31 156H127.598V154H150.31V156ZM126.598 155V109.075H128.598V155H126.598ZM127.598 110.075H74.158V108.075H127.598V110.075ZM75.158 109.075V155H73.158V109.075H75.158ZM74.158 156H51.446V154H74.158V156ZM50.446 155V43.11H52.446V155H50.446Z" fill="black"/>
</svg>
