<svg width="200" height="200" viewBox="0 0 200 200" fill="none" xmlns="http://www.w3.org/2000/svg">


<rect x="56" y="20" width="45" height="45" fill="#6A00C2"/>
<path d="M110.402 155V43.11H87.69V155H110.402Z" class="hover-purple" fill="transparent"/>
<path d="M110.402 155V156H111.402V155H110.402ZM110.402 43.11H111.402V42.11H110.402V43.11ZM87.69 43.11V42.11H86.69V43.11H87.69ZM87.69 155H86.69V156H87.69V155ZM111.402 155V43.11H109.402V155H111.402ZM110.402 42.11H87.69V44.11H110.402V42.11ZM86.69 43.11V155H88.69V43.11H86.69ZM87.69 156H110.402V154H87.69V156Z" fill="black"/>
</svg>
