<svg width="200" height="200" viewBox="0 0 200 200" fill="none" xmlns="http://www.w3.org/2000/svg">


<rect opacity="0.8" x="125" y="20" width="50" height="50" rx="25" fill="#A049F8"/>
<path d="M138.844 42.11H116.132V114.421C116.132 126.779 107.782 136.131 95.424 136.131C82.732 136.131 75.551 127.28 74.048 115.59L52.505 119.932C56.012 141.475 71.376 156.505 95.424 156.505C121.476 156.505 138.844 138.803 138.844 114.421V42.11Z" class="hover-purple" fill="transparent"/>
<path d="M138.844 42.11H139.844V41.11H138.844V42.11ZM116.132 42.11V41.11H115.132V42.11H116.132ZM74.048 115.59L75.0398 115.462L74.9029 114.398L73.8504 114.61L74.048 115.59ZM52.505 119.932L52.3074 118.952L51.3632 119.142L51.518 120.093L52.505 119.932ZM138.844 41.11H116.132V43.11H138.844V41.11ZM115.132 42.11V114.421H117.132V42.11H115.132ZM115.132 114.421C115.132 126.291 107.168 135.131 95.424 135.131V137.131C108.396 137.131 117.132 127.267 117.132 114.421H115.132ZM95.424 135.131C89.3298 135.131 84.6262 133.015 81.2573 129.547C77.8724 126.064 75.7707 121.147 75.0398 115.462L73.0562 115.718C73.8283 121.723 76.0686 127.077 79.8229 130.941C83.5933 134.822 88.8262 137.131 95.424 137.131V135.131ZM73.8504 114.61L52.3074 118.952L52.7026 120.912L74.2456 116.57L73.8504 114.61ZM51.518 120.093C53.3029 131.057 58.1162 140.421 65.5987 147.046C73.0863 153.675 83.1829 157.505 95.424 157.505V155.505C83.6171 155.505 74.0077 151.82 66.9245 145.548C59.8363 139.273 55.2141 130.35 53.492 119.771L51.518 120.093ZM95.424 157.505C108.682 157.505 119.799 152.997 127.605 145.319C135.411 137.642 139.844 126.856 139.844 114.421H137.844C137.844 126.368 133.593 136.624 126.202 143.893C118.811 151.162 108.218 155.505 95.424 155.505V157.505ZM139.844 114.421V42.11H137.844V114.421H139.844Z" fill="black"/>
</svg>
