<svg width="200" height="200" viewBox="0 0 200 200" fill="none" xmlns="http://www.w3.org/2000/svg">


<path d="M65 134L20 159.981L20 108.019L65 134Z" fill="#6A00C2"/>
<path d="M156.226 155L101.283 99.222L152.719 43.11H124.663L81.243 89.703H77.402V43.11H54.69V155H77.402V110.244H83.08L125.665 155H156.226Z" class="hover-purple" fill="transparent"/>
<path d="M156.226 155V156H158.615L156.938 154.298L156.226 155ZM101.283 99.222L100.546 98.5463L99.9037 99.2468L100.571 99.9238L101.283 99.222ZM152.719 43.11L153.456 43.7857L154.992 42.11H152.719V43.11ZM124.663 43.11V42.11H124.228L123.931 42.4282L124.663 43.11ZM81.243 89.703V90.703H81.678L81.9746 90.3848L81.243 89.703ZM77.402 89.703H76.402V90.703H77.402V89.703ZM77.402 43.11H78.402V42.11H77.402V43.11ZM54.69 43.11V42.11H53.69V43.11H54.69ZM54.69 155H53.69V156H54.69V155ZM77.402 155V156H78.402V155H77.402ZM77.402 110.244V109.244H76.402V110.244H77.402ZM83.08 110.244L83.8045 109.555L83.5088 109.244H83.08V110.244ZM125.665 155L124.941 155.689L125.236 156H125.665V155ZM156.938 154.298L101.995 98.5202L100.571 99.9238L155.514 155.702L156.938 154.298ZM102.02 99.8977L153.456 43.7857L151.982 42.4343L100.546 98.5463L102.02 99.8977ZM152.719 42.11H124.663V44.11H152.719V42.11ZM123.931 42.4282L80.5114 89.0212L81.9746 90.3848L125.395 43.7918L123.931 42.4282ZM81.243 88.703H77.402V90.703H81.243V88.703ZM78.402 89.703V43.11H76.402V89.703H78.402ZM77.402 42.11H54.69V44.11H77.402V42.11ZM53.69 43.11V155H55.69V43.11H53.69ZM54.69 156H77.402V154H54.69V156ZM78.402 155V110.244H76.402V155H78.402ZM77.402 111.244H83.08V109.244H77.402V111.244ZM82.3555 110.933L124.941 155.689L126.389 154.311L83.8045 109.555L82.3555 110.933ZM125.665 156H156.226V154H125.665V156Z" fill="black"/>
</svg>
