<svg width="200" height="200" viewBox="0 0 200 200" fill="none" xmlns="http://www.w3.org/2000/svg">


<rect x="125" y="135" width="45" height="45" fill="#A049F8"/>
<path d="M142.184 133.459H84.402V42.11H61.69V154H142.184V133.459Z" class="hover-purple" fill="transparent"/>
<path d="M142.184 133.459H143.184V132.459H142.184V133.459ZM84.402 133.459H83.402V134.459H84.402V133.459ZM84.402 42.11H85.402V41.11H84.402V42.11ZM61.69 42.11V41.11H60.69V42.11H61.69ZM61.69 154H60.69V155H61.69V154ZM142.184 154V155H143.184V154H142.184ZM142.184 132.459H84.402V134.459H142.184V132.459ZM85.402 133.459V42.11H83.402V133.459H85.402ZM84.402 41.11H61.69V43.11H84.402V41.11ZM60.69 42.11V154H62.69V42.11H60.69ZM61.69 155H142.184V153H61.69V155ZM143.184 154V133.459H141.184V154H143.184Z" fill="black"/>
</svg>
