<svg width="151" height="216" viewBox="0 0 151 216" fill="none" xmlns="http://www.w3.org/2000/svg">
<rect opacity="0.8" x="71" y="23" width="80" height="80" rx="40" fill="#A049F8"/>
<path class="hover-purple" d="M51.5 45.25H142.5V14.5H17.5V182H51.5V117H132.75V86.25H51.5V45.25Z" fill="transparent"/>
<path d="M51.5 45.25V44.25H50.5V45.25H51.5ZM142.5 45.25V46.25H143.5V45.25H142.5ZM142.5 14.5H143.5V13.5H142.5V14.5ZM17.5 14.5V13.5H16.5V14.5H17.5ZM17.5 182H16.5V183H17.5V182ZM51.5 182V183H52.5V182H51.5ZM51.5 117V116H50.5V117H51.5ZM132.75 117V118H133.75V117H132.75ZM132.75 86.25H133.75V85.25H132.75V86.25ZM51.5 86.25H50.5V87.25H51.5V86.25ZM51.5 46.25H142.5V44.25H51.5V46.25ZM143.5 45.25V14.5H141.5V45.25H143.5ZM142.5 13.5H17.5V15.5H142.5V13.5ZM16.5 14.5V182H18.5V14.5H16.5ZM17.5 183H51.5V181H17.5V183ZM52.5 182V117H50.5V182H52.5ZM51.5 118H132.75V116H51.5V118ZM133.75 117V86.25H131.75V117H133.75ZM132.75 85.25H51.5V87.25H132.75V85.25ZM52.5 86.25V45.25H50.5V86.25H52.5Z" fill="black"/>
</svg>
