<svg width="206" height="216" viewBox="0 0 206 216" fill="none" xmlns="http://www.w3.org/2000/svg">
<rect opacity="0.8" y="82" width="80" height="80" rx="40" fill="#A049F8"/>
<path class="hover-purple" d="M113 154C98 154 85.25 148.75 74.75 138C64.25 127.5 59.25 114.25 59.25 98.25C59.25 82.5 64.25 69.25 74.75 58.75C85 48.25 97.75 42.75 113 42.75C125 42.75 135.5 46.25 144.5 53.25C153.5 60.25 159.5 70.75 162.5 84.5L195.5 75.25C191.25 55.5 181.5 39.75 166.5 28.25C151.25 16.75 133.5 10.75 113 10.75C88.25 10.75 67.5 19.25 50.5 36.25C33.5 53.25 25 73.75 25 98.25C25 123 33.5 143.75 50.5 160.5C67.5 177.5 88.25 185.75 113 185.75C133.5 185.75 151.5 180 166.75 168C181.75 156.25 191.5 139.75 195.5 118.75L162.5 112C159.5 126 153.5 136.5 144.75 143.5C135.75 150.5 125.25 154 113 154Z" fill="transparent"/>
<path d="M74.75 138L75.4654 137.301L75.4571 137.293L74.75 138ZM74.75 58.75L75.4572 59.4572L75.4656 59.4485L74.75 58.75ZM144.5 53.25L145.114 52.4606L145.114 52.4606L144.5 53.25ZM162.5 84.5L161.523 84.7132L161.749 85.749L162.77 85.4629L162.5 84.5ZM195.5 75.25L195.77 76.2129L196.675 75.959L196.478 75.0396L195.5 75.25ZM166.5 28.25L167.108 27.4564L167.102 27.4516L166.5 28.25ZM50.5 36.25L51.2071 36.9571L51.2071 36.9571L50.5 36.25ZM50.5 160.5L51.2071 159.793L51.2019 159.788L50.5 160.5ZM166.75 168L166.133 167.213L166.132 167.214L166.75 168ZM195.5 118.75L196.482 118.937L196.667 117.968L195.7 117.77L195.5 118.75ZM162.5 112L162.7 111.02L161.73 110.822L161.522 111.79L162.5 112ZM144.75 143.5L145.364 144.289L145.375 144.281L144.75 143.5ZM113 153C98.2638 153 85.7734 147.855 75.4654 137.301L74.0346 138.699C84.7266 149.645 97.7362 155 113 155V153ZM75.4571 137.293C65.1681 127.004 60.25 114.02 60.25 98.25H58.25C58.25 114.48 63.3319 127.996 74.0429 138.707L75.4571 137.293ZM60.25 98.25C60.25 82.7326 65.1665 69.7477 75.4571 59.4571L74.0429 58.0429C63.3335 68.7523 58.25 82.2674 58.25 98.25H60.25ZM75.4656 59.4485C85.5276 49.1411 98.0197 43.75 113 43.75V41.75C97.4803 41.75 84.4724 47.3589 74.0344 58.0515L75.4656 59.4485ZM113 43.75C124.79 43.75 135.071 47.1834 143.886 54.0393L145.114 52.4606C135.929 45.3166 125.21 41.75 113 41.75V43.75ZM143.886 54.0393C152.659 60.8624 158.56 71.1325 161.523 84.7132L163.477 84.2868C160.44 70.3675 154.342 59.6376 145.114 52.4606L143.886 54.0393ZM162.77 85.4629L195.77 76.2129L195.23 74.2871L162.23 83.5371L162.77 85.4629ZM196.478 75.0396C192.181 55.0732 182.309 39.1103 167.108 27.4564L165.892 29.0436C180.691 40.3897 190.319 55.9267 194.522 75.4604L196.478 75.0396ZM167.102 27.4516C151.674 15.817 133.711 9.74998 113 9.74998V11.75C133.289 11.75 150.826 17.683 165.898 29.0484L167.102 27.4516ZM113 9.74998C87.992 9.74998 66.9855 18.3503 49.7929 35.5429L51.2071 36.9571C68.0145 20.1497 88.508 11.75 113 11.75V9.74998ZM49.7929 35.5429C32.6035 52.7322 24 73.4874 24 98.25H26C26 74.0126 34.3965 53.7677 51.2071 36.9571L49.7929 35.5429ZM24 98.25C24 123.257 32.5996 144.267 49.7982 161.212L51.2019 159.788C34.4004 143.233 26 122.743 26 98.25H24ZM49.7929 161.207C66.9906 178.405 87.9996 186.75 113 186.75V184.75C88.5004 184.75 68.0094 176.595 51.2071 159.793L49.7929 161.207ZM113 186.75C133.7 186.75 151.924 180.939 167.368 168.786L166.132 167.214C151.076 179.061 133.3 184.75 113 184.75V186.75ZM167.367 168.787C182.576 156.873 192.442 140.15 196.482 118.937L194.518 118.563C190.558 139.35 180.924 155.627 166.133 167.213L167.367 168.787ZM195.7 117.77L162.7 111.02L162.3 112.98L195.3 119.73L195.7 117.77ZM161.522 111.79C158.558 125.622 152.655 135.896 144.125 142.719L145.375 144.281C154.345 137.104 160.442 126.378 163.478 112.21L161.522 111.79ZM144.136 142.711C135.323 149.565 125.043 153 113 153V155C125.457 155 136.177 151.435 145.364 144.289L144.136 142.711Z" fill="black"/>
</svg>
