<svg width="182" height="188" viewBox="0 0 182 188" fill="none" xmlns="http://www.w3.org/2000/svg">
<rect x="97" y="2" width="80" height="80" fill="#DADADA"/>
<path class="hover-purple" d="M17.5 7.5V175H79.25C134.5 175 171.25 141.25 171.25 91.25C171.25 41.25 134.5 7.5 79.25 7.5H17.5ZM51.5 144.25V38.25H79.25C114 38.25 137 58.75 137 91.25C137 123.75 114 144.25 79.25 144.25H51.5Z" fill="transparent"/>
<path d="M17.5 7.5V6.5H16.5V7.5H17.5ZM17.5 175H16.5V176H17.5V175ZM51.5 144.25H50.5V145.25H51.5V144.25ZM51.5 38.25V37.25H50.5V38.25H51.5ZM16.5 7.5V175H18.5V7.5H16.5ZM17.5 176H79.25V174H17.5V176ZM79.25 176C107.077 176 130.333 167.498 146.643 152.614C162.961 137.722 172.25 116.508 172.25 91.25H170.25C170.25 115.992 161.164 136.653 145.295 151.136C129.417 165.627 106.673 174 79.25 174V176ZM172.25 91.25C172.25 65.9922 162.961 44.7785 146.643 29.8864C130.333 15.0015 107.077 6.5 79.25 6.5V8.5C106.673 8.5 129.417 16.8735 145.295 31.3636C161.164 45.8465 170.25 66.5078 170.25 91.25H172.25ZM79.25 6.5H17.5V8.5H79.25V6.5ZM52.5 144.25V38.25H50.5V144.25H52.5ZM51.5 39.25H79.25V37.25H51.5V39.25ZM79.25 39.25C96.4315 39.25 110.611 44.316 120.483 53.302C130.345 62.2788 136 75.2484 136 91.25H138C138 74.7516 132.155 61.2212 121.829 51.823C111.514 42.434 96.8185 37.25 79.25 37.25V39.25ZM136 91.25C136 107.252 130.345 120.221 120.483 129.198C110.611 138.184 96.4315 143.25 79.25 143.25V145.25C96.8185 145.25 111.514 140.066 121.829 130.677C132.155 121.279 138 107.748 138 91.25H136ZM79.25 143.25H51.5V145.25H79.25V143.25Z" fill="black"/>
</svg>
