<svg width="181" height="216" viewBox="0 0 181 216" fill="none" xmlns="http://www.w3.org/2000/svg">
<rect opacity="0.8" x="12" y="43" width="80" height="80" rx="40" fill="#6A00C2"/>
<path class="hover-purple"  d="M178.75 182L106.25 14.5H74.5L2 182H38.75L53.5 146.25H127.5L142 182H178.75ZM114.75 115.5H66L90.5 55.75L114.75 115.5Z" fill="transparent"/>
<path d="M178.75 182V183H180.272L179.668 181.603L178.75 182ZM106.25 14.5L107.168 14.1028L106.907 13.5H106.25V14.5ZM74.5 14.5V13.5H73.8432L73.5823 14.1028L74.5 14.5ZM2 182L1.08228 181.603L0.47751 183H2V182ZM38.75 182V183H39.4192L39.6744 182.381L38.75 182ZM53.5 146.25V145.25H52.8308L52.5756 145.869L53.5 146.25ZM127.5 146.25L128.427 145.874L128.174 145.25H127.5V146.25ZM142 182L141.073 182.376L141.326 183H142V182ZM114.75 115.5V116.5H116.235L115.677 115.124L114.75 115.5ZM66 115.5L65.0748 115.121L64.5092 116.5H66V115.5ZM90.5 55.75L91.4266 55.3739L90.5047 53.1026L89.5748 55.3706L90.5 55.75ZM179.668 181.603L107.168 14.1028L105.332 14.8972L177.832 182.397L179.668 181.603ZM106.25 13.5H74.5V15.5H106.25V13.5ZM73.5823 14.1028L1.08228 181.603L2.91772 182.397L75.4177 14.8972L73.5823 14.1028ZM2 183H38.75V181H2V183ZM39.6744 182.381L54.4244 146.631L52.5756 145.869L37.8256 181.619L39.6744 182.381ZM53.5 147.25H127.5V145.25H53.5V147.25ZM126.573 146.626L141.073 182.376L142.927 181.624L128.427 145.874L126.573 146.626ZM142 183H178.75V181H142V183ZM114.75 114.5H66V116.5H114.75V114.5ZM66.9252 115.879L91.4252 56.1294L89.5748 55.3706L65.0748 115.121L66.9252 115.879ZM89.5734 56.1261L113.823 115.876L115.677 115.124L91.4266 55.3739L89.5734 56.1261Z" fill="black"/>
</svg>
