<svg width="167" height="216" viewBox="0 0 167 216" fill="none" xmlns="http://www.w3.org/2000/svg">
<rect opacity="0.8" width="80" height="80" fill="#00CCFF"/>
<path class="hover-purple" d="M127 102.5C137 100.75 151.5 89.25 151.5 68C151.5 40 132.25 21.5 102 21.5H19.5V189H102.25C139.5 189 156.25 169.75 156.25 142.5C156.25 118.75 140.75 105.25 127 103.5V102.5ZM53.5 50.5H98.25C109.25 50.5 118.5 58.25 118.5 70C118.5 83 109.5 91.5 96 91.5H53.5V50.5ZM53.5 160V118.5H99.75C112.5 118.5 121.5 126.5 121.5 139.25C121.5 151.75 113.75 160 98.5 160H53.5Z" fill="transparent"/>
<path d="M127 102.5L126.828 101.515L126 101.66V102.5H127ZM19.5 21.5V20.5H18.5V21.5H19.5ZM19.5 189H18.5V190H19.5V189ZM127 103.5H126V104.381L126.874 104.492L127 103.5ZM53.5 50.5V49.5H52.5V50.5H53.5ZM53.5 91.5H52.5V92.5H53.5V91.5ZM53.5 160H52.5V161H53.5V160ZM53.5 118.5V117.5H52.5V118.5H53.5ZM127.172 103.485C137.643 101.653 152.5 89.7435 152.5 68H150.5C150.5 88.7565 136.357 99.8474 126.828 101.515L127.172 103.485ZM152.5 68C152.5 53.7622 147.6 41.8614 138.781 33.5233C129.967 25.1903 117.329 20.5 102 20.5V22.5C116.921 22.5 129.033 27.0597 137.407 34.9766C145.775 42.8886 150.5 54.2377 150.5 68H152.5ZM102 20.5H19.5V22.5H102V20.5ZM18.5 21.5V189H20.5V21.5H18.5ZM19.5 190H102.25V188H19.5V190ZM102.25 190C121.039 190 134.815 185.144 143.9 176.701C152.993 168.25 157.25 156.332 157.25 142.5H155.25C155.25 155.918 151.132 167.25 142.538 175.236C133.935 183.231 120.711 188 102.25 188V190ZM157.25 142.5C157.25 118.276 141.404 104.325 127.126 102.508L126.874 104.492C140.096 106.175 155.25 119.224 155.25 142.5H157.25ZM128 103.5V102.5H126V103.5H128ZM53.5 51.5H98.25V49.5H53.5V51.5ZM98.25 51.5C108.774 51.5 117.5 58.8755 117.5 70H119.5C119.5 57.6245 109.726 49.5 98.25 49.5V51.5ZM117.5 70C117.5 76.2603 115.339 81.3618 111.623 84.9009C107.902 88.4444 102.539 90.5 96 90.5V92.5C102.961 92.5 108.848 90.3056 113.002 86.3491C117.161 82.3881 119.5 76.7396 119.5 70H117.5ZM96 90.5H53.5V92.5H96V90.5ZM54.5 91.5V50.5H52.5V91.5H54.5ZM54.5 160V118.5H52.5V160H54.5ZM53.5 119.5H99.75V117.5H53.5V119.5ZM99.75 119.5C105.917 119.5 111.095 121.432 114.723 124.824C118.344 128.209 120.5 133.122 120.5 139.25H122.5C122.5 132.628 120.156 127.166 116.089 123.363C112.03 119.568 106.333 117.5 99.75 117.5V119.5ZM120.5 139.25C120.5 145.29 118.633 150.19 115.033 153.585C111.426 156.987 105.95 159 98.5 159V161C106.3 161 112.324 158.888 116.405 155.04C120.492 151.185 122.5 145.71 122.5 139.25H120.5ZM98.5 159H53.5V161H98.5V159Z" fill="black"/>
</svg>
