<svg width="159" height="216" viewBox="0 0 159 216" fill="none" xmlns="http://www.w3.org/2000/svg">
<rect x="2" y="83" width="80" height="80" fill="#6A00C2"/>
<path class="hover-purple" d="M144.75 151.25H51.5V113.25H137V83H51.5V45.25H144.25V14.5H17.5V182H144.75V151.25Z" fill="transparent"/>
<path d="M144.75 151.25H145.75V150.25H144.75V151.25ZM51.5 151.25H50.5V152.25H51.5V151.25ZM51.5 113.25V112.25H50.5V113.25H51.5ZM137 113.25V114.25H138V113.25H137ZM137 83H138V82H137V83ZM51.5 83H50.5V84H51.5V83ZM51.5 45.25V44.25H50.5V45.25H51.5ZM144.25 45.25V46.25H145.25V45.25H144.25ZM144.25 14.5H145.25V13.5H144.25V14.5ZM17.5 14.5V13.5H16.5V14.5H17.5ZM17.5 182H16.5V183H17.5V182ZM144.75 182V183H145.75V182H144.75ZM144.75 150.25H51.5V152.25H144.75V150.25ZM52.5 151.25V113.25H50.5V151.25H52.5ZM51.5 114.25H137V112.25H51.5V114.25ZM138 113.25V83H136V113.25H138ZM137 82H51.5V84H137V82ZM52.5 83V45.25H50.5V83H52.5ZM51.5 46.25H144.25V44.25H51.5V46.25ZM145.25 45.25V14.5H143.25V45.25H145.25ZM144.25 13.5H17.5V15.5H144.25V13.5ZM16.5 14.5V182H18.5V14.5H16.5ZM17.5 183H144.75V181H17.5V183ZM145.75 182V151.25H143.75V182H145.75Z" fill="black"/>
</svg>
