<svg width="200" height="200" viewBox="0 0 200 200" fill="none" xmlns="http://www.w3.org/2000/svg">


<rect opacity="0.8" x="20" y="20" width="50" height="50" rx="25" fill="#6A00C2"/>
<path d="M162.272 42.11H142.566L99.981 119.431L57.563 42.11H37.69V154H59.734V89.705L94.971 154H105.158L140.228 89.705V154H162.272V42.11Z" class="hover-purple" fill="transparent"/>
<path d="M162.272 42.11H163.272V41.11H162.272V42.11ZM142.566 42.11V41.11H141.975L141.69 41.6276L142.566 42.11ZM99.981 119.431L99.1043 119.912L99.9793 121.507L100.857 119.913L99.981 119.431ZM57.563 42.11L58.4397 41.629L58.155 41.11H57.563V42.11ZM37.69 42.11V41.11H36.69V42.11H37.69ZM37.69 154H36.69V155H37.69V154ZM59.734 154V155H60.734V154H59.734ZM59.734 89.705L60.6109 89.2244L58.734 89.705H59.734ZM94.971 154L94.0941 154.481L94.3787 155H94.971V154ZM105.158 154V155H105.752L106.036 154.479L105.158 154ZM140.228 89.705H141.228L139.35 89.2261L140.228 89.705ZM140.228 154H139.228V155H140.228V154ZM162.272 154V155H163.272V154H162.272ZM162.272 41.11H142.566V43.11H162.272V41.11ZM141.69 41.6276L99.1051 118.949L100.857 119.913L143.442 42.5924L141.69 41.6276ZM100.858 118.95L58.4397 41.629L56.6863 42.591L99.1043 119.912L100.858 118.95ZM57.563 41.11H37.69V43.11H57.563V41.11ZM36.69 42.11V154H38.69V42.11H36.69ZM37.69 155H59.734V153H37.69V155ZM60.734 154V89.705H58.734V154H60.734ZM58.8571 90.1856L94.0941 154.481L95.8479 153.519L60.6109 89.2244L58.8571 90.1856ZM94.971 155H105.158V153H94.971V155ZM106.036 154.479L141.106 90.1838L139.35 89.2261L104.28 153.521L106.036 154.479ZM139.228 89.705V154H141.228V89.705H139.228ZM140.228 155H162.272V153H140.228V155ZM163.272 154V42.11H161.272V154H163.272Z" fill="black"/>
</svg>
