<svg width="200" height="200" viewBox="0 0 200 200" fill="none" xmlns="http://www.w3.org/2000/svg">


<path d="M135 70L180 44.0192L180 95.9808L135 70Z" fill="#A049F8"/>
<path d="M151.397 42.11H128.685V115.924L66.728 42.11H47.69V154H70.402V82.19L132.359 154H151.397V42.11Z" class="hover-purple" fill="transparent"/>
<path d="M151.397 42.11H152.397V41.11H151.397V42.11ZM128.685 42.11V41.11H127.685V42.11H128.685ZM128.685 115.924L127.919 116.567L129.685 118.671V115.924H128.685ZM66.728 42.11L67.4939 41.4671L67.1942 41.11H66.728V42.11ZM47.69 42.11V41.11H46.69V42.11H47.69ZM47.69 154H46.69V155H47.69V154ZM70.402 154V155H71.402V154H70.402ZM70.402 82.19L71.1591 81.5367L69.402 79.5002V82.19H70.402ZM132.359 154L131.602 154.653L131.901 155H132.359V154ZM151.397 154V155H152.397V154H151.397ZM151.397 41.11H128.685V43.11H151.397V41.11ZM127.685 42.11V115.924H129.685V42.11H127.685ZM129.451 115.281L67.4939 41.4671L65.9621 42.7529L127.919 116.567L129.451 115.281ZM66.728 41.11H47.69V43.11H66.728V41.11ZM46.69 42.11V154H48.69V42.11H46.69ZM47.69 155H70.402V153H47.69V155ZM71.402 154V82.19H69.402V154H71.402ZM69.6449 82.8433L131.602 154.653L133.116 153.347L71.1591 81.5367L69.6449 82.8433ZM132.359 155H151.397V153H132.359V155ZM152.397 154V42.11H150.397V154H152.397Z" fill="black"/>
</svg>
