<svg width="200" height="200" viewBox="0 0 200 200" fill="none" xmlns="http://www.w3.org/2000/svg">


<rect x="125" y="135" width="45" height="45" fill="#6A00C2"/>
<path d="M99.631 39.605C66.565 39.605 40.68 65.657 40.68 98.222C40.68 130.787 66.565 156.505 99.631 156.505C132.697 156.505 158.582 130.787 158.582 98.222C158.582 65.657 132.697 39.605 99.631 39.605ZM99.631 135.129C79.424 135.129 63.559 119.598 63.559 98.222C63.559 76.846 79.424 60.981 99.631 60.981C119.838 60.981 135.703 76.846 135.703 98.222C135.703 119.598 119.838 135.129 99.631 135.129Z" class="hover-purple" fill="transparent"/>
<path d="M99.631 38.605C66.0146 38.605 39.68 65.1029 39.68 98.222H41.68C41.68 66.2111 67.1154 40.605 99.631 40.605V38.605ZM39.68 98.222C39.68 131.349 66.0221 157.505 99.631 157.505V155.505C67.1079 155.505 41.68 130.225 41.68 98.222H39.68ZM99.631 157.505C133.24 157.505 159.582 131.349 159.582 98.222H157.582C157.582 130.225 132.154 155.505 99.631 155.505V157.505ZM159.582 98.222C159.582 65.1029 133.247 38.605 99.631 38.605V40.605C132.147 40.605 157.582 66.2111 157.582 98.222H159.582ZM99.631 134.129C79.9853 134.129 64.559 119.055 64.559 98.222H62.559C62.559 120.141 78.8627 136.129 99.631 136.129V134.129ZM64.559 98.222C64.559 77.3772 79.9972 61.981 99.631 61.981V59.981C78.8509 59.981 62.559 76.3148 62.559 98.222H64.559ZM99.631 61.981C119.265 61.981 134.703 77.3772 134.703 98.222H136.703C136.703 76.3148 120.411 59.981 99.631 59.981V61.981ZM134.703 98.222C134.703 119.055 119.277 134.129 99.631 134.129V136.129C120.399 136.129 136.703 120.141 136.703 98.222H134.703Z" fill="black"/>
</svg>
