<svg width="200" height="200" viewBox="0 0 200 200" fill="none" xmlns="http://www.w3.org/2000/svg">


<rect opacity="0.8" x="20" y="130" width="50" height="50" rx="25" fill="#A049F8"/>
<path d="M55.69 42.11V154H78.402V117.427H107.794C133.512 117.427 149.21 102.397 149.21 79.685C149.21 57.307 133.512 42.11 107.794 42.11H55.69ZM78.402 96.886V62.651H107.794C119.985 62.651 126.665 69.665 126.665 79.685C126.665 90.039 119.985 96.886 107.794 96.886H78.402Z" class="hover-purple" fill="transparent"/>
<path d="M55.69 42.11V41.11H54.69V42.11H55.69ZM55.69 154H54.69V155H55.69V154ZM78.402 154V155H79.402V154H78.402ZM78.402 117.427V116.427H77.402V117.427H78.402ZM78.402 96.886H77.402V97.886H78.402V96.886ZM78.402 62.651V61.651H77.402V62.651H78.402ZM54.69 42.11V154H56.69V42.11H54.69ZM55.69 155H78.402V153H55.69V155ZM79.402 154V117.427H77.402V154H79.402ZM78.402 118.427H107.794V116.427H78.402V118.427ZM107.794 118.427C120.846 118.427 131.462 114.611 138.825 107.807C146.196 100.997 150.21 91.2811 150.21 79.685H148.21C148.21 90.8009 144.375 99.9561 137.468 106.339C130.552 112.728 120.46 116.427 107.794 116.427V118.427ZM150.21 79.685C150.21 68.2522 146.193 58.5797 138.825 51.7713C131.463 44.9694 120.848 41.11 107.794 41.11V43.11C120.458 43.11 130.551 46.849 137.468 53.2402C144.378 59.6248 148.21 68.7398 148.21 79.685H150.21ZM107.794 41.11H55.69V43.11H107.794V41.11ZM79.402 96.886V62.651H77.402V96.886H79.402ZM78.402 63.651H107.794V61.651H78.402V63.651ZM107.794 63.651C113.699 63.651 118.15 65.3471 121.116 68.1387C124.077 70.9255 125.665 74.9033 125.665 79.685H127.665C127.665 74.4467 125.913 69.9075 122.486 66.6823C119.065 63.4619 114.08 61.651 107.794 61.651V63.651ZM125.665 79.685C125.665 84.6417 124.072 88.6579 121.116 91.44C118.153 94.2282 113.706 95.886 107.794 95.886V97.886C114.073 97.886 119.061 96.1203 122.486 92.8964C125.918 89.6666 127.665 85.0823 127.665 79.685H125.665ZM107.794 95.886H78.402V97.886H107.794V95.886Z" fill="black"/>
</svg>
