<svg width="200" height="200" viewBox="0 0 200 200" fill="none" xmlns="http://www.w3.org/2000/svg">


<path d="M154 20L179.981 65H128.019L154 20Z" fill="#6A00C2"/>
<path d="M158.582 98.222C158.582 65.657 132.697 39.605 99.631 39.605C66.565 39.605 40.68 65.657 40.68 98.222C40.68 130.787 66.565 156.505 99.631 156.505C105.81 156.505 111.822 155.67 117.5 153.833L141.047 181.388L158.582 165.356L138.876 141.976C151.067 131.455 158.582 115.757 158.582 98.222ZM63.559 98.222C63.559 76.846 79.424 60.981 99.631 60.981C119.838 60.981 135.703 76.846 135.703 98.222C135.703 119.598 119.838 135.129 99.631 135.129C79.424 135.129 63.559 119.598 63.559 98.222Z" class="hover-purple" fill="transparent"/>
<path d="M117.5 153.833L118.26 153.183L117.827 152.676L117.192 152.882L117.5 153.833ZM141.047 181.388L140.287 182.038L140.959 182.824L141.722 182.126L141.047 181.388ZM158.582 165.356L159.257 166.094L159.966 165.446L159.347 164.712L158.582 165.356ZM138.876 141.976L138.223 141.219L137.474 141.865L138.111 142.62L138.876 141.976ZM159.582 98.222C159.582 65.1029 133.247 38.605 99.631 38.605V40.605C132.147 40.605 157.582 66.2111 157.582 98.222H159.582ZM99.631 38.605C66.0146 38.605 39.68 65.1029 39.68 98.222H41.68C41.68 66.2111 67.1154 40.605 99.631 40.605V38.605ZM39.68 98.222C39.68 131.349 66.0221 157.505 99.631 157.505V155.505C67.1079 155.505 41.68 130.225 41.68 98.222H39.68ZM99.631 157.505C105.9 157.505 112.017 156.658 117.808 154.784L117.192 152.882C111.627 154.682 105.72 155.505 99.631 155.505V157.505ZM116.74 154.483L140.287 182.038L141.807 180.738L118.26 153.183L116.74 154.483ZM141.722 182.126L159.257 166.094L157.907 164.618L140.372 180.65L141.722 182.126ZM159.347 164.712L139.641 141.332L138.111 142.62L157.817 166L159.347 164.712ZM139.529 142.733C151.94 132.022 159.582 116.048 159.582 98.222H157.582C157.582 115.466 150.194 130.888 138.223 141.219L139.529 142.733ZM64.559 98.222C64.559 77.3772 79.9972 61.981 99.631 61.981V59.981C78.8509 59.981 62.559 76.3148 62.559 98.222H64.559ZM99.631 61.981C119.265 61.981 134.703 77.3772 134.703 98.222H136.703C136.703 76.3148 120.411 59.981 99.631 59.981V61.981ZM134.703 98.222C134.703 119.055 119.277 134.129 99.631 134.129V136.129C120.399 136.129 136.703 120.141 136.703 98.222H134.703ZM99.631 134.129C79.9853 134.129 64.559 119.055 64.559 98.222H62.559C62.559 120.141 78.8627 136.129 99.631 136.129V134.129Z" fill="black"/>
</svg>
