<svg width="200" height="200" viewBox="0 0 200 200" fill="none" xmlns="http://www.w3.org/2000/svg">


<rect x="20" y="20" width="45" height="45" fill="#A049F8"/>
<path d="M154.888 154L117.313 112.417C136.852 109.578 149.377 96.218 149.377 77.514C149.377 56.305 133.345 42.11 109.297 42.11H55.69V154H78.402V112.918H90.259L127.166 154H154.888ZM78.402 92.377V62.651H109.297C119.818 62.651 126.832 68.663 126.832 77.514C126.832 86.365 119.818 92.377 109.297 92.377H78.402Z" class="hover-purple" fill="transparent"/>
<path d="M154.888 154V155H157.139L155.63 153.33L154.888 154ZM117.313 112.417L117.169 111.427L115.315 111.697L116.571 113.087L117.313 112.417ZM55.69 42.11V41.11H54.69V42.11H55.69ZM55.69 154H54.69V155H55.69V154ZM78.402 154V155H79.402V154H78.402ZM78.402 112.918V111.918H77.402V112.918H78.402ZM90.259 112.918L91.0029 112.25L90.7049 111.918H90.259V112.918ZM127.166 154L126.422 154.668L126.72 155H127.166V154ZM78.402 92.377H77.402V93.377H78.402V92.377ZM78.402 62.651V61.651H77.402V62.651H78.402ZM155.63 153.33L118.055 111.747L116.571 113.087L154.146 154.67L155.63 153.33ZM117.457 113.407C127.418 111.959 135.655 107.819 141.407 101.593C147.163 95.3628 150.377 87.0992 150.377 77.514H148.377C148.377 86.6328 145.328 94.4012 139.938 100.236C134.542 106.076 126.747 110.036 117.169 111.427L117.457 113.407ZM150.377 77.514C150.377 66.6417 146.26 57.5112 139.017 51.1094C131.786 44.7173 121.514 41.11 109.297 41.11V43.11C121.128 43.11 130.896 46.6002 137.693 52.6079C144.478 58.6058 148.377 67.1773 148.377 77.514H150.377ZM109.297 41.11H55.69V43.11H109.297V41.11ZM54.69 42.11V154H56.69V42.11H54.69ZM55.69 155H78.402V153H55.69V155ZM79.402 154V112.918H77.402V154H79.402ZM78.402 113.918H90.259V111.918H78.402V113.918ZM89.5151 113.586L126.422 154.668L127.91 153.332L91.0029 112.25L89.5151 113.586ZM127.166 155H154.888V153H127.166V155ZM79.402 92.377V62.651H77.402V92.377H79.402ZM78.402 63.651H109.297V61.651H78.402V63.651ZM109.297 63.651C114.372 63.651 118.51 65.1002 121.362 67.5252C124.2 69.9385 125.832 73.3723 125.832 77.514H127.832C127.832 72.8047 125.957 68.807 122.658 66.0016C119.372 63.2078 114.743 61.651 109.297 61.651V63.651ZM125.832 77.514C125.832 81.6557 124.2 85.0895 121.362 87.5028C118.51 89.9278 114.372 91.377 109.297 91.377V93.377C114.743 93.377 119.372 91.8202 122.658 89.0264C125.957 86.221 127.832 82.2233 127.832 77.514H125.832ZM109.297 91.377H78.402V93.377H109.297V91.377Z" fill="black"/>
</svg>
