<svg width="200" height="200" viewBox="0 0 200 200" fill="none" xmlns="http://www.w3.org/2000/svg">


<rect opacity="0.8" x="120" y="130" width="50" height="50" rx="25" fill="#6A00C2"/>
<path d="M99.772 39.605C73.553 39.605 57.187 53.633 57.187 73.673C57.187 95.55 73.219 102.898 86.579 105.737L110.293 110.246C120.313 112.25 123.319 116.091 123.319 122.437C123.319 130.453 116.472 136.632 103.446 136.632C90.754 136.632 81.402 131.121 78.396 118.429L54.515 123.272C57.354 145.65 77.895 156.505 101.275 156.505C127.828 156.505 145.697 142.978 145.697 121.268C145.697 103.9 134.508 93.045 116.305 89.204L92.257 84.361C83.573 82.691 81.068 78.683 81.068 73.005C81.068 65.49 87.915 59.144 99.271 59.144C110.46 59.144 119.645 65.991 121.315 76.512L144.027 71.836C139.685 51.963 122.484 39.605 99.772 39.605Z" class="hover-purple" fill="transparent"/>
<path d="M86.579 105.737L86.3711 106.715L86.3817 106.717L86.3922 106.719L86.579 105.737ZM110.293 110.246L110.489 109.265L110.48 109.264L110.293 110.246ZM78.396 118.429L79.3691 118.199L79.146 117.257L78.1973 117.449L78.396 118.429ZM54.515 123.272L54.3162 122.292L53.4061 122.477L53.523 123.398L54.515 123.272ZM116.305 89.204L116.511 88.2255L116.502 88.2237L116.305 89.204ZM92.257 84.361L92.4544 83.3806L92.4459 83.379L92.257 84.361ZM121.315 76.512L120.327 76.6688L120.491 77.7025L121.517 77.4915L121.315 76.512ZM144.027 71.836L144.229 72.8155L145.22 72.6114L145.004 71.6225L144.027 71.836ZM99.772 38.605C86.4917 38.605 75.6039 42.1578 68.0152 48.3492C60.4095 54.5544 56.187 63.3579 56.187 73.673H58.187C58.187 63.9481 62.1475 55.7176 69.2795 49.8988C76.4286 44.0661 86.8333 40.605 99.772 40.605V38.605ZM56.187 73.673C56.187 84.8928 60.3144 92.4776 66.2176 97.5996C72.0802 102.686 79.619 105.28 86.3711 106.715L86.7869 104.759C80.179 103.355 73.0218 100.855 67.5284 96.0889C62.0756 91.3579 58.187 84.3302 58.187 73.673H56.187ZM86.3922 106.719L110.106 111.228L110.48 109.264L86.7658 104.755L86.3922 106.719ZM110.097 111.227C115.034 112.214 118.059 113.623 119.856 115.42C121.613 117.177 122.319 119.43 122.319 122.437H124.319C124.319 119.098 123.522 116.258 121.271 114.006C119.06 111.795 115.572 110.282 110.489 109.265L110.097 111.227ZM122.319 122.437C122.319 126.133 120.753 129.387 117.661 131.745C114.545 134.121 109.813 135.632 103.446 135.632V137.632C110.105 137.632 115.309 136.054 118.874 133.336C122.461 130.6 124.319 126.757 124.319 122.437H122.319ZM103.446 135.632C97.2375 135.632 91.943 134.284 87.8563 131.467C83.7862 128.661 80.8228 124.336 79.3691 118.199L77.4229 118.659C78.9752 125.214 82.1908 129.99 86.7212 133.113C91.235 136.225 96.9625 137.632 103.446 137.632V135.632ZM78.1973 117.449L54.3162 122.292L54.7138 124.252L78.5948 119.409L78.1973 117.449ZM53.523 123.398C54.982 134.899 61.0054 143.458 69.6441 149.117C78.2585 154.76 89.4427 157.505 101.275 157.505V155.505C89.7273 155.505 78.951 152.823 70.7401 147.444C62.5536 142.081 56.887 134.023 55.507 123.146L53.523 123.398ZM101.275 157.505C114.71 157.505 126.052 154.084 134.06 147.815C142.092 141.528 146.697 132.426 146.697 121.268H144.697C144.697 131.82 140.368 140.337 132.827 146.24C125.262 152.163 114.393 155.505 101.275 155.505V157.505ZM146.697 121.268C146.697 112.353 143.818 105.044 138.554 99.4763C133.304 93.9243 125.751 90.1753 116.511 88.2255L116.099 90.1825C125.062 92.0737 132.205 95.6727 137.101 100.85C141.982 106.013 144.697 112.815 144.697 121.268H146.697ZM116.502 88.2237L92.4544 83.3807L92.0596 85.3413L116.108 90.1843L116.502 88.2237ZM92.4459 83.379C88.215 82.5654 85.6605 81.2125 84.1525 79.5206C82.6601 77.8462 82.068 75.6985 82.068 73.005H80.068C80.068 75.9895 80.7284 78.6848 82.6595 80.8514C84.5751 83.0005 87.615 84.4866 92.0682 85.343L92.4459 83.379ZM82.068 73.005C82.068 66.2322 88.2559 60.144 99.271 60.144V58.144C87.5741 58.144 80.068 64.7478 80.068 73.005H82.068ZM99.271 60.144C110.053 60.144 118.747 66.7128 120.327 76.6688L122.303 76.3552C120.543 65.2692 110.867 58.144 99.271 58.144V60.144ZM121.517 77.4915L144.229 72.8155L143.825 70.8565L121.113 75.5325L121.517 77.4915ZM145.004 71.6225C140.544 51.2091 122.866 38.605 99.772 38.605V40.605C122.103 40.605 138.826 52.7169 143.05 72.0494L145.004 71.6225Z" fill="black"/>
</svg>
