<svg width="200" height="200" viewBox="0 0 200 200" fill="none" xmlns="http://www.w3.org/2000/svg">


<path d="M154 30L179.981 75H128.019L154 30Z" fill="#A049F8"/>
<path d="M148.534 62.651V42.11H51.34V62.651H88.581V154H111.293V62.651H148.534Z" class="hover-purple" fill="transparent"/>
<path d="M148.534 62.651V63.651H149.534V62.651H148.534ZM148.534 42.11H149.534V41.11H148.534V42.11ZM51.34 42.11V41.11H50.34V42.11H51.34ZM51.34 62.651H50.34V63.651H51.34V62.651ZM88.581 62.651H89.581V61.651H88.581V62.651ZM88.581 154H87.581V155H88.581V154ZM111.293 154V155H112.293V154H111.293ZM111.293 62.651V61.651H110.293V62.651H111.293ZM149.534 62.651V42.11H147.534V62.651H149.534ZM148.534 41.11H51.34V43.11H148.534V41.11ZM50.34 42.11V62.651H52.34V42.11H50.34ZM51.34 63.651H88.581V61.651H51.34V63.651ZM87.581 62.651V154H89.581V62.651H87.581ZM88.581 155H111.293V153H88.581V155ZM112.293 154V62.651H110.293V154H112.293ZM111.293 63.651H148.534V61.651H111.293V63.651Z" fill="black"/>
</svg>
