<svg width="200" height="200" viewBox="0 0 200 200" fill="none" xmlns="http://www.w3.org/2000/svg">


<rect x="25" y="135" width="45" height="45" fill="#6A00C2"/>
<path d="M148.049 42.11H125.337V103.9C125.337 122.604 115.15 134.795 99.953 134.795C83.921 134.795 73.4 122.604 73.4 103.9V42.11H50.688V103.9C50.688 135.296 70.394 156.505 99.953 156.505C128.844 156.505 148.049 135.296 148.049 103.9V42.11Z" class="hover-purple" fill="transparent"/>
<path d="M148.049 42.11H149.049V41.11H148.049V42.11ZM125.337 42.11V41.11H124.337V42.11H125.337ZM73.4 42.11H74.4V41.11H73.4V42.11ZM50.688 42.11V41.11H49.688V42.11H50.688ZM148.049 41.11H125.337V43.11H148.049V41.11ZM124.337 42.11V103.9H126.337V42.11H124.337ZM124.337 103.9C124.337 113.078 121.838 120.559 117.573 125.725C113.322 130.874 107.262 133.795 99.953 133.795V135.795C107.841 135.795 114.473 132.621 119.115 126.998C123.743 121.393 126.337 113.426 126.337 103.9H124.337ZM99.953 133.795C92.2085 133.795 85.8543 130.86 81.4225 125.709C76.9782 120.544 74.4 113.07 74.4 103.9H72.4C72.4 113.434 75.0823 121.407 79.9065 127.014C84.7432 132.635 91.6655 135.795 99.953 135.795V133.795ZM74.4 103.9V42.11H72.4V103.9H74.4ZM73.4 41.11H50.688V43.11H73.4V41.11ZM49.688 42.11V103.9H51.688V42.11H49.688ZM49.688 103.9C49.688 119.807 54.6829 133.217 63.5052 142.659C72.3333 152.107 84.9234 157.505 99.953 157.505V155.505C85.4236 155.505 73.3812 150.299 64.9665 141.293C56.5461 132.282 51.688 119.389 51.688 103.9H49.688ZM99.953 157.505C114.656 157.505 126.957 152.101 135.574 142.65C144.184 133.207 149.049 119.8 149.049 103.9H147.049C147.049 119.396 142.312 132.292 134.096 141.302C125.888 150.304 114.141 155.505 99.953 155.505V157.505ZM149.049 103.9V42.11H147.049V103.9H149.049Z" fill="black"/>
</svg>
