<svg width="200" height="200" viewBox="0 0 200 200" fill="none" xmlns="http://www.w3.org/2000/svg">


<rect opacity="0.8" x="20" y="20" width="50" height="50" rx="25" fill="#A049F8"/>
<path d="M159.073 42.11H134.023L99.788 123.606L65.72 42.11H40.67L88.933 154H110.81L159.073 42.11Z" class="hover-purple" fill="transparent"/>
<path d="M159.073 42.11L159.991 42.5061L160.593 41.11H159.073V42.11ZM134.023 42.11V41.11H133.358L133.101 41.7227L134.023 42.11ZM99.788 123.606L98.8654 123.992L99.7857 126.193L100.71 123.993L99.788 123.606ZM65.72 42.11L66.6426 41.7243L66.3858 41.11H65.72V42.11ZM40.67 42.11V41.11H39.1496L39.7518 42.5061L40.67 42.11ZM88.933 154L88.0148 154.396L88.2753 155H88.933V154ZM110.81 154V155H111.468L111.728 154.396L110.81 154ZM159.073 41.11H134.023V43.11H159.073V41.11ZM133.101 41.7227L98.866 123.219L100.71 123.993L134.945 42.4973L133.101 41.7227ZM100.711 123.22L66.6426 41.7243L64.7974 42.4957L98.8654 123.992L100.711 123.22ZM65.72 41.11H40.67V43.11H65.72V41.11ZM39.7518 42.5061L88.0148 154.396L89.8512 153.604L41.5882 41.7139L39.7518 42.5061ZM88.933 155H110.81V153H88.933V155ZM111.728 154.396L159.991 42.5061L158.155 41.7139L109.892 153.604L111.728 154.396Z" fill="black"/>
</svg>
