<svg width="200" height="200" viewBox="0 0 200 200" fill="none" xmlns="http://www.w3.org/2000/svg">


<path d="M144 20L169.981 65H118.019L144 20Z" fill="#6A00C2"/>
<path d="M178.984 42.11H155.103L133.727 119.264L111.182 42.11H89.305L66.76 119.264L45.384 42.11H21.67L54.235 154H78.45L100.327 78.516L122.037 154H146.419L178.984 42.11Z" class="hover-purple" fill="transparent"/>
<path d="M178.984 42.11L179.944 42.3894L180.317 41.11H178.984V42.11ZM155.103 42.11V41.11H154.342L154.139 41.843L155.103 42.11ZM133.727 119.264L132.767 119.544L133.753 122.917L134.691 119.531L133.727 119.264ZM111.182 42.11L112.142 41.8295L111.932 41.11H111.182V42.11ZM89.305 42.11V41.11H88.5554L88.3451 41.8295L89.305 42.11ZM66.76 119.264L65.7963 119.531L66.7344 122.917L67.7199 119.544L66.76 119.264ZM45.384 42.11L46.3477 41.843L46.1446 41.11H45.384V42.11ZM21.67 42.11V41.11H20.3375L20.7098 42.3894L21.67 42.11ZM54.235 154L53.2748 154.279L53.4846 155H54.235V154ZM78.45 154V155H79.2013L79.4105 154.278L78.45 154ZM100.327 78.516L101.288 78.2396L100.331 74.9109L99.3665 78.2376L100.327 78.516ZM122.037 154L121.076 154.276L121.284 155H122.037V154ZM146.419 154V155H147.169L147.379 154.279L146.419 154ZM178.984 41.11H155.103V43.11H178.984V41.11ZM154.139 41.843L132.763 118.997L134.691 119.531L156.067 42.377L154.139 41.843ZM134.687 118.984L112.142 41.8295L110.222 42.3905L132.767 119.544L134.687 118.984ZM111.182 41.11H89.305V43.11H111.182V41.11ZM88.3451 41.8295L65.8001 118.984L67.7199 119.544L90.2649 42.3905L88.3451 41.8295ZM67.7237 118.997L46.3477 41.843L44.4203 42.377L65.7963 119.531L67.7237 118.997ZM45.384 41.11H21.67V43.11H45.384V41.11ZM20.7098 42.3894L53.2748 154.279L55.1952 153.721L22.6302 41.8305L20.7098 42.3894ZM54.235 155H78.45V153H54.235V155ZM79.4105 154.278L101.287 78.7944L99.3665 78.2376L77.4895 153.722L79.4105 154.278ZM99.366 78.7924L121.076 154.276L122.998 153.724L101.288 78.2396L99.366 78.7924ZM122.037 155H146.419V153H122.037V155ZM147.379 154.279L179.944 42.3894L178.024 41.8305L145.459 153.721L147.379 154.279Z" fill="black"/>
</svg>
