<svg width="200" height="200" viewBox="0 0 200 200" fill="none" xmlns="http://www.w3.org/2000/svg">


<rect x="125" y="135" width="45" height="45" fill="#A049F8"/>
<path d="M117.478 97.888L153.884 42.11H126.329L100.277 82.691L74.225 42.11H46.67L82.909 97.888L46.67 154H74.392L100.277 113.085L126.162 154H153.884L117.478 97.888Z" class="hover-purple" fill="transparent"/>
<path d="M117.478 97.888L116.641 97.3414L116.285 97.8864L116.639 98.4323L117.478 97.888ZM153.884 42.11L154.721 42.6566L155.731 41.11H153.884V42.11ZM126.329 42.11V41.11H125.783L125.487 41.5698L126.329 42.11ZM100.277 82.691L99.4355 83.2312L100.277 84.5421L101.119 83.2312L100.277 82.691ZM74.225 42.11L75.0665 41.5698L74.7714 41.11H74.225V42.11ZM46.67 42.11V41.11H44.8278L45.8314 42.6548L46.67 42.11ZM82.909 97.888L83.749 98.4305L84.1005 97.8864L83.7476 97.3432L82.909 97.888ZM46.67 154L45.83 153.457L44.8337 155H46.67V154ZM74.392 154V155H74.9427L75.2371 154.535L74.392 154ZM100.277 113.085L101.122 112.55L100.277 111.215L99.4319 112.55L100.277 113.085ZM126.162 154L125.317 154.535L125.611 155H126.162V154ZM153.884 154V155H155.725L154.723 153.456L153.884 154ZM118.315 98.4346L154.721 42.6566L153.047 41.5634L116.641 97.3414L118.315 98.4346ZM153.884 41.11H126.329V43.11H153.884V41.11ZM125.487 41.5698L99.4355 82.1508L101.119 83.2312L127.171 42.6502L125.487 41.5698ZM101.119 82.1508L75.0665 41.5698L73.3835 42.6502L99.4355 83.2312L101.119 82.1508ZM74.225 41.11H46.67V43.11H74.225V41.11ZM45.8314 42.6548L82.0704 98.4328L83.7476 97.3432L47.5086 41.5652L45.8314 42.6548ZM82.069 97.3455L45.83 153.457L47.51 154.543L83.749 98.4305L82.069 97.3455ZM46.67 155H74.392V153H46.67V155ZM75.2371 154.535L101.122 113.62L99.4319 112.55L73.5469 153.465L75.2371 154.535ZM99.4319 113.62L125.317 154.535L127.007 153.465L101.122 112.55L99.4319 113.62ZM126.162 155H153.884V153H126.162V155ZM154.723 153.456L118.317 97.3437L116.639 98.4323L153.045 154.544L154.723 153.456Z" fill="black"/>
</svg>
