<svg width="200" height="200" viewBox="0 0 200 200" fill="none" xmlns="http://www.w3.org/2000/svg">


<rect opacity="0.8" x="52" y="130" width="50" height="50" rx="25" fill="#6A00C2"/>
<path d="M110.637 118.262L155.727 42.11H129.675L99.281 94.882L68.72 42.11H43.67L87.925 118.596V154H110.637V118.262Z" class="hover-purple" fill="transparent"/>
<path d="M110.637 118.262L109.777 117.753L109.637 117.988V118.262H110.637ZM155.727 42.11L156.587 42.6195L157.481 41.11H155.727V42.11ZM129.675 42.11V41.11H129.097L128.808 41.6109L129.675 42.11ZM99.281 94.882L98.4156 95.3831L99.2834 96.8815L100.148 95.3811L99.281 94.882ZM68.72 42.11L69.5854 41.6089L69.2965 41.11H68.72V42.11ZM43.67 42.11V41.11H41.9361L42.8044 42.6108L43.67 42.11ZM87.925 118.596H88.925V118.328L88.7906 118.095L87.925 118.596ZM87.925 154H86.925V155H87.925V154ZM110.637 154V155H111.637V154H110.637ZM111.497 118.771L156.587 42.6195L154.867 41.6005L109.777 117.753L111.497 118.771ZM155.727 41.11H129.675V43.11H155.727V41.11ZM128.808 41.6109L98.4145 94.3829L100.148 95.3811L130.542 42.6091L128.808 41.6109ZM100.146 94.3809L69.5854 41.6089L67.8546 42.6111L98.4156 95.3831L100.146 94.3809ZM68.72 41.11H43.67V43.11H68.72V41.11ZM42.8044 42.6108L87.0594 119.097L88.7906 118.095L44.5356 41.6092L42.8044 42.6108ZM86.925 118.596V154H88.925V118.596H86.925ZM87.925 155H110.637V153H87.925V155ZM111.637 154V118.262H109.637V154H111.637Z" fill="black"/>
</svg>
