<svg width="200" height="200" viewBox="0 0 200 200" fill="none" xmlns="http://www.w3.org/2000/svg">


<path d="M154 20L179.981 65H128.019L154 20Z" fill="#A049F8"/>
<path d="M145.361 134.628H88.08L144.192 59.311V42.11H57.519V61.482H115.301L55.849 139.471V154H145.361V134.628Z" class="hover-purple" fill="transparent"/>
<path d="M145.361 134.628H146.361V133.628H145.361V134.628ZM88.08 134.628L87.2781 134.031L86.088 135.628H88.08V134.628ZM144.192 59.311L144.994 59.9084L145.192 59.6426V59.311H144.192ZM144.192 42.11H145.192V41.11H144.192V42.11ZM57.519 42.11V41.11H56.519V42.11H57.519ZM57.519 61.482H56.519V62.482H57.519V61.482ZM115.301 61.482L116.096 62.0882L117.321 60.482H115.301V61.482ZM55.849 139.471L55.0537 138.865L54.849 139.133V139.471H55.849ZM55.849 154H54.849V155H55.849V154ZM145.361 154V155H146.361V154H145.361ZM145.361 133.628H88.08V135.628H145.361V133.628ZM88.8819 135.225L144.994 59.9084L143.39 58.7136L87.2781 134.031L88.8819 135.225ZM145.192 59.311V42.11H143.192V59.311H145.192ZM144.192 41.11H57.519V43.11H144.192V41.11ZM56.519 42.11V61.482H58.519V42.11H56.519ZM57.519 62.482H115.301V60.482H57.519V62.482ZM114.506 60.8757L55.0537 138.865L56.6443 140.077L116.096 62.0882L114.506 60.8757ZM54.849 139.471V154H56.849V139.471H54.849ZM55.849 155H145.361V153H55.849V155ZM146.361 154V134.628H144.361V154H146.361Z" fill="black"/>
</svg>
